
<svg width="22px" height="18px" viewBox="209 31 22 18" version="1.1" xmlns="http://www.w3.org/2000/svg" xmlns:xlink="http://www.w3.org/1999/xlink">
    <!-- Generator: Sketch 42 (36781) - http://www.bohemiancoding.com/sketch -->
    <desc>Created with Sketch.</desc>
    <defs></defs>
    <path d="M221.557078,33.0547945 C221.557078,33.3059361 221.657534,33.5570776 221.858447,33.7579909 L227.584475,39.4840183 L210.004566,39.4840183 C209.452055,39.4840183 209,39.9360731 209,40.4885845 C209,41.0410959 209.452055,41.4931507 210.004566,41.4931507 L227.584475,41.4931507 L221.858447,47.2191781 C221.657534,47.4200913 221.557078,47.6712329 221.557078,47.9223744 C221.557078,48.173516 221.657534,48.4246575 221.858447,48.6255708 C222.260274,49.0273973 222.863014,49.0273973 223.26484,48.6255708 L230.69863,41.1917808 C231.100457,40.7899543 231.100457,40.1872146 230.69863,39.7853881 L223.26484,32.3013699 C222.863014,31.8995434 222.260274,31.8995434 221.858447,32.3013699 C221.657534,32.5022831 221.557078,32.7534247 221.557078,33.0547945" id="Page-1" stroke="none" fill="#3571F4" fill-rule="evenodd"></path>
</svg>