
<svg width="23px" height="20px" viewBox="0 32 23 20" version="1.1" xmlns="http://www.w3.org/2000/svg" xmlns:xlink="http://www.w3.org/1999/xlink">
    <!-- Generator: Sketch 42 (36781) - http://www.bohemiancoding.com/sketch -->
    <desc>Created with Sketch.</desc>
    <defs></defs>
    <path d="M12.9539295,50.2384824 C12.9268293,50.3468835 12.8184282,50.6449864 12.7642276,51.0243902 L12.6558266,51.0243902 L11.1653117,51.0243902 L9.8102981,51.0243902 L9.70189702,51.0243902 C9.64769648,50.6178862 9.53929539,50.3468835 9.48509485,50.2384824 C8.9701897,49.0460705 7.72357724,48.2601626 6.42276423,48.2601626 L0,48.2059621 L0,49.1544715 L6.42276423,49.2357724 C7.2899729,49.2357724 8.15718157,49.7506775 8.56368564,50.5636856 C8.64498645,50.8075881 8.75338753,51.1056911 8.75338753,51.295393 C8.75338753,51.4579946 8.83468835,51.6205962 8.94308943,51.7560976 C9.1598916,51.9728997 9.53929539,52 9.72899729,52 L9.78319783,52 L11.300813,52 L12.601626,52 L12.6829268,52 C12.899729,52 13.2520325,51.9728997 13.4688347,51.7560976 C13.604336,51.6205962 13.6585366,51.4579946 13.6585366,51.295393 C13.6585366,51.1056911 13.7127371,50.9159892 13.7940379,50.6720867 C14.2276423,49.8319783 15.0948509,49.3170732 16.0433604,49.2628726 L22.4932249,49.3170732 L22.4932249,48.3685637 L15.9891599,48.3143631 C14.7425474,48.2872629 13.5230352,49.0460705 12.9539295,50.2384824 L12.9539295,50.2384824 Z M21.5447154,46.4715447 L15.0948509,46.4173442 C13.4417344,46.3902439 12.3848238,47.0406504 11.7073171,47.8807588 L11.8157182,36.4173442 C11.8428184,34.5474255 13.3333333,33.0569106 15.203252,33.0840108 L21.5447154,33.1382114 L21.5447154,46.4715447 Z M10.7588076,47.8536585 C10.1355014,47.0406504 9.07859079,46.3631436 7.45257453,46.3631436 L1.05691057,46.3089431 L1.05691057,32.9485095 L7.50677507,33.00271 C9.37669377,33.0298103 10.8672087,34.5203252 10.8401084,36.3902439 L10.7588076,47.8536585 Z M15.2303523,32.1084011 C13.5501355,32.0813008 12.0867209,33.0298103 11.3550136,34.4390244 C10.6504065,33.0298103 9.21409214,32.0542005 7.53387534,32.0542005 L0,32 L0,46.7696477 L0,47.2574526 L7.42547425,47.3116531 C10.704607,47.3387534 10.704607,50.0216802 10.704607,50.1571816 L11.6531165,50.1571816 C11.6531165,50.0216802 11.7344173,47.3387534 15.0406504,47.3658537 L22.5203252,47.4471545 L22.5203252,32.1897019 L15.2303523,32.1084011 Z" id="picto-livre-bleu" stroke="none" fill="#3571F4" fill-rule="evenodd"></path>
</svg>