
<svg width="150px" height="133px" viewBox="0 635 150 133" version="1.1" xmlns="http://www.w3.org/2000/svg" xmlns:xlink="http://www.w3.org/1999/xlink">
    <!-- Generator: Sketch 42 (36781) - http://www.bohemiancoding.com/sketch -->
    <desc>Created with Sketch.</desc>
    <defs></defs>
    <g id="Image" stroke="none" stroke-width="1" fill="none" fill-rule="evenodd" transform="translate(0.000000, 636.000000)">
        <rect id="Rectangle-11" fill="#D8D8D8" x="0" y="0" width="150" height="132"></rect>
        <path d="M88.3120687,75.5464119 C88.3120687,74.9898871 84.5323549,66.8949797 83.9923958,65.9843026 C83.7431839,65.5795572 83.5355074,65.3265914 83.0786189,65.3265914 C81.7494888,65.3265914 80.7111059,68.8681133 79.2158345,68.8681133 C78.8420167,68.8681133 78.4681989,68.6657407 78.2605223,68.3115885 L70.4518829,57.1810908 C70.2857417,56.928125 70.0365298,56.7257523 69.7457826,56.7257523 C69.3304294,56.7257523 69.1227528,57.0293113 68.9150763,57.3834635 C68.3335818,58.4965133 67.9182287,59.7613425 67.4198049,60.9755787 C66.3398867,63.454644 65.3015038,65.9843026 64.2631209,68.5139611 C63.224738,71.0942129 61.9371432,73.6238714 61.1479722,76.3559027 L87.439827,76.3559027 C87.8551802,76.3559027 88.3120687,76.1029368 88.3120687,75.5464119 L88.3120687,75.5464119 Z M87.439827,59.4577835 C87.439827,57.6364294 86.1937676,56.1186342 84.6984962,56.1186342 C83.1616895,56.1186342 81.9156301,57.6364294 81.9156301,59.4577835 C81.9156301,61.3297309 83.1616895,62.847526 84.6984962,62.847526 C86.1937676,62.847526 87.439827,61.3297309 87.439827,59.4577835 L87.439827,59.4577835 Z M58.3651061,79.695052 L58.3651061,52.7288918 L91.5933586,52.7288918 L91.5933586,79.695052 L58.3651061,79.695052 Z M97.1590909,49.3391493 C97.1590909,47.5177951 95.9130314,46 94.3762248,46 L55.6237752,46 C54.0869686,46 52.8409091,47.5177951 52.8409091,49.3391493 L52.8409091,83.6413193 C52.8409091,85.5638598 54.1700392,86.4745369 55.6237752,86.4745369 L94.3762248,86.4745369 C95.9130314,86.4745369 97.1590909,84.9567418 97.1590909,83.0847944 L97.1590909,49.3391493 Z" id="Image-Icon" fill="#FFFFFF"></path>
    </g>
</svg>