
<svg width="176px" height="132px" viewBox="0 13 176 132" version="1.1" xmlns="http://www.w3.org/2000/svg" xmlns:xlink="http://www.w3.org/1999/xlink">
    <!-- Generator: Sketch 42 (36781) - http://www.bohemiancoding.com/sketch -->
    <desc>Created with Sketch.</desc>
    <defs></defs>
    <g id="Image" stroke="none" stroke-width="1" fill="none" fill-rule="evenodd" transform="translate(0.000000, 13.000000)">
        <rect id="Rectangle-11" fill="#D8D8D8" x="0" y="0" width="176" height="132"></rect>
        <path d="M103.619494,75.5464119 C103.619494,74.9898871 99.1846298,66.8949797 98.5510778,65.9843026 C98.2586692,65.5795572 98.0149953,65.3265914 97.4789128,65.3265914 C95.9194002,65.3265914 94.7010309,68.8681133 92.9465792,68.8681133 C92.5079663,68.8681133 92.0693533,68.6657407 91.8256795,68.3115885 L82.6635426,57.1810908 C82.4686036,56.928125 82.1761949,56.7257523 81.8350515,56.7257523 C81.3477038,56.7257523 81.10403,57.0293113 80.8603561,57.3834635 C80.1780694,58.4965133 79.6907216,59.7613425 79.1059044,60.9755787 C77.8388004,63.454644 76.6204311,65.9843026 75.4020619,68.5139611 C74.1836926,71.0942129 72.6729147,73.6238714 71.7469541,76.3559027 L102.596064,76.3559027 C103.083411,76.3559027 103.619494,76.1029368 103.619494,75.5464119 L103.619494,75.5464119 Z M102.596064,59.4577835 C102.596064,57.6364294 101.134021,56.1186342 99.3795689,56.1186342 C97.5763824,56.1186342 96.1143393,57.6364294 96.1143393,59.4577835 C96.1143393,61.3297309 97.5763824,62.847526 99.3795689,62.847526 C101.134021,62.847526 102.596064,61.3297309 102.596064,59.4577835 L102.596064,59.4577835 Z M68.4817245,79.695052 L68.4817245,52.7288918 L107.469541,52.7288918 L107.469541,79.695052 L68.4817245,79.695052 Z M114,49.3391493 C114,47.5177951 112.537957,46 110.73477,46 L65.2652296,46 C63.4620431,46 62,47.5177951 62,49.3391493 L62,83.6413193 C62,85.5638598 63.5595127,86.4745369 65.2652296,86.4745369 L110.73477,86.4745369 C112.537957,86.4745369 114,84.9567418 114,83.0847944 L114,49.3391493 Z" id="Image-Icon" fill="#FFFFFF"></path>
    </g>
</svg>