
<svg width="24px" height="19px" viewBox="-1 33 24 19" version="1.1" xmlns="http://www.w3.org/2000/svg" xmlns:xlink="http://www.w3.org/1999/xlink">
    <!-- Generator: Sketch 42 (36781) - http://www.bohemiancoding.com/sketch -->
    <desc>Created with Sketch.</desc>
    <defs></defs>
    <path d="M12.7247537,35.0688793 C12.7247537,35.3233744 12.8265518,35.5778695 13.0301478,35.7814655 L18.8326355,41.5839532 L1.0179803,41.5839532 C0.458091135,41.5839532 3.55271368e-15,42.0420444 3.55271368e-15,42.6019335 C3.55271368e-15,43.1618227 0.458091135,43.6199138 1.0179803,43.6199138 L18.8326355,43.6199138 L13.0301478,49.4224015 C12.8265518,49.6259976 12.7247537,49.8804927 12.7247537,50.1349877 C12.7247537,50.3894828 12.8265518,50.6439779 13.0301478,50.8475739 C13.4373399,51.2547661 14.0481281,51.2547661 14.4553202,50.8475739 L21.9883745,43.3145197 C22.3955666,42.9073276 22.3955666,42.2965394 21.9883745,41.8893473 L14.4553202,34.3053941 C14.0481281,33.898202 13.4373399,33.898202 13.0301478,34.3053941 C12.8265518,34.5089901 12.7247537,34.7634852 12.7247537,35.0688793" id="fleche1" stroke="none" fill="#D0021B" fill-rule="evenodd" transform="translate(11.146884, 42.576484) rotate(180.000000) translate(-11.146884, -42.576484) "></path>
</svg>