
<svg width="23px" height="21px" viewBox="190 32 23 21" version="1.1" xmlns="http://www.w3.org/2000/svg" xmlns:xlink="http://www.w3.org/1999/xlink">
    <!-- Generator: Sketch 42 (36781) - http://www.bohemiancoding.com/sketch -->
    <desc>Created with Sketch.</desc>
    <defs></defs>
    <path d="M202.95393,50.2384824 C202.926829,50.3468835 202.818428,50.6449864 202.764228,51.0243902 L202.655827,51.0243902 L201.165312,51.0243902 L199.810298,51.0243902 L199.701897,51.0243902 C199.647696,50.6178862 199.539295,50.3468835 199.485095,50.2384824 C198.97019,49.0460705 197.723577,48.2601626 196.422764,48.2601626 L190,48.2059621 L190,49.1544715 L196.422764,49.2357724 C197.289973,49.2357724 198.157182,49.7506775 198.563686,50.5636856 C198.644986,50.8075881 198.753388,51.1056911 198.753388,51.295393 C198.753388,51.4579946 198.834688,51.6205962 198.943089,51.7560976 C199.159892,51.9728997 199.539295,52 199.728997,52 L199.783198,52 L201.300813,52 L202.601626,52 L202.682927,52 C202.899729,52 203.252033,51.9728997 203.468835,51.7560976 C203.604336,51.6205962 203.658537,51.4579946 203.658537,51.295393 C203.658537,51.1056911 203.712737,50.9159892 203.794038,50.6720867 C204.227642,49.8319783 205.094851,49.3170732 206.04336,49.2628726 L212.493225,49.3170732 L212.493225,48.3685637 L205.98916,48.3143631 C204.742547,48.2872629 203.523035,49.0460705 202.95393,50.2384824 L202.95393,50.2384824 Z M211.544715,46.4715447 L205.094851,46.4173442 C203.441734,46.3902439 202.384824,47.0406504 201.707317,47.8807588 L201.815718,36.4173442 C201.842818,34.5474255 203.333333,33.0569106 205.203252,33.0840108 L211.544715,33.1382114 L211.544715,46.4715447 Z M200.758808,47.8536585 C200.135501,47.0406504 199.078591,46.3631436 197.452575,46.3631436 L191.056911,46.3089431 L191.056911,32.9485095 L197.506775,33.00271 C199.376694,33.0298103 200.867209,34.5203252 200.840108,36.3902439 L200.758808,47.8536585 Z M205.230352,32.1084011 C203.550136,32.0813008 202.086721,33.0298103 201.355014,34.4390244 C200.650407,33.0298103 199.214092,32.0542005 197.533875,32.0542005 L190,32 L190,46.7696477 L190,47.2574526 L197.425474,47.3116531 C200.704607,47.3387534 200.704607,50.0216802 200.704607,50.1571816 L201.653117,50.1571816 C201.653117,50.0216802 201.734417,47.3387534 205.04065,47.3658537 L212.520325,47.4471545 L212.520325,32.1897019 L205.230352,32.1084011 Z" id="picto-livre" stroke="none" fill="#D0021B" fill-rule="evenodd"></path>
</svg>