
<svg width="22px" height="17px" viewBox="328 34 22 17" version="1.1" xmlns="http://www.w3.org/2000/svg" xmlns:xlink="http://www.w3.org/1999/xlink">
    <!-- Generator: Sketch 42 (36781) - http://www.bohemiancoding.com/sketch -->
    <desc>Created with Sketch.</desc>
    <defs></defs>
    <path d="M340.557078,35.0547945 C340.557078,35.3059361 340.657534,35.5570776 340.858447,35.7579909 L346.584475,41.4840183 L329.004566,41.4840183 C328.452055,41.4840183 328,41.9360731 328,42.4885845 C328,43.0410959 328.452055,43.4931507 329.004566,43.4931507 L346.584475,43.4931507 L340.858447,49.2191781 C340.657534,49.4200913 340.557078,49.6712329 340.557078,49.9223744 C340.557078,50.173516 340.657534,50.4246575 340.858447,50.6255708 C341.260274,51.0273973 341.863014,51.0273973 342.26484,50.6255708 L349.69863,43.1917808 C350.100457,42.7899543 350.100457,42.1872146 349.69863,41.7853881 L342.26484,34.3013699 C341.863014,33.8995434 341.260274,33.8995434 340.858447,34.3013699 C340.657534,34.5022831 340.557078,34.7534247 340.557078,35.0547945" id="fleche2" stroke="none" fill="#D0021B" fill-rule="evenodd"></path>
</svg>