
<svg width="158px" height="222px" viewBox="122 129 158 222" version="1.1" xmlns="http://www.w3.org/2000/svg" xmlns:xlink="http://www.w3.org/1999/xlink">
    <!-- Generator: Sketch 42 (36781) - http://www.bohemiancoding.com/sketch -->
    <desc>Created with Sketch.</desc>
    <defs></defs>
    <g id="PICTOS-COMM" stroke="none" fill="none" transform="translate(123.000000, 129.000000)" stroke-width="1" fill-rule="evenodd">
        <g transform="translate(0.000000, 12.000000)">
            <g id="picto-com" transform="translate(83.000000, 77.000000)">
                <g id="Page-1" transform="translate(0.596154, 0.575342)">
                    <polygon id="Stroke-1" stroke="#EF001D" stroke-width="2" points="12.3672877 1.81559974 2.84771818 77.5745797 2.84771818 78.8084394 4.06817581 79.6311769 53.8628469 90.4891415 55.1648311 90.4891415 56.1411972 90.4891415 56.7919452 89.3372102 68.9965214 6.42184443 68.9965214 5.10605654 68.0201553 3.78977511 66.2299881 2.96703753 14.8082029 0.00577446297 13.3436538 0.66416195"></polygon>
                    <polygon id="Fill-3" fill="#EF001D" points="0 106.611491 2.84757173 107.598579 6.65686407 80.1955443 4.06802935 79.6309302"></polygon>
                    <polygon id="Fill-4" fill="#EF001D" points="54.0256071 90.4887467 49.9575778 119.937027 52.8051495 120.924115 56.6139537 90.0662731"></polygon>
                    <g id="Group-17" transform="translate(5.370014, 2.473642)">
                        <path d="M54.5283868,65.7590908 L62.3246701,66.9574152 L62.3246701,86.699169 L64.6030204,86.699169 L64.6030204,85.5477312 L64.6030204,66.7930651 L65.7419515,65.7590908 L65.7419515,2.79671554 C65.7419515,2.79671554 64.7655854,-0.328897617 60.860121,0.493346426" id="Stroke-5" stroke="#EF001D" stroke-width="2"></path>
                        <polyline id="Stroke-7" stroke="#EF001D" stroke-width="2" points="61.4283661 18.8822471 62.1621052 64.8188404 54.7758956 64.0775375"></polyline>
                        <polygon id="Stroke-9" stroke="#EF001D" stroke-width="2" points="9.60094959 0.822589524 60.3719868 4.11304633 48.8181585 84.725043 0.162906684 74.8541661"></polygon>
                        <path d="M21.1457953,22.6100825 C21.857078,22.6989204 22.5278415,22.187609 22.6186435,21.4487738 C22.7084692,20.7104322 22.1841606,20.0298353 21.4728779,19.9409974 L19.8442992,19.7371638 L19.5172166,22.4062489 L21.1457953,22.6100825 Z M21.7975196,17.290667 C23.9684697,17.5621161 25.508199,19.5807104 25.2392101,21.7769805 C24.9702213,23.9732506 22.9925917,25.5318621 20.8216417,25.2604129 L19.1930631,25.0565793 L18.5437796,30.3577338 L15.9237012,30.0295271 L17.5483744,16.7591202 L21.7975196,17.290667 Z" id="Fill-11" fill="#EF001D"></path>
                        <path d="M36.6481945,27.644822 C36.3001199,30.4846732 33.7356944,32.4889548 30.9467046,32.1400193 C28.1396521,31.7886161 26.1546998,29.2147849 26.4817824,26.3917141 L27.5089196,18.0054172 L30.128998,18.3331303 L29.10479,26.7006726 C29.0237516,27.363502 29.208773,28.0209024 29.6193349,28.5529426 C30.0284323,29.0844894 30.6166929,29.4077606 31.2713463,29.4896888 C31.9269762,29.5716171 32.555756,29.400851 33.0820173,28.9862741 C33.6073022,28.5712038 33.9251094,27.9957316 34.0251869,27.3358635 L34.0061478,27.3333958 L35.0327967,18.9466053 L37.6538515,19.2748119 L36.6291553,27.6428478 L36.6481945,27.644822 Z" id="Fill-13" fill="#EF001D"></path>
                        <path d="M42.4582562,25.2194982 C43.1880899,25.3108038 44.0492448,24.8034407 44.1625032,23.8755783 C44.2762499,22.9482094 43.559109,22.2819252 42.8292753,22.1906196 L41.6874152,22.0474919 L41.3163961,25.0763704 L42.4582562,25.2194982 Z M42.5773729,31.0778636 C43.4570787,31.1879239 44.2728326,30.5788908 44.3816974,29.6890312 C44.4905622,28.7991717 43.8490897,27.9882791 42.9693839,27.8782188 L41.0596118,27.6393436 L40.6676008,30.8384948 L42.5773729,31.0778636 Z M43.212499,19.989414 C45.3277962,20.2544471 46.8372582,22.2113484 46.5751039,24.350861 C46.4755145,25.1647148 46.1411091,25.8724567 45.6343751,26.4434869 C46.4979709,27.3012661 46.9563748,28.5306838 46.7986917,29.8183397 C46.5253092,32.0521191 44.5286405,33.60925 42.3386514,33.3353331 L38.0143259,32.7944091 L39.6375345,19.5422633 L43.212499,19.989414 Z" id="Fill-15" fill="#EF001D"></path>
                    </g>
                </g>
            </g>
            <g id="picto-rouleau--com-visu" transform="translate(43.040710, 179.089017) rotate(12.000000) translate(-43.040710, -179.089017) translate(4.040710, 157.589017)" fill-rule="nonzero" fill="#EF001D">
                <g id="Group" transform="translate(-0.000000, 0.000000)">
                    <g transform="translate(38.946353, 21.783683) rotate(-91.000000) translate(-38.946353, -21.783683) translate(18.446353, -16.716317)" id="Shape">
                        <path d="M21.2472221,10.5204476 C23.1412124,10.7645416 27.9468203,10.6084958 27.8256119,8.73594678 C27.7366676,7.43527494 24.7727298,7.19466808 24.1265757,7.143234 C23.2057406,7.07174936 22.3328657,7.20600101 21.3963346,7.31409974 C20.1057704,7.46055609 17.9353552,7.32368915 18.0295315,8.92773486 C18.0905717,9.92764814 20.1668106,10.3809654 21.2472221,10.5204476 Z"></path>
                        <path d=""></path>
                        <path d="M40.2089248,26.6646447 L40.2106688,26.6646447 C40.2010767,23.0938994 40.1923567,20.0340079 40.1836367,17.0351398 C40.1749166,13.9185836 40.8001427,10.2615337 39.9979001,7.41173731 C38.4160868,1.7810138 27.5334909,-0.310347975 21.195774,0.0775869937 C15.7030278,0.410600832 8.2090351,2.20294756 6.12582023,6.70124967 C4.48907082,10.2196891 5.8755554,15.970716 5.67935475,19.5379742 C2.06577482,21.9710674 0.392401296,22.9282643 0.392401296,22.9282643 C0.392401296,22.9282643 0.404609336,27.5529722 0.409841353,29.5039799 C0.452569494,45.1181445 0.500529653,62.0591338 0.541513788,76.6829745 C7.37888836,73.2900691 13.9747181,69.5920463 22.9589638,68.3122968 L28.1212208,67.8615948 L28.1264529,67.8615948 L28.1264529,67.8615948 C33.4805505,66.9828567 38.9148725,64.7886268 39.9970281,60.9363018 C40.7992707,58.0865054 40.1740446,54.4294555 40.1827647,51.3128993 C40.1914847,48.37767 40.2002047,30.7636789 40.2089248,26.6646447 Z M20.4022514,3.60823109 C23.020004,3.39552068 27.260554,3.41557125 30.5166128,4.22108116 C32.6565078,4.75460071 36.7305053,6.29936648 36.7906735,8.70107623 C36.9153699,13.3449629 26.2900148,14.5602019 20.2731949,14.2062657 C16.7738474,13.9935553 9.10109405,12.6240141 9.02261379,8.9364525 C8.94326153,5.17566271 16.5070145,3.92642494 20.4022514,3.60823109 Z M13.3765242,15.9881513 C9.20573439,17.9199803 13.3765242,15.9881513 9.20573439,17.9199803 C9.03656584,14.0728858 9.20050238,17.9042885 9.03656584,14.0728858 C10.4666506,14.7214782 11.5915343,15.6917515 13.3765242,15.9881513 Z M36.8046255,54.0275723 L36.7889295,59.6460911 C36.7296333,62.0478009 32.6547638,63.5925666 30.5148687,64.1260862 C29.7335542,64.3196178 28.8955594,64.4652024 28.0366366,64.5759164 C26.337975,64.7938574 24.5678091,64.8644703 22.9859959,64.8479067 C22.1392811,64.9438008 21.3134944,65.064976 20.5060197,65.2062017 C14.0357583,66.3333926 8.7540369,68.776947 3.89698087,70.9023075 C3.85425273,55.5479287 3.81152458,40.1944216 3.76792444,24.8400427 C7.59252907,22.242186 11.815639,20.2092324 17.2368809,18.7028243 C22.6720749,17.1955444 28.6862787,17.6540922 33.6035029,15.767595 C34.6812985,15.3526353 35.6745098,14.4076432 36.8063695,14.3204668 C36.8177056,18.3140176 36.8281696,22.3110554 36.8395056,26.308965 C36.8272976,30.6215814 36.8159616,49.8805911 36.8046255,54.0275723 Z"></path>
                    </g>
                </g>
            </g>
            <g id="picto-affiche-com-visu" transform="translate(12.000000, 0.000000)">
                <path d="M6.58695259,137.541256 L60.0310907,137.541256 L60.0310907,36.4323826 L6.58695259,36.4323826 L6.58695259,137.541256 Z M34.5815011,143.275789 L64.9713051,143.275789 C65.8695259,143.275789 66.4683398,142.672154 66.4683398,141.766701 C66.4683398,140.861248 66.0192294,140.106705 65.2707121,140.106705 L63.1748635,140.106705 L63.1748635,36.4323826 L65.2707121,36.4323826 C66.1689329,36.4323826 66.7677467,35.8287476 66.7677467,34.923295 C66.7677467,34.0178424 66.1689329,33.4142073 65.2707121,33.4142073 L63.1748635,33.4142073 L6.58695259,33.4142073 L6.58695259,34.1687511 C6.58695259,33.2632985 6.58695259,32.5087547 6.58695259,33.4142073 L3.59288323,33.4142073 L1.49703468,33.4142073 C0.598813872,33.4142073 0,34.0178424 0,34.923295 C0,35.8287476 0.598813872,36.4323826 1.49703468,36.4323826 L3.59288323,36.4323826 L3.59288323,140.106705 L1.49703468,140.106705 C0.598813872,140.106705 0,140.71034 0,141.615792 C0,142.521245 0.598813872,143.12488 1.49703468,143.12488 L31.8868387,143.12488 L34.5815011,143.275789 Z" id="Fill-1" fill="#F1102C"></path>
                <path d="M9,34.3277248 L9,0.00390625" id="Stroke-3" stroke="#F00925" stroke-width="2"></path>
                <path d="M63.02516,34.2903386 L63.02516,35.0448825 C63.02516,34.1394299 62.4263462,33.5357948 61.5281254,33.5357948 C60.6299046,33.5357948 60.0310907,34.1394299 60.0310907,35.0448825 L60.0310907,34.2903386" id="Fill-4" fill="#FFFFFF"></path>
                <path d="M56.6666667,34.3277248 L56.6666667,0.638635361" id="Stroke-5" stroke="#F00925" stroke-width="2"></path>
                <path d="M27.4506758,64.952932 L11.7377998,80.7923161 C11.9473847,83.4950921 14.1540138,85.5610331 16.8875991,85.5610331 L27.503072,85.5610331 L37.6978782,75.2841461 L27.4506758,64.952932 Z" id="Fill-6" fill="#F1102C"></path>
                <polygon id="Fill-7" fill="#F1102C" points="29.7104497 85.5608822 52.4668739 85.5608822 41.1148599 74.0646524"></polygon>
                <path d="M17.2552708,61.8273097 C19.0262629,61.8273097 20.4604221,63.3213065 20.4604221,65.1654116 C20.4604221,67.0080076 19.0262629,68.5020044 17.2552708,68.5020044 C15.4842788,68.5020044 14.0501196,67.0080076 14.0501196,65.1654116 C14.0501196,63.3213065 15.4842788,61.8273097 17.2552708,61.8273097" id="Fill-8" fill="#F1102C"></path>
                <path d="M34.5454226,62.9927781 C34.8612969,63.3111956 35.3867561,63.7337401 35.4915485,63.8937034 C35.4915485,63.9465215 35.5439447,63.9993396 35.5963409,64.0521576 C35.8074228,64.264939 36.1218001,64.264939 36.332882,64.0521576 C36.4376744,63.9465215 36.4900706,63.7880673 36.4900706,63.628104 C36.4900706,63.4696498 36.4376744,63.3111956 36.1741963,63.0455962 C37.9092595,63.8937034 38.5919073,64.2106118 38.9601779,64.2106118 C39.1173665,64.2106118 39.2221589,64.1577938 39.3284484,64.0521576 C39.4332408,63.9465215 39.485637,63.7880673 39.485637,63.628104 C39.485637,63.4696498 39.4332408,63.3111956 39.1697627,63.0455962 C41.6922661,64.264939 41.9557443,64.3705751 42.3240148,64.0521576 C42.4288072,63.9465215 42.4812034,63.7880673 42.4812034,63.628104 C42.4812034,63.4696498 42.4288072,63.3111956 42.1653291,63.0455962 C44.6878325,64.264939 44.9513106,64.3705751 45.3195812,64.0521576 C45.4243736,63.9465215 45.4767698,63.7880673 45.4767698,63.628104 C45.4767698,63.4696498 45.4243736,63.3111956 45.1608955,63.0455962 C47.6833989,64.264939 47.946877,64.3705751 48.3151476,64.0521576 C48.41994,63.9465215 48.4723362,63.7880673 48.4723362,63.628104 C48.4723362,63.4696498 48.41994,63.3111956 48.1564619,63.0455962 C50.6789653,64.264939 50.9424434,64.3705751 51.310714,64.0521576 C51.4155064,63.9465215 51.4679026,63.7880673 51.4679026,63.628104 C51.4679026,63.4696498 51.4155064,63.3111956 51.1520283,63.0455962 C53.6745317,64.264939 53.9380098,64.3705751 54.3062804,64.0521576 C54.4110728,63.9465215 54.463469,63.7880673 54.463469,63.628104 C54.463469,63.3111956 54.3062804,63.1512323 53.2014688,62.1446708 L53.1490726,62.0918528 C53.2014688,62.0918528 53.253865,62.0918528 53.3077582,62.1446708 C54.9889282,62.4102703 55.198513,62.4102703 55.4095949,62.1974889 C55.5143874,62.0918528 55.5667836,61.9333986 55.5667836,61.8277624 C55.5667836,61.562163 55.4095949,61.4565269 55.198513,61.2452546 C55.1461168,61.1909274 55.0937206,61.1909274 55.0937206,61.1381094 L55.0413244,61.0852913 C54.8317395,60.874019 54.5158652,60.874019 54.3062804,61.0852913 C54.2523871,61.1381094 54.2523871,61.1909274 54.1999909,61.2452546 C53.9380098,61.1909274 53.6745317,61.1909274 53.4649469,61.1381094 C51.7822799,60.874019 51.572695,60.874019 51.3631102,61.0852913 C51.2568207,61.1909274 51.2044245,61.3508907 51.2044245,61.5093449 C51.2044245,61.6677991 51.2568207,61.8277624 51.5202988,62.0918528 C48.9977954,60.874019 48.7343173,60.7683829 48.3675438,61.0852913 C48.2612543,61.1909274 48.2088581,61.3508907 48.2088581,61.5093449 C48.2088581,61.6677991 48.2612543,61.8277624 48.5247324,62.0918528 C46.002229,60.874019 45.7387509,60.7683829 45.3719774,61.0852913 C45.2656879,61.1909274 45.2132917,61.3508907 45.2132917,61.5093449 C45.2132917,61.6677991 45.2656879,61.8277624 45.529166,62.0918528 C43.0066626,60.874019 42.7431845,60.7683829 42.376411,61.0852913 C42.2701215,61.1909274 42.2177253,61.3508907 42.2177253,61.5093449 C42.2177253,61.6677991 42.2701215,61.8277624 42.5335996,62.0918528 C40.0110962,60.874019 39.7476181,60.7683829 39.3808446,61.0852913 C39.2745551,61.1909274 39.2221589,61.3508907 39.2221589,61.5093449 C39.2221589,61.6677991 39.2745551,61.8277624 39.5380332,62.0918528 C37.0155298,60.874019 36.7520517,60.7683829 36.3852782,61.0852913 C36.2789887,61.1909274 36.2265925,61.3508907 36.2265925,61.5093449 C36.2265925,61.6677991 36.2789887,61.8277624 36.5424668,62.0918528 C34.0199634,60.874019 33.7564853,60.7683829 33.3897118,61.0852913 C33.2834223,61.1909274 33.2310261,61.3508907 33.2310261,61.5093449 C33.2310261,61.8277624 33.3897118,61.9862166 34.5454226,62.9927781" id="Fill-9" fill="#F1102C"></path>
                <path d="M55.304054,66.6480902 C55.4088464,66.5424541 55.4612426,66.3824908 55.4612426,66.2768547 C55.4612426,66.0127643 55.304054,65.9071282 55.0944691,65.6943468 C55.0405759,65.6415287 54.9881797,65.6415287 54.9881797,65.5887107 L54.9357834,65.5358926 C54.7261986,65.3231113 54.4103243,65.3231113 54.2007394,65.5358926 C54.1483432,65.5887107 54.095947,65.6415287 54.095947,65.6943468 C53.8324689,65.6415287 53.5704878,65.6415287 53.3594059,65.5887107 C51.678236,65.3231113 51.4671541,65.3231113 51.2575692,65.5358926 C51.1527768,65.6415287 51.1003806,65.799983 51.1003806,65.9071282 C51.1003806,66.0127643 51.1003806,66.1184004 51.205173,66.1712185 C51.1527768,66.1712185 51.1527768,66.1712185 51.1003806,66.1184004 C48.8398582,65.2174751 48.6302734,65.164657 48.3143991,65.4830745 C48.2096066,65.5887107 48.1572104,65.7471649 48.1572104,65.852801 C48.1572104,65.9599462 48.1572104,66.0655824 48.2620028,66.1184004 C48.2096066,66.1184004 48.2096066,66.1184004 48.1572104,66.0655824 C45.896688,65.164657 45.6871032,65.111839 45.3712289,65.4302565 C45.2664364,65.5358926 45.2140402,65.6943468 45.2140402,65.799983 C45.2140402,65.9071282 45.2140402,66.0127643 45.3188327,66.0655824 C45.2664364,66.0655824 45.2664364,66.0655824 45.2140402,66.0127643 C42.9535179,65.111839 42.743933,65.0590209 42.3756625,65.3759293 C42.2708701,65.4830745 42.2184738,65.6415287 42.2184738,65.7471649 C42.2184738,65.852801 42.2184738,65.9599462 42.3232663,66.0655824 C42.2708701,66.0655824 42.2708701,66.0655824 42.2184738,66.0127643 C39.9579515,65.111839 39.6959704,65.0590209 39.3800961,65.3759293 C39.2753037,65.4830745 39.2229074,65.6415287 39.2229074,65.7471649 C39.2229074,65.852801 39.2229074,65.9599462 39.3276999,66.0655824 C39.2753037,66.0655824 39.2753037,66.0655824 39.2229074,66.0127643 C36.9623851,65.111839 36.700404,65.0590209 36.3845297,65.3759293 C36.2797373,65.4830745 36.227341,65.6415287 36.227341,65.7471649 C36.227341,65.852801 36.227341,65.9599462 36.3321335,66.0655824 C36.2797373,66.0655824 36.2797373,66.0655824 36.227341,66.0127643 C33.9668187,65.111839 33.7048376,65.0590209 33.3889633,65.3759293 C33.2841709,65.4830745 33.2317747,65.6415287 33.2317747,65.7471649 C33.2317747,66.0655824 33.3889633,66.1712185 34.1779006,66.9136896 C34.3874854,67.1249619 34.7033597,67.3890523 34.8081522,67.4961975 C34.8081522,67.5490155 34.8605484,67.6018336 34.9129446,67.6546517 C35.1240265,67.865924 35.4384038,67.865924 35.6494857,67.6546517 C35.7542781,67.5490155 35.8066743,67.3890523 35.8066743,67.2834161 C35.8066743,67.17778 35.8066743,67.0721438 35.7018819,66.9665077 C35.7542781,66.9665077 35.7542781,66.9665077 35.8066743,67.0193258 C37.3306556,67.6018336 37.908511,67.865924 38.2243853,67.865924 C38.381574,67.865924 38.4863664,67.8131059 38.5926558,67.7074697 C38.6974483,67.6018336 38.7498445,67.4433794 38.7498445,67.3362342 C38.7498445,67.230598 38.7498445,67.1249619 38.6450521,67.0193258 C38.6974483,67.0193258 38.6974483,67.0193258 38.7498445,67.0721438 C41.0088698,67.9730692 41.2723479,68.0258872 41.5882222,67.7074697 C41.6930147,67.6018336 41.7454109,67.4433794 41.7454109,67.3362342 C41.7454109,67.230598 41.7454109,67.1249619 41.6406185,67.0193258 C41.6930147,67.0193258 41.6930147,67.0193258 41.7454109,67.0721438 C44.0044362,67.9730692 44.2155181,68.0258872 44.5837886,67.7074697 C44.6885811,67.6018336 44.7409773,67.4433794 44.7409773,67.3362342 C44.7409773,67.230598 44.7409773,67.1249619 44.6361848,67.0193258 C44.6885811,67.0193258 44.6885811,67.0193258 44.7409773,67.0721438 C47.0000026,67.9730692 47.2110845,68.0258872 47.579355,67.7074697 C47.6841475,67.6018336 47.7365437,67.4433794 47.7365437,67.3362342 C47.7365437,67.230598 47.7365437,67.1249619 47.6317512,67.0193258 C47.6841475,67.0193258 47.6841475,67.0193258 47.7365437,67.0721438 C49.995569,67.9730692 50.2066509,68.0258872 50.5210282,67.7074697 C50.6273176,67.6018336 50.6797139,67.4433794 50.6797139,67.3362342 C50.6797139,67.230598 50.6797139,67.1249619 50.5749214,67.0721438 C50.6273176,67.0721438 50.6273176,67.0721438 50.6797139,67.1249619 C52.9387392,68.0258872 53.1498211,68.0787053 53.4641984,67.7602878 C53.5704878,67.6546517 53.622884,67.4961975 53.622884,67.3890523 C53.622884,67.1249619 53.5165946,67.0193258 53.0435316,66.5952721 L53.2022173,66.5952721 C54.8833872,66.8593625 55.0944691,66.9136896 55.304054,66.6480902" id="Fill-10" fill="#F1102C"></path>
                <path d="M55.1464162,69.3499608 C55.09402,69.2971427 55.0416238,69.2971427 55.0416238,69.2443246 L54.9892276,69.1915066 C54.7781457,68.9787252 54.4637684,68.9787252 54.2526865,69.1915066 C54.2002903,69.2443246 54.1478941,69.2971427 54.1478941,69.3499608 C53.884416,69.2971427 53.6224349,69.2971427 53.4128501,69.2443246 C51.7301831,68.9787252 51.5205982,68.9787252 51.3095163,69.1915066 C51.2047239,69.2971427 51.1523277,69.4555969 51.1523277,69.561233 C51.1523277,69.6683782 51.1523277,69.7740144 51.2571201,69.8268325 C51.2047239,69.8268325 51.2047239,69.8268325 51.1523277,69.7740144 C48.8918053,68.8730891 48.6822205,68.820271 48.3663462,69.1386885 C48.2615537,69.2443246 48.2091575,69.4027788 48.2091575,69.508415 C48.2091575,69.6155602 48.2091575,69.7211963 48.3139499,69.7740144 C48.2615537,69.7740144 48.2615537,69.7740144 48.2091575,69.7211963 C45.9501322,68.820271 45.7390503,68.7674529 45.424673,69.0843613 C45.3183835,69.1915066 45.2659873,69.3499608 45.2659873,69.4555969 C45.2659873,69.561233 45.2659873,69.6683782 45.3707798,69.7740144 C45.3183835,69.7740144 45.3183835,69.7740144 45.2659873,69.7211963 C43.006962,68.820271 42.7958801,68.7674529 42.4291066,69.0843613 C42.3228172,69.1915066 42.2704209,69.3499608 42.2704209,69.4555969 C42.2704209,69.6683782 42.3752134,69.8268325 42.7958801,70.2508861 L42.6910877,70.2508861 C40.9575215,69.9324686 40.7464396,69.8796505 40.4844586,70.1452499 C40.3781691,70.2508861 40.3257729,70.4093403 40.3257729,70.5149764 C40.3257729,70.7805759 40.4844586,70.886212 40.7464396,71.1518114 C40.7988358,71.2046295 40.8512321,71.2574476 40.9051253,71.3102656 C40.9051253,71.3630837 40.9575215,71.3630837 40.9575215,71.4159018 C41.1671064,71.6286831 41.4829807,71.6286831 41.6925656,71.4159018 C41.7449618,71.3630837 41.797358,71.2574476 41.797358,71.2046295 C42.0084399,71.2574476 42.2180247,71.3102656 42.4291066,71.3102656 C44.1626728,71.6286831 44.3722576,71.6815012 44.6357357,71.4159018 C44.7405282,71.3102656 44.7929244,71.1518114 44.7929244,71.0446662 C44.7929244,70.9390301 44.7929244,70.8333939 44.6881319,70.7277578 C44.7405282,70.7277578 44.7405282,70.7277578 44.7929244,70.7805759 C46.2645095,71.3630837 46.8947611,71.6286831 47.2106354,71.6286831 C47.367824,71.6286831 47.4741135,71.574356 47.5789059,71.4687198 C47.6836983,71.3630837 47.7360946,71.2046295 47.7360946,71.0974843 C47.7360946,70.9918481 47.7360946,70.886212 47.6313021,70.7805759 C47.6836983,70.7805759 47.6836983,70.7805759 47.7360946,70.8333939 C49.9966169,71.7343193 50.2062018,71.7871373 50.5744723,71.4687198 C50.6792647,71.3630837 50.731661,71.2046295 50.731661,71.0974843 C50.731661,70.9918481 50.731661,70.886212 50.6268685,70.7805759 C50.6792647,70.7805759 50.6792647,70.7805759 50.731661,70.8333939 C52.9921833,71.7343193 53.2017682,71.7871373 53.5176425,71.4687198 C53.6224349,71.3630837 53.6748311,71.2046295 53.6748311,71.0974843 C53.6748311,70.8333939 53.5700387,70.7277578 53.0969757,70.3037042 L53.2541644,70.3037042 C54.9368314,70.5677945 55.1464162,70.5677945 55.4098943,70.3565222 C55.5146868,70.2508861 55.567083,70.0909228 55.567083,69.9852867 C55.5146868,69.6683782 55.4098943,69.561233 55.1464162,69.3499608" id="Fill-11" fill="#F1102C"></path>
                <path d="M14.0495208,99.5122466 L53.8930988,99.5122466" id="Stroke-12" stroke="#F00925"></path>
            </g>
        </g>
    </g>
</svg>