
<svg width="170px" height="178px" viewBox="126 173 170 178" version="1.1" xmlns="http://www.w3.org/2000/svg" xmlns:xlink="http://www.w3.org/1999/xlink">
    <!-- Generator: Sketch 42 (36781) - http://www.bohemiancoding.com/sketch -->
    <desc>Created with Sketch.</desc>
    <defs>
        <rect id="path-1" x="-4.72955008e-13" y="5.03361345" width="67.8560947" height="55.9663866"></rect>
        <mask id="mask-2" maskContentUnits="userSpaceOnUse" maskUnits="objectBoundingBox" x="0" y="0" width="67.8560947" height="55.9663866" fill="white">
            <use xlink:href="#path-1"></use>
        </mask>
    </defs>
    <g id="PICTOS-FOURNITURES" stroke="none" fill="none" transform="translate(126.000000, 175.000000)" stroke-width="1" fill-rule="evenodd">
        <g>
            <g id="PICTOS">
                <g id="picto-intercalaire-" transform="translate(118.321458, 58.423885) rotate(9.000000) translate(-118.321458, -58.423885) translate(76.321458, 5.923885)" stroke-width="3" stroke="#FFCC08">
                    <polygon id="Stroke-1" points="0.766665561 0.766849993 83.18628 0.766849993 83.18628 27.267652 75.7557574 27.267652 75.7557574 104.664288 0.766665561 104.664288"></polygon>
                    <polyline id="Stroke-3" points="82.8474138 41.7733865 82.8474138 53.2209232 75.3248914 53.2209232"></polyline>
                    <polyline id="Stroke-5" points="82.8474138 29.5037866 82.8474138 40.9513233 75.3248914 40.9513233"></polyline>
                    <polyline id="Stroke-7" points="82.8474138 54.0429864 82.8474138 65.4920568 75.3248914 65.4920568"></polyline>
                    <polyline id="Stroke-9" points="82.8474138 66.3125863 82.8474138 77.7616567 75.3248914 77.7616567"></polyline>
                    <polyline id="Stroke-11" points="82.8474138 78.5821861 82.8474138 90.0312565 75.3248914 90.0312565"></polyline>
                    <polyline id="Stroke-13" points="82.8474138 90.851786 82.8474138 102.300856 75.3248914 102.300856"></polyline>
                </g>
                <g id="picto-postit" transform="translate(0.000000, 27.000000)">
                    <path d="M60.375,48.6789545 L60.375,48.6818182 L19.136,48.6818182 C18.569625,48.2780455 18.032,47.8141364 17.526,47.2986818 C17.411,47.1812727 17.31325,47.0352273 17.201125,46.9149545 C16.81875,46.4997273 16.436375,46.0787727 16.0885,45.6005455 C15.918875,45.3685909 15.77225,45.0994091 15.61125,44.856 C15.341,44.4493636 15.062125,44.0541818 14.812,43.6103182 C14.628,43.2867273 14.469875,42.9230455 14.297375,42.5794091 C14.09325,42.1727727 13.877625,41.7861818 13.687875,41.3566364 C13.5125,40.9585909 13.360125,40.5233182 13.193375,40.1052273 C13.0295,39.69 12.854125,39.2948182 12.70175,38.8595455 C12.555125,38.4385909 12.42575,37.9832727 12.28775,37.5451364 C12.141125,37.0812273 11.985875,36.6316364 11.85075,36.1476818 C11.721375,35.6866364 11.612125,35.1969545 11.491375,34.7215909 C11.36775,34.2319091 11.2355,33.7565455 11.123375,33.2525455 C11.01125,32.7456818 10.9135,32.2130455 10.81,31.6918636 C10.709375,31.1907273 10.603,30.7039091 10.511,30.1913182 C10.404625,29.5928182 10.3155,28.9742727 10.220625,28.3614545 C10.14875,27.9061364 10.071125,27.4622727 10.005,26.9983636 C9.91875,26.3826818 9.846875,25.7469545 9.772125,25.1169545 C9.714625,24.6387273 9.6485,24.1662273 9.593875,23.6822727 C9.524875,23.0436818 9.47025,22.3907727 9.409875,21.7435909 C9.363875,21.2596364 9.312125,20.7785455 9.271875,20.2917273 C9.2115,19.5729545 9.1655,18.8427273 9.116625,18.1182273 C9.087875,17.6915455 9.0505,17.2677273 9.024625,16.8381818 C8.97575,16.0478182 8.94125,15.2545909 8.903875,14.4613636 C8.886625,14.0890909 8.863625,13.7225455 8.846375,13.3502727 C8.809,12.4625455 8.783125,11.5748182 8.754375,10.6870909 C8.74575,10.4093182 8.73425,10.1315455 8.725625,9.85377273 C8.66525,7.5285 8.625,2.86077273 8.625,2.86077273 L57.49425,2.86077273 C57.4885,4.65913636 57.468375,6.49472727 57.44825,8.35036364 C57.278625,24.2836364 57.106125,40.7008636 63.8365,48.6789545 L60.375,48.6789545 Z M68.356,48.9195 C59.952375,43.3726364 60.15075,24.7847727 60.326125,8.38186364 C60.349125,6.02222727 60.375,3.69409091 60.375,1.43181818 C60.375,0.641454545 59.731,0 58.9375,0 L7.1875,0 C7.069625,0 6.969,0.0400909091 6.85975,0.0658636364 C6.828125,0.0744545455 6.793625,0.0744545455 6.759125,0.0859090909 C6.67575,0.111681818 6.598125,0.143181818 6.5205,0.183272727 C6.437125,0.226227273 6.36525,0.277772727 6.293375,0.337909091 C6.21575,0.400909091 6.149625,0.466772727 6.08925,0.541227273 C6.0605,0.578454545 6.02025,0.5985 5.9915,0.638590909 L0.2415,9.2295 C0.083375,9.46431818 0,9.73922727 0,10.0227273 L0,60.9754091 L5.75,55.2481364 L5.75,2.86363636 L5.75575,2.86363636 C5.796,13.6538182 6.3135,25.4176364 8.625,34.8991364 L8.625,54.4090909 L60.375,54.4090909 L60.375,51.5454545 L67.5625,51.5454545 C68.197875,51.5454545 68.755625,51.1302273 68.939625,50.526 C69.12075,49.9217727 68.885,49.2688636 68.356,48.9195 L68.356,48.9195 Z M2.032625,63 L50.3125,63 C50.597125,63 50.873125,62.9169545 51.108875,62.7594545 L59.371625,57.2727273 L7.782625,57.2727273 L2.032625,63 Z" id="Fill-1" fill="#FFCC08"></path>
                    <path d="M8,2 L56.86925,2 C56.86925,2 54.692875,41.2089091 63.2115,47.8181818 C52.323875,47.9842727 18.511,47.8210455 18.511,47.8210455 C18.511,47.8210455 8,44.5507727 8,2" id="Fill-3" fill="#FFFFFF"></path>
                </g>
            </g>
            <g id="bloc-rheno" transform="translate(20.000000, 97.000000)">
                <g id="picto-bloc-rheno" transform="translate(38.779733, 35.940675) rotate(-10.000000) translate(-38.779733, -35.940675) translate(4.779733, 5.440675)">
                    <use id="Rectangle" stroke="#FFCC08" mask="url(#mask-2)" stroke-width="6" xlink:href="#path-1"></use>
                    <polygon id="Rectangle-6" fill="#FFCC08" points="7.35283162 0.479055467 61.4659198 0.479055467 61.4659198 11.5714924 47.3901676 11.5714924 7.35283162 11.5714924"></polygon>
                    <ellipse id="Oval-2" stroke="#FFCC08" fill="#FFFFFF" cx="13.7792188" cy="5.92402679" rx="2.55534027" ry="2.34688045"></ellipse>
                    <ellipse id="Oval-2" stroke="#FFCC08" fill="#FFFFFF" cx="55.5097635" cy="5.86782499" rx="2.55534027" ry="2.34688045"></ellipse>
                    <path d="M34,10.8555284 L34,59.3244965" id="Line" stroke="#FFCC08" stroke-width="2" stroke-linecap="square"></path>
                    <path d="M65.7976145,25 L33.8021775,25" id="Line" stroke="#FFCC08" stroke-width="2" stroke-linecap="square"></path>
                    <path d="M65.7976145,42 L33.8021775,42" id="Line" stroke="#FFCC08" stroke-width="2" stroke-linecap="square"></path>
                </g>
                <polygon id="Path-4" stroke="#FFCC08" points="1.34765625 19 0 31.1339516 8.49609375 76.3535156 11.90625 70.2855797"></polygon>
                <polygon id="Path-5" stroke="#FFCC08" points="9 77.4179688 74.5487449 65.2519531 77 60.3847656 12.4 70.7929688"></polygon>
            </g>
        </g>
    </g>
</svg>