
<svg width="67px" height="26px" viewBox="4 7 67 26" version="1.1" xmlns="http://www.w3.org/2000/svg" xmlns:xlink="http://www.w3.org/1999/xlink">
    <!-- Generator: Sketch 42 (36781) - http://www.bohemiancoding.com/sketch -->
    <desc>Created with Sketch.</desc>
    <defs>
        <polygon id="path-1" points="6.40624286 0.15581295 9.42857141e-05 0.15581295 9.42857141e-05 9.04944029 6.40624286 9.04944029 6.40624286 0.15581295"></polygon>
    </defs>
    <g id="Page-1" stroke="none" stroke-width="1" fill="none" fill-rule="evenodd" transform="translate(5.000000, 7.000000)">
        <path d="M29.827776,8.96096547 C29.7383931,8.98771367 29.5975303,9.01427482 29.4055646,9.04083597 C29.2134103,9.06739712 29.014656,9.0806777 28.8093017,9.0806777 C28.6126217,9.0806777 28.4361189,9.06739712 28.2797931,9.04083597 C28.1234674,9.01427482 27.991656,8.96096547 27.8845474,8.88128201 C27.7772503,8.80141151 27.6944674,8.69310935 27.636576,8.55562734 C27.5783074,8.41833237 27.549456,8.23876403 27.549456,8.01710935 L27.549456,4.02900863 C27.549456,3.82512374 27.5873589,3.6500446 27.6633531,3.50395827 C27.7391589,3.35768489 27.8487189,3.22693669 27.991656,3.11171367 C28.1345931,2.9966777 28.311096,2.8923036 28.520976,2.79933957 C28.730856,2.70637554 28.956576,2.62444748 29.1979474,2.55336835 C29.4391303,2.48247626 29.689176,2.42710935 29.9484617,2.38708058 C30.2073703,2.3474259 30.4664674,2.32741151 30.7257531,2.32741151 C31.1545646,2.32741151 31.4939931,2.40952662 31.7442274,2.57338273 C31.9942731,2.7374259 32.1194846,3.00546906 32.1194846,3.37751223 C32.1194846,3.50171367 32.1015703,3.62348345 32.0659303,3.74319568 C32.0301017,3.86290791 31.9854103,3.97139712 31.931856,4.06885036 C31.7442274,4.06885036 31.5520731,4.07782878 31.3555817,4.09541151 C31.1589017,4.11318129 30.966936,4.1399295 30.7793074,4.17528201 C30.5916789,4.21063453 30.415176,4.24841871 30.2499874,4.28826043 C30.0844217,4.32810216 29.9437474,4.3746777 29.827776,4.4278 L29.827776,8.96096547 Z" id="Fill-1" fill="#FFFFFF"></path>
        <g id="Group-5" transform="translate(33.754286, 0.031237)">
            <mask id="mask-2" fill="white">
                <use xlink:href="#path-1"></use>
            </mask>
            <g id="Clip-4"></g>
            <path d="M6.40624286,8.92972806 C6.31686,8.95647626 6.17618571,8.98303741 5.98403143,9.00959856 C5.79187714,9.03615971 5.59312286,9.04944029 5.38776857,9.04944029 C5.19108857,9.04944029 5.01458571,9.03615971 4.85844857,9.00959856 C4.70193429,8.98303741 4.57031143,8.92972806 4.46301429,8.8500446 C4.35571714,8.7701741 4.27293429,8.66187194 4.21504286,8.52438993 C4.15677429,8.38709496 4.12792286,8.20752662 4.12792286,7.98587194 L4.12792286,5.03459137 C4.12792286,4.67133957 4.03627714,4.41657698 3.85317429,4.2703036 C3.67007143,4.12403022 3.44435143,4.05089353 3.17639143,4.05089353 C2.99762571,4.05089353 2.82791143,4.07315252 2.66706,4.1172964 C2.50620857,4.16181439 2.37666,4.21493669 2.27841429,4.27685036 L2.27841429,8.92972806 C2.18903143,8.95647626 2.04835714,8.98303741 1.85639143,9.00959856 C1.66404857,9.03615971 1.46529429,9.04944029 1.25994,9.04944029 C1.06326,9.04944029 0.886757143,9.03615971 0.73062,9.00959856 C0.574105714,8.98303741 0.442482857,8.92972806 0.335185714,8.8500446 C0.227888571,8.7701741 0.145294286,8.66187194 0.0872142857,8.52438993 C0.0291342857,8.38709496 9.42857141e-05,8.20752662 9.42857141e-05,7.98587194 L9.42857141e-05,0.275469065 C0.09834,0.257886331 0.24354,0.233569784 0.435694286,0.202332374 C0.62766,0.171469065 0.822077143,0.155756835 1.01875714,0.155756835 C1.21506,0.155756835 1.39156286,0.16922446 1.54807714,0.195785612 C1.70421429,0.222346763 1.83621429,0.275469065 1.94332286,0.355152518 C2.05062,0.435023022 2.13321429,0.543699281 2.19129429,0.680994245 C2.24937429,0.818476259 2.27841429,0.997857554 2.27841429,1.21932518 L2.27841429,2.52213094 C2.39457429,2.4778 2.57107714,2.4269223 2.80773429,2.36931079 C3.04439143,2.31169928 3.30594,2.28289353 3.59181429,2.28289353 C4.47640286,2.28289353 5.16657429,2.50211655 5.66251714,2.94093669 C6.15846,3.37956978 6.40624286,4.03331079 6.40624286,4.90178561 L6.40624286,8.92972806 Z" id="Fill-3" fill="#FFFFFF" mask="url(#mask-2)"></path>
        </g>
        <path d="M45.3069257,3.96249353 C45.09252,3.96249353 44.9069657,3.99803309 44.75064,4.06892518 C44.5943143,4.14000432 44.46684,4.23072374 44.3687829,4.34145755 C44.2703486,4.45237842 44.1966171,4.57639281 44.1475886,4.71368777 C44.0983714,4.85116978 44.0693314,4.99070935 44.0604686,5.13230647 L46.3521771,4.76026331 C46.3254,4.58293957 46.2269657,4.40580288 46.05744,4.22829209 C45.8875371,4.0511554 45.6373029,3.96249353 45.3069257,3.96249353 M45.6821829,9.18699712 C45.1547486,9.18699712 44.6657829,9.11386043 44.21472,8.96758705 C43.76328,8.82150072 43.3702971,8.60209065 43.0352057,8.30954388 C42.7001143,8.01718417 42.4364914,7.64944317 42.2445257,7.20613381 C42.0523714,6.76319856 41.9563886,6.24469496 41.9563886,5.65081007 C41.9563886,5.0659036 42.0523714,4.56292518 42.2445257,4.14187482 C42.4364914,3.72119856 42.6889886,3.3755295 43.00164,3.10505468 C43.31448,2.83476691 43.6718229,2.63537122 44.0738571,2.50686763 C44.4758914,2.37855108 44.8867886,2.31401871 45.3069257,2.31401871 C45.7804286,2.31401871 46.2115029,2.38509784 46.6001486,2.52688201 C46.9887943,2.66866619 47.3238857,2.86357266 47.6052343,3.11178849 C47.8867714,3.36000432 48.1055143,3.65685324 48.2620286,4.00233525 C48.4183543,4.34800432 48.4966114,4.72491079 48.4966114,5.13230647 C48.4966114,5.43383165 48.4115657,5.66409065 48.2418514,5.8236446 C48.0721371,5.98319856 47.8352914,6.08514101 47.5315029,6.12947194 L44.22132,6.62122734 C44.3195657,6.9137741 44.5205829,7.13318417 44.8243714,7.2792705 C45.1279714,7.42554388 45.4764514,7.49868058 45.8698114,7.49868058 C46.2360171,7.49868058 46.5822343,7.45210504 46.9084629,7.35914101 C47.2345029,7.26598993 47.5002,7.15768777 47.7059314,7.03329928 C47.84868,7.1221482 47.9693657,7.24616259 48.0678,7.40571655 C48.1658571,7.56508345 48.2150743,7.73361583 48.2150743,7.91075252 C48.2150743,8.30954388 48.0274457,8.60676691 47.6521886,8.80148633 C47.3661257,8.95224892 47.0444229,9.05400432 46.6872686,9.10731367 C46.3297371,9.16043597 45.9946457,9.18699712 45.6821829,9.18699712" id="Fill-6" fill="#FFFFFF"></path>
        <path d="M54.3933343,4.8798446 C54.3933343,4.60525468 54.3150771,4.40361439 54.1587514,4.27492374 C54.0024257,4.14660719 53.7902829,4.08207482 53.5221343,4.08207482 C53.3433686,4.08207482 53.1670543,4.10433381 52.9928143,4.14866475 C52.8185743,4.19318273 52.6688486,4.25958561 52.5438257,4.34806043 L52.5438257,8.96090935 C52.4544429,8.98765755 52.3137686,9.01421871 52.1218029,9.04077986 C51.92946,9.06734101 51.7307057,9.08062158 51.5253514,9.08062158 C51.3286714,9.08062158 51.1521686,9.06734101 50.9958429,9.04077986 C50.8395171,9.01421871 50.7078943,8.96090935 50.6005971,8.8812259 C50.4933,8.80154245 50.4107057,8.69305324 50.3526257,8.55557122 C50.2945457,8.41827626 50.2655057,8.23889496 50.2655057,8.01705324 L50.2655057,4.02895252 C50.2655057,3.78971511 50.3167971,3.59480863 50.4197571,3.44404604 C50.52234,3.2934705 50.6630143,3.15617554 50.8419686,3.0319741 C51.14538,2.81929784 51.5274257,2.64646331 51.9877286,2.5134705 C52.4478429,2.38066475 52.9594371,2.31407482 53.5221343,2.31407482 C54.5317457,2.31407482 55.3090371,2.53348489 55.8541971,2.97211799 C56.39898,3.41075108 56.6716543,4.0203482 56.6716543,4.7999741 L56.6716543,8.96090935 C56.5822714,8.98765755 56.4415971,9.01421871 56.2494429,9.04077986 C56.0572886,9.06734101 55.8585343,9.08062158 55.65318,9.08062158 C55.4565,9.08062158 55.2799971,9.06734101 55.12386,9.04077986 C54.9673457,9.01421871 54.8355343,8.96090935 54.7284257,8.8812259 C54.6211286,8.80154245 54.5385343,8.69305324 54.4804543,8.55557122 C54.4221857,8.41827626 54.3933343,8.23889496 54.3933343,8.01705324 L54.3933343,4.8798446 Z" id="Fill-8" fill="#FFFFFF"></path>
        <path d="M60.799332,5.74394245 C60.799332,6.28451799 60.9043663,6.69902158 61.1142463,6.98689209 C61.3241263,7.27494964 61.6167891,7.41897842 61.9922349,7.41897842 C62.3673034,7.41897842 62.6556291,7.27270504 62.8566463,6.98015827 C63.0576634,6.68779856 63.158172,6.27572662 63.158172,5.74394245 C63.158172,5.21215827 63.055212,4.80233094 62.8498577,4.51427338 C62.6443149,4.22640288 62.3541034,4.08218705 61.9786577,4.08218705 C61.6035891,4.08218705 61.3130006,4.22640288 61.1076463,4.51427338 C60.9019149,4.80233094 60.799332,5.21215827 60.799332,5.74394245 M65.4900463,5.74394245 C65.4900463,6.2934964 65.4050006,6.78319424 65.2354749,7.21284892 C65.065572,7.6428777 64.826652,8.00388489 64.5185263,8.29643165 C64.210212,8.58879137 63.8415549,8.81044604 63.4127434,8.96102158 C62.983932,9.11159712 62.5057149,9.18697842 61.9786577,9.18697842 C61.451412,9.18697842 60.973572,9.10729496 60.5447606,8.94774101 C60.1157606,8.78818705 59.747292,8.56017266 59.4391663,8.26313669 C59.130852,7.96628777 58.8917434,7.60509353 58.7220291,7.17955396 C58.5521263,6.75420144 58.4674577,6.27572662 58.4674577,5.74394245 C58.4674577,5.22113669 58.5521263,4.74677698 58.7220291,4.32142446 C58.8917434,3.89607194 59.130852,3.53506475 59.4391663,3.23802878 C59.747292,2.94117986 60.1157606,2.71279137 60.5447606,2.55342446 C60.973572,2.3938705 61.451412,2.31418705 61.9786577,2.31418705 C62.5057149,2.31418705 62.983932,2.39611511 63.4127434,2.55997122 C63.8415549,2.72401439 64.210212,2.95446043 64.5185263,3.25130935 C64.826652,3.54834532 65.065572,3.90935252 65.2354749,4.33470504 C65.4050006,4.7602446 65.4900463,5.22992806 65.4900463,5.74394245" id="Fill-10" fill="#FFFFFF"></path>
        <path d="M27.8845097,16.8509741 C27.9870926,16.8908158 28.0932583,16.9207439 28.2028183,16.9405712 C28.3121897,16.9605856 28.4583326,16.9704993 28.641624,16.9704993 C28.815864,16.9704993 28.9810526,16.9430029 29.1375669,16.8874489 C29.2938926,16.832082 29.4300411,16.7445424 29.5463897,16.6250173 C29.6623611,16.505305 29.7540069,16.3536072 29.8211383,16.1695496 C29.8880811,15.9858662 29.9216469,15.7653338 29.9216469,15.5083266 C29.9216469,15.1005568 29.8445211,14.781636 29.6904583,14.5511899 C29.5362069,14.3207439 29.287104,14.2053338 28.9431497,14.2053338 C28.8360411,14.2053338 28.7198811,14.2232906 28.5948583,14.2586432 C28.4696469,14.2941827 28.3546183,14.3549741 28.2497726,14.4413914 C28.1445497,14.5278086 28.0574297,14.6407871 27.9884126,14.7805137 C27.9190183,14.9200532 27.8845097,15.0960676 27.8845097,15.3087439 L27.8845097,16.8509741 Z M27.4421211,13.8931468 C27.4688983,13.8886576 27.502464,13.8854777 27.5428183,13.883046 C27.582984,13.8809885 27.6165497,13.8796791 27.6433269,13.8796791 C27.670104,13.8796791 27.7036697,13.8809885 27.7436469,13.883046 C27.7840011,13.8854777 27.8175669,13.8886576 27.844344,13.8931468 L27.8845097,14.358341 C27.9782297,14.2165568 28.1132469,14.0902978 28.2899383,13.979377 C28.4662526,13.8688302 28.6953669,13.8132763 28.9767154,13.8132763 C29.1865954,13.8132763 29.3787497,13.8454489 29.5529897,13.9096072 C29.7272297,13.9739525 29.875824,14.0747727 29.998584,14.2120676 C30.1215326,14.3495496 30.2175154,14.5223842 30.2867211,14.7305712 C30.3559269,14.9389453 30.390624,15.1892187 30.390624,15.4817655 C30.390624,15.7741252 30.3504583,16.0365568 30.2699383,16.2694345 C30.1896069,16.5019381 30.0723154,16.6990892 29.9182526,16.8608878 C29.7640011,17.0226863 29.5741097,17.1467007 29.3485783,17.233118 C29.1230469,17.3195353 28.8650811,17.3627439 28.5746811,17.3627439 C28.467384,17.3627439 28.351224,17.3537655 28.2262011,17.3361827 C28.1009897,17.3184129 27.9870926,17.2918518 27.8845097,17.2563122 L27.8845097,18.8516647 C27.8577326,18.8559669 27.8196411,18.8593338 27.7706126,18.8615784 C27.7213954,18.863823 27.6855669,18.8649453 27.6633154,18.8649453 C27.6365383,18.8649453 27.5997669,18.863823 27.5528126,18.8615784 C27.5058583,18.8593338 27.4688983,18.8559669 27.4421211,18.8516647 L27.4421211,13.8931468 Z" id="Fill-12" fill="#FFFFFF"></path>
        <path d="M32.3270829,12.3974734 C32.35386,12.3931712 32.39082,12.3898043 32.4375857,12.3875597 C32.48454,12.3853151 32.5215,12.3841928 32.5482771,12.3841928 C32.5705286,12.3841928 32.6061686,12.3853151 32.6553857,12.3875597 C32.7046029,12.3898043 32.7426943,12.3931712 32.7694714,12.3974734 L32.7694714,16.4985525 C32.7694714,16.6139626 32.78286,16.7035597 32.8096371,16.767905 C32.8364143,16.8320633 32.8697914,16.8786388 32.9101457,16.9074446 C32.9503114,16.9362504 32.9950029,16.9540201 33.0440314,16.9605669 C33.0932486,16.9673007 33.13794,16.9704806 33.1781057,16.9704806 C33.2271343,16.9704806 33.2786143,16.9673007 33.3323571,16.9605669 C33.3859114,16.9540201 33.4304143,16.946164 33.4662429,16.9373727 C33.4886829,16.990495 33.5041457,17.0481065 33.5131971,17.1102072 C33.52206,17.1723079 33.5288486,17.2297324 33.5331857,17.2830417 C33.47058,17.3051137 33.4002429,17.3206388 33.3221743,17.3294302 C33.2439171,17.3384086 33.1715057,17.3427108 33.1043743,17.3427108 C33.0106543,17.3427108 32.9167457,17.3327971 32.8230257,17.3127827 C32.7291171,17.2929554 32.6453914,17.2553583 32.57166,17.1998043 C32.4979286,17.1444374 32.4387171,17.0692432 32.3940257,16.9738475 C32.3495229,16.8786388 32.3270829,16.7535022 32.3270829,16.5982504 L32.3270829,12.3974734 Z" id="Fill-14" fill="#FFFFFF"></path>
        <path d="M37.0177971,15.6345108 C36.9418029,15.6257194 36.8469514,15.6158058 36.7330543,15.6045827 C36.6189686,15.5935468 36.5107286,15.5879353 36.4079571,15.5879353 C36.0728657,15.5879353 35.8137686,15.650036 35.6306657,15.7742374 C35.4473743,15.8982518 35.3559171,16.0755755 35.3559171,16.3058345 C35.3559171,16.4521079 35.3836371,16.5695755 35.4396429,16.6582374 C35.49546,16.7468993 35.56806,16.8144245 35.6574429,16.861 C35.7468257,16.9073885 35.8450714,16.9384388 35.9523686,16.953964 C36.0594771,16.9694892 36.1667743,16.9771583 36.2738829,16.9771583 C36.4124829,16.9771583 36.5420314,16.9706115 36.6625286,16.9573309 C36.7832143,16.9438633 36.9014486,16.9262806 37.0177971,16.9042086 L37.0177971,15.6345108 Z M37.0177971,15.0428705 C37.0177971,14.7505108 36.9484029,14.5367122 36.8099914,14.4014748 C36.67158,14.2664245 36.4660371,14.1988993 36.1935514,14.1988993 C36.0147857,14.1988993 35.8516714,14.2110576 35.7043971,14.2353741 C35.5569343,14.2596906 35.4251229,14.2898058 35.3089629,14.3251583 C35.2865229,14.2853165 35.2676657,14.227705 35.2520143,14.1523237 C35.2363629,14.0769424 35.2286314,14.0060504 35.2286314,13.9394604 C35.3446029,13.904295 35.48754,13.8741799 35.6574429,13.8498633 C35.8271571,13.8255468 36.0013971,13.8133885 36.1801629,13.8133885 C36.6133114,13.8133885 36.9350143,13.9074748 37.1450829,14.0958345 C37.3549629,14.2841942 37.4599971,14.5799209 37.4599971,14.9832014 L37.4599971,17.2231295 C37.3036714,17.2541799 37.11378,17.2852302 36.8905114,17.3162806 C36.6670543,17.3471439 36.4549114,17.3626691 36.2538943,17.3626691 C35.8384714,17.3626691 35.5111114,17.280741 35.2721914,17.1168849 C35.0330829,16.9528417 34.9137171,16.6870432 34.9137171,16.3191151 C34.9137171,16.1419784 34.9482257,15.9835468 35.01762,15.8440072 C35.0866371,15.7044676 35.1828086,15.587 35.3055686,15.4916043 C35.4285171,15.3963957 35.57598,15.3243813 35.7479571,15.2755612 C35.9199343,15.2269281 36.1086943,15.2024245 36.3142371,15.2024245 C36.4750886,15.2024245 36.6133114,15.208036 36.72966,15.2190719 C36.8456314,15.230295 36.9418029,15.2402086 37.0177971,15.249 L37.0177971,15.0428705 Z" id="Fill-16" fill="#FFFFFF"></path>
        <path d="M39.4165577,16.8177353 C39.5148034,16.857577 39.6420891,16.8919942 39.7986034,16.9208 C39.9547406,16.9496058 40.1044663,16.9640086 40.247592,16.9640086 C40.515552,16.9640086 40.7276949,16.9052748 40.8842091,16.7878072 C41.0403463,16.6703396 41.1186034,16.5251885 41.1186034,16.352354 C41.1186034,16.2328288 41.0952206,16.1342532 41.0482663,16.0566273 C41.001312,15.9791885 40.9387063,15.9137209 40.8606377,15.8605986 C40.7823806,15.8074763 40.6941291,15.7642676 40.5958834,15.7309727 C40.4976377,15.6976777 40.3971291,15.6634475 40.2943577,15.6279079 C40.1827234,15.5925554 40.0722206,15.5525266 39.9626606,15.5083827 C39.8531006,15.4640518 39.7559863,15.4075626 39.6713177,15.3387281 C39.586272,15.2700806 39.5181977,15.1870302 39.4669063,15.089577 C39.4154263,14.9921237 39.3897806,14.8701669 39.3897806,14.7238935 C39.3897806,14.4536058 39.4891577,14.2343827 39.687912,14.0658504 C39.8866663,13.897505 40.1940377,13.8133324 40.6094606,13.8133324 C40.7837006,13.8133324 40.9522834,13.8288576 41.1152091,13.8599079 C41.2783234,13.8909583 41.4044777,13.9240662 41.4938606,13.9596058 C41.4714206,14.0881094 41.4403063,14.2143683 41.4001406,14.3383827 C41.306232,14.3075194 41.1866777,14.2764691 41.0416663,14.2454187 C40.8964663,14.2143683 40.7456091,14.1988432 40.5892834,14.1988432 C40.3166091,14.1988432 40.123512,14.246541 40.0096149,14.3417496 C39.8957177,14.4369583 39.8387691,14.562095 39.8387691,14.7173468 C39.8387691,14.8015194 39.8576263,14.8733468 39.8957177,14.9332029 C39.9336206,14.993059 39.9851006,15.0441237 40.0497806,15.0862101 C40.1146491,15.1282964 40.188192,15.1649583 40.2709749,15.1958216 C40.3535691,15.2268719 40.4418206,15.2556777 40.5357291,15.2822388 C40.6562263,15.3220806 40.7780434,15.3652892 40.900992,15.4118647 C41.0235634,15.4584403 41.1353863,15.5194187 41.2358949,15.5946129 C41.3364034,15.6699942 41.4189977,15.7653899 41.4838663,15.8804259 C41.5485463,15.9956489 41.5809806,16.1396777 41.5809806,16.3125122 C41.5809806,16.4720662 41.5485463,16.6172173 41.4838663,16.7477784 C41.4189977,16.8787137 41.328672,16.9894475 41.212512,17.0801669 C41.0961634,17.1710734 40.957752,17.2408432 40.7969006,17.2896633 C40.6362377,17.3382964 40.4597349,17.3628 40.2675806,17.3628 C40.0531749,17.3628 39.862152,17.3495194 39.6947006,17.3229583 C39.5270606,17.2963971 39.3920434,17.2608576 39.289272,17.2165266 C39.3160491,17.0835338 39.3584777,16.950541 39.4165577,16.8177353" id="Fill-18" fill="#FFFFFF"></path>
        <path d="M43.6315063,14.265246 L43.048632,14.265246 C43.0441063,14.2431741 43.040712,14.2143683 43.0384491,14.1788288 C43.0361863,14.1434763 43.0350549,14.1081237 43.0350549,14.0725842 C43.0350549,14.0370446 43.0361863,14.0039367 43.0384491,13.9728863 C43.040712,13.941836 43.0441063,13.9152748 43.048632,13.8930158 L43.6315063,13.8930158 L43.6315063,13.2549871 L44.0469291,12.8494619 L44.0737063,12.8494619 L44.0737063,13.8930158 L44.9986491,13.8930158 C45.0027977,13.9152748 45.0063806,13.941836 45.0086434,13.9728863 C45.0107177,14.0039367 45.0118491,14.0370446 45.0118491,14.0725842 C45.0118491,14.1081237 45.0107177,14.1434763 45.0086434,14.1788288 C45.0063806,14.2143683 45.0027977,14.2431741 44.9986491,14.265246 L44.0737063,14.265246 L44.0737063,16.4720662 C44.0737063,16.5829871 44.0882263,16.6703396 44.1174549,16.7346849 C44.1463063,16.7988432 44.1843977,16.8487856 44.231352,16.8841381 C44.2781177,16.9196777 44.331672,16.9428719 44.3920149,16.954095 C44.4523577,16.9651309 44.513832,16.9705554 44.5764377,16.9705554 C44.7325749,16.9705554 44.868912,16.950541 44.985072,16.9108863 C45.0163749,17.0261094 45.0386263,17.1499367 45.0522034,17.2829295 C44.891352,17.3317496 44.7037234,17.3560662 44.4893177,17.3560662 C44.2345577,17.3560662 44.0278834,17.288541 43.8694834,17.1533036 C43.7107063,17.0182532 43.6315063,16.7977209 43.6315063,16.4920806 L43.6315063,14.265246 Z" id="Fill-20" fill="#FFFFFF"></path>
        <path d="M46.6736914,13.0621942 C46.6691657,13.0223525 46.6657714,12.9735324 46.6636971,12.9159209 C46.6614343,12.8584964 46.6603029,12.8094892 46.6603029,12.7698345 C46.6603029,12.734295 46.6614343,12.689964 46.6636971,12.6368417 C46.6657714,12.5835324 46.6691657,12.5393885 46.6736914,12.5038489 C46.7138571,12.4995468 46.7630743,12.4961799 46.8211543,12.4937482 C46.8790457,12.4916906 46.9282629,12.4905683 46.9684286,12.4905683 C47.0042571,12.4905683 47.0489486,12.4916906 47.1025029,12.4937482 C47.1562457,12.4961799 47.2007486,12.4995468 47.2365771,12.5038489 C47.2409143,12.5393885 47.2443086,12.5835324 47.2465714,12.6368417 C47.2488343,12.689964 47.2499657,12.734295 47.2499657,12.7698345 C47.2499657,12.8094892 47.2488343,12.8584964 47.2465714,12.9159209 C47.2443086,12.9735324 47.2409143,13.0223525 47.2365771,13.0621942 C47.2007486,13.0666835 47.1562457,13.0700504 47.1025029,13.0721079 C47.0489486,13.0743525 47.0042571,13.0754748 46.9684286,13.0754748 C46.9282629,13.0754748 46.8790457,13.0743525 46.8211543,13.0721079 C46.7630743,13.0700504 46.7138571,13.0666835 46.6736914,13.0621942 L46.6736914,13.0621942 Z M46.8946971,14.2653022 L46.4658857,14.2653022 C46.4615486,14.2430432 46.4579657,14.216482 46.4558914,14.1854317 C46.4536286,14.1545683 46.4524971,14.1212734 46.4524971,14.0857338 C46.4524971,14.0503813 46.4536286,14.0150288 46.4558914,13.9794892 C46.4579657,13.9439496 46.4615486,13.9153309 46.4658857,13.8930719 L47.3370857,13.8930719 L47.3370857,17.2829856 C47.3103086,17.2872878 47.2733486,17.2906547 47.2265829,17.2928993 C47.1796286,17.2951439 47.1426686,17.2962662 47.1158914,17.2962662 C47.09364,17.2962662 47.0578114,17.2951439 47.0087829,17.2928993 C46.9595657,17.2906547 46.9216629,17.2872878 46.8946971,17.2829856 L46.8946971,14.2653022 Z" id="Fill-22" fill="#FFFFFF"></path>
        <path d="M51.7463383,14.265246 C51.612264,14.2386849 51.5017611,14.2211022 51.4146411,14.2121237 C51.3275211,14.2031453 51.2213554,14.1988432 51.0963326,14.1988432 C50.8685383,14.1988432 50.668464,14.2364403 50.4966754,14.3118216 C50.3245097,14.3872029 50.182704,14.4936345 50.0710697,14.6309295 C49.9592469,14.7682245 49.8757097,14.930023 49.8198926,15.1161381 C49.7638869,15.3022532 49.7359783,15.5083827 49.7359783,15.7343396 C49.7359783,15.951505 49.7661497,16.1376201 49.8264926,16.2924978 C49.8868354,16.4477496 49.972824,16.5762532 50.0844583,16.6780086 C50.1960926,16.7801381 50.3267726,16.8553324 50.4764983,16.9041525 C50.626224,16.9529727 50.792544,16.9772892 50.9758354,16.9772892 C51.1231097,16.9772892 51.2660469,16.9662532 51.4046469,16.9439942 C51.5430583,16.9219223 51.6569554,16.8953612 51.7463383,16.8643108 L51.7463383,14.265246 Z M51.7463383,17.2631022 C51.6392297,17.2939655 51.5228811,17.3184691 51.3978583,17.3360518 C51.2728354,17.3538216 51.1387611,17.3628 50.995824,17.3628 C50.7589783,17.3628 50.5357097,17.3360518 50.3256411,17.2829295 C50.1157611,17.2298072 49.9324697,17.1377784 49.7763326,17.0072173 C49.6198183,16.8764691 49.4970583,16.7036345 49.4076754,16.4887137 C49.3182926,16.2737928 49.2736011,16.0068719 49.2736011,15.687764 C49.2736011,15.3952173 49.3171611,15.1339079 49.4044697,14.9034619 C49.4914011,14.6730158 49.6130297,14.4769871 49.769544,14.3151885 C49.9258697,14.1533899 50.1146297,14.0293755 50.335824,13.9429583 C50.5568297,13.856541 50.8014069,13.8133324 51.0695554,13.8133324 C51.1945783,13.8133324 51.307344,13.8166993 51.4080411,13.823246 C51.5083611,13.8297928 51.6022697,13.8398935 51.6893897,13.8531741 C51.7765097,13.8664547 51.8602354,13.8819799 51.9407554,13.8997496 C52.0210869,13.9175194 52.1036811,13.9395914 52.1885383,13.9661525 L52.1885383,18.8517209 C52.1617611,18.856023 52.1236697,18.8593899 52.0746411,18.8616345 C52.025424,18.8636921 51.989784,18.8650014 51.9675326,18.8650014 C51.9407554,18.8650014 51.9037954,18.8636921 51.8568411,18.8616345 C51.8098869,18.8593899 51.7731154,18.856023 51.7463383,18.8517209 L51.7463383,17.2631022 Z" id="Fill-24" fill="#FFFFFF"></path>
        <path d="M54.2792486,13.8930532 C54.3060257,13.8887511 54.3439286,13.8853842 54.3931457,13.8831396 C54.4423629,13.880895 54.4780029,13.8797727 54.5004429,13.8797727 C54.52722,13.8797727 54.5639914,13.880895 54.6109457,13.8831396 C54.6579,13.8853842 54.6946714,13.8887511 54.7216371,13.8930532 L54.7216371,15.8007799 C54.7216371,16.0400173 54.7461514,16.236046 54.79518,16.3890532 C54.8443971,16.5418734 54.9168086,16.6613986 55.01298,16.7478158 C55.1089629,16.8344201 55.2262543,16.8940892 55.3648543,16.9273842 C55.5032657,16.9604921 55.6595914,16.9771396 55.8338314,16.9771396 C55.9812943,16.9771396 56.1131057,16.9694705 56.2292657,16.9539453 C56.3454257,16.9384201 56.4480086,16.9172835 56.53758,16.8907223 L56.53758,13.8930532 C56.5643571,13.8887511 56.60226,13.8853842 56.6514771,13.8831396 C56.7005057,13.880895 56.7361457,13.8797727 56.7585857,13.8797727 C56.7855514,13.8797727 56.8223229,13.880895 56.8690886,13.8831396 C56.9160429,13.8853842 56.9530029,13.8887511 56.97978,13.8930532 L56.97978,17.1965496 C56.8144029,17.2408806 56.6301686,17.2796 56.4268886,17.312895 C56.2236086,17.3460029 56.01486,17.3626504 55.8004543,17.3626504 C55.5903857,17.3626504 55.3927629,17.342823 55.2073971,17.3027942 C55.0218429,17.2631396 54.8609914,17.186636 54.7248429,17.0736576 C54.5885057,16.9604921 54.4802657,16.804305 54.3999343,16.6050964 C54.3194143,16.4055137 54.2792486,16.1462619 54.2792486,15.827341 L54.2792486,13.8930532 Z" id="Fill-26" fill="#FFFFFF"></path>
        <path d="M61.3889949,15.2888978 C61.3889949,15.1516029 61.3710806,15.0163655 61.3354406,14.8835597 C61.299612,14.7505669 61.2437949,14.6342216 61.1678006,14.5345237 C61.0918063,14.4348259 60.9935606,14.3538331 60.8730634,14.2917324 C60.7523777,14.2298187 60.6071777,14.1987683 60.4374634,14.1987683 C60.1246234,14.1987683 59.8811777,14.294164 59.7071263,14.4845813 C59.5328863,14.6751856 59.427852,14.9432288 59.392212,15.2888978 L61.3889949,15.2888978 Z M59.3786349,15.6545813 C59.3786349,16.106495 59.4836691,16.4386964 59.6935491,16.6515597 C59.9036177,16.864236 60.218532,16.9704806 60.6384806,16.9704806 C60.8081949,16.9704806 60.965652,16.9562647 61.110852,16.9272719 C61.256052,16.8984662 61.3978577,16.8597468 61.5364577,16.8111137 C61.5587091,16.8597468 61.5766234,16.9196029 61.590012,16.990495 C61.6034006,17.0613871 61.612452,17.1257324 61.6167891,17.1831568 C61.4872406,17.2409554 61.3354406,17.2850993 61.1612006,17.3161496 C60.9869606,17.3472 60.7970691,17.3627252 60.5915263,17.3627252 C60.2967891,17.3627252 60.0431606,17.3195165 59.8310177,17.2330993 C59.6186863,17.146682 59.4444463,17.0260345 59.3082977,16.8709698 C59.1719606,16.715718 59.071452,16.5309122 59.006772,16.3158043 C58.9419034,16.1008835 58.9096577,15.8650129 58.9096577,15.6080058 C58.9096577,15.3597899 58.9398291,15.1270993 59.000172,14.9101209 C59.0603263,14.6929554 59.151972,14.5023511 59.2749206,14.3383079 C59.3976806,14.1744518 59.5551377,14.0459482 59.747292,13.9527971 C59.9392577,13.8598331 60.1695034,13.8132576 60.4374634,13.8132576 C60.660732,13.8132576 60.8596749,13.8510417 61.0339149,13.926236 C61.2081549,14.0016173 61.3542977,14.1069266 61.4727206,14.241977 C61.5911434,14.3772144 61.6805263,14.5390129 61.7408691,14.7271856 C61.801212,14.9155453 61.8311949,15.1205525 61.8311949,15.3420201 C61.8311949,15.3820489 61.8300634,15.4329266 61.8279891,15.4950273 C61.8255377,15.5571281 61.8221434,15.6102504 61.8178063,15.6545813 L59.3786349,15.6545813 Z" id="Fill-28" fill="#FFFFFF"></path>
        <path d="M63.6471566,16.8177353 C63.7454023,16.857577 63.872688,16.8919942 64.0292023,16.9208 C64.1853394,16.9496058 64.3350651,16.9640086 64.4781909,16.9640086 C64.7461509,16.9640086 64.9582937,16.9052748 65.114808,16.7878072 C65.2709451,16.6703396 65.3492023,16.5251885 65.3492023,16.352354 C65.3492023,16.2328288 65.3258194,16.1342532 65.2788651,16.0566273 C65.2319109,15.9791885 65.1693051,15.9137209 65.0912366,15.8605986 C65.0129794,15.8074763 64.924728,15.7642676 64.8264823,15.7309727 C64.7282366,15.6976777 64.627728,15.6634475 64.5249566,15.6279079 C64.4133223,15.5925554 64.3028194,15.5525266 64.1932594,15.5083827 C64.0836994,15.4640518 63.9865851,15.4075626 63.9019166,15.3387281 C63.8168709,15.2700806 63.7487966,15.1870302 63.6975051,15.089577 C63.6460251,14.9921237 63.6203794,14.8701669 63.6203794,14.7238935 C63.6203794,14.4536058 63.7197566,14.2343827 63.9185109,14.0658504 C64.1172651,13.897505 64.4246366,13.8133324 64.8400594,13.8133324 C65.0142994,13.8133324 65.1828823,13.8288576 65.345808,13.8599079 C65.5089223,13.8909583 65.6350766,13.9240662 65.7244594,13.9596058 C65.7020194,14.0881094 65.6709051,14.2143683 65.6307394,14.3383827 C65.5368309,14.3075194 65.4172766,14.2764691 65.2722651,14.2454187 C65.1270651,14.2143683 64.976208,14.1988432 64.8198823,14.1988432 C64.547208,14.1988432 64.3541109,14.246541 64.2402137,14.3417496 C64.1263166,14.4369583 64.069368,14.562095 64.069368,14.7173468 C64.069368,14.8015194 64.0882251,14.8733468 64.1263166,14.9332029 C64.1642194,14.993059 64.2156994,15.0441237 64.2803794,15.0862101 C64.345248,15.1282964 64.4187909,15.1649583 64.5015737,15.1958216 C64.584168,15.2268719 64.6724194,15.2556777 64.766328,15.2822388 C64.8868251,15.3220806 65.0086423,15.3652892 65.1315909,15.4118647 C65.2541623,15.4584403 65.3659851,15.5194187 65.4664937,15.5946129 C65.5670023,15.6699942 65.6495966,15.7653899 65.7144651,15.8804259 C65.7791451,15.9956489 65.8115794,16.1396777 65.8115794,16.3125122 C65.8115794,16.4720662 65.7791451,16.6172173 65.7144651,16.7477784 C65.6495966,16.8787137 65.5592709,16.9894475 65.4431109,17.0801669 C65.3267623,17.1710734 65.1883509,17.2408432 65.0274994,17.2896633 C64.8668366,17.3382964 64.6903337,17.3628 64.4981794,17.3628 C64.2837737,17.3628 64.0927509,17.3495194 63.9252994,17.3229583 C63.7576594,17.2963971 63.6226423,17.2608576 63.5198709,17.2165266 C63.546648,17.0835338 63.5890766,16.950541 63.6471566,16.8177353" id="Fill-30" fill="#FFFFFF"></path>
        <path d="M38.3762846,23.8301971 C38.4788674,23.8700388 38.5850331,23.8999669 38.6945931,23.9197942 C38.8039646,23.9398086 38.9501074,23.9497223 39.1333989,23.9497223 C39.3076389,23.9497223 39.4728274,23.9222259 39.6293417,23.8666719 C39.7856674,23.811305 39.921816,23.7237655 40.0381646,23.6042403 C40.154136,23.4845281 40.2457817,23.3328302 40.3129131,23.1487727 C40.379856,22.9650892 40.4134217,22.7445568 40.4134217,22.4875496 C40.4134217,22.0797799 40.336296,21.760859 40.1822331,21.5304129 C40.0279817,21.2999669 39.7788789,21.1845568 39.4349246,21.1845568 C39.327816,21.1845568 39.211656,21.2025137 39.0866331,21.2378662 C38.9614217,21.2734058 38.8463931,21.3341971 38.7415474,21.4206144 C38.6363246,21.5070317 38.5492046,21.6200101 38.4801874,21.7597367 C38.4107931,21.8992763 38.3762846,22.0752906 38.3762846,22.2879669 L38.3762846,23.8301971 Z M37.933896,20.8723698 C37.9606731,20.8678806 37.9942389,20.8647007 38.0345931,20.8622691 C38.0747589,20.8602115 38.1083246,20.8589022 38.1351017,20.8589022 C38.1618789,20.8589022 38.1954446,20.8602115 38.2354217,20.8622691 C38.275776,20.8647007 38.3093417,20.8678806 38.3361189,20.8723698 L38.3762846,21.337564 C38.4700046,21.1957799 38.6050217,21.0695209 38.7817131,20.9586 C38.9580274,20.8480532 39.1871417,20.7924993 39.4684903,20.7924993 C39.6783703,20.7924993 39.8705246,20.8246719 40.0447646,20.8888302 C40.2190046,20.9531755 40.3675989,21.0539957 40.4903589,21.1912906 C40.6133074,21.3287727 40.7092903,21.5016072 40.778496,21.7097942 C40.8477017,21.9181683 40.8823989,22.1684417 40.8823989,22.4609885 C40.8823989,22.7533482 40.8422331,23.0157799 40.7617131,23.2486576 C40.6813817,23.4811612 40.5640903,23.6783122 40.4100274,23.8401108 C40.255776,24.0019094 40.0658846,24.1259237 39.8403531,24.212341 C39.6148217,24.2987583 39.356856,24.3419669 39.066456,24.3419669 C38.9591589,24.3419669 38.8429989,24.3329885 38.717976,24.3154058 C38.5927646,24.297636 38.4788674,24.2710748 38.3762846,24.2355353 L38.3762846,25.8308878 C38.3495074,25.8351899 38.311416,25.8385568 38.2623874,25.8408014 C38.2131703,25.843046 38.1773417,25.8441683 38.1550903,25.8441683 C38.1283131,25.8441683 38.0915417,25.843046 38.0445874,25.8408014 C37.9976331,25.8385568 37.9606731,25.8351899 37.933896,25.8308878 L37.933896,20.8723698 Z" id="Fill-32" fill="#FFFFFF"></path>
        <path d="M44.8358554,22.6137338 C44.7598611,22.6049424 44.6650097,22.5950288 44.5511126,22.5838058 C44.4370269,22.5727698 44.3287869,22.5671583 44.2260154,22.5671583 C43.890924,22.5671583 43.6318269,22.629259 43.448724,22.7534604 C43.2654326,22.8774748 43.1739754,23.0547986 43.1739754,23.2850576 C43.1739754,23.4313309 43.2016954,23.5487986 43.2577011,23.6374604 C43.3135183,23.7261223 43.3861183,23.7936475 43.4755011,23.840223 C43.564884,23.8866115 43.6631297,23.9176619 43.7704269,23.9331871 C43.8775354,23.9487122 43.9848326,23.9563813 44.0919411,23.9563813 C44.2305411,23.9563813 44.3600897,23.9498345 44.4805869,23.936554 C44.6012726,23.9230863 44.7195069,23.9055036 44.8358554,23.8834317 L44.8358554,22.6137338 Z M44.8358554,22.0220935 C44.8358554,21.7297338 44.7664611,21.5159353 44.6280497,21.3806978 C44.4896383,21.2456475 44.2840954,21.1781223 44.0116097,21.1781223 C43.832844,21.1781223 43.6697297,21.1902806 43.5224554,21.2145971 C43.3749926,21.2389137 43.2431811,21.2690288 43.1270211,21.3043813 C43.1045811,21.2645396 43.085724,21.2069281 43.0700726,21.1315468 C43.0544211,21.0561655 43.0466897,20.9852734 43.0466897,20.9186835 C43.1626611,20.883518 43.3055983,20.8534029 43.4755011,20.8290863 C43.6452154,20.8047698 43.8194554,20.7926115 43.9982211,20.7926115 C44.4313697,20.7926115 44.7530726,20.8866978 44.9631411,21.0750576 C45.1730211,21.2634173 45.2780554,21.5591439 45.2780554,21.9624245 L45.2780554,24.2023525 C45.1217297,24.2334029 44.9318383,24.2644532 44.7085697,24.2955036 C44.4851126,24.3263669 44.2729697,24.3418921 44.0719526,24.3418921 C43.6565297,24.3418921 43.3291697,24.259964 43.0902497,24.0961079 C42.8511411,23.9320647 42.7317754,23.6662662 42.7317754,23.2983381 C42.7317754,23.1212014 42.766284,22.9627698 42.8356783,22.8232302 C42.9046954,22.6836906 43.0008669,22.566223 43.1236269,22.4708273 C43.2465754,22.3756187 43.3940383,22.3036043 43.5660154,22.2547842 C43.7379926,22.2061511 43.9267526,22.1816475 44.1322954,22.1816475 C44.2931469,22.1816475 44.4313697,22.187259 44.5477183,22.198295 C44.6636897,22.209518 44.7598611,22.2194317 44.8358554,22.228223 L44.8358554,22.0220935 Z" id="Fill-34" fill="#FFFFFF"></path>
        <path d="M47.9048366,23.8301971 C48.0074194,23.8700388 48.1135851,23.8999669 48.2231451,23.9197942 C48.3325166,23.9398086 48.4786594,23.9497223 48.6619509,23.9497223 C48.8361909,23.9497223 49.0013794,23.9222259 49.1578937,23.8666719 C49.3142194,23.811305 49.450368,23.7237655 49.5667166,23.6042403 C49.682688,23.4845281 49.7743337,23.3328302 49.8414651,23.1487727 C49.908408,22.9650892 49.9419737,22.7445568 49.9419737,22.4875496 C49.9419737,22.0797799 49.864848,21.760859 49.7107851,21.5304129 C49.5565337,21.2999669 49.3074309,21.1845568 48.9634766,21.1845568 C48.856368,21.1845568 48.740208,21.2025137 48.6151851,21.2378662 C48.4899737,21.2734058 48.3749451,21.3341971 48.2700994,21.4206144 C48.1648766,21.5070317 48.0777566,21.6200101 48.0087394,21.7597367 C47.9393451,21.8992763 47.9048366,22.0752906 47.9048366,22.2879669 L47.9048366,23.8301971 Z M47.462448,20.8723698 C47.4892251,20.8678806 47.5227909,20.8647007 47.5631451,20.8622691 C47.6033109,20.8602115 47.6368766,20.8589022 47.6636537,20.8589022 C47.6904309,20.8589022 47.7239966,20.8602115 47.7639737,20.8622691 C47.804328,20.8647007 47.8378937,20.8678806 47.8646709,20.8723698 L47.9048366,21.337564 C47.9985566,21.1957799 48.1335737,21.0695209 48.3102651,20.9586 C48.4865794,20.8480532 48.7156937,20.7924993 48.9970423,20.7924993 C49.2069223,20.7924993 49.3990766,20.8246719 49.5733166,20.8888302 C49.7475566,20.9531755 49.8961509,21.0539957 50.0189109,21.1912906 C50.1418594,21.3287727 50.2378423,21.5016072 50.307048,21.7097942 C50.3762537,21.9181683 50.4109509,22.1684417 50.4109509,22.4609885 C50.4109509,22.7533482 50.3707851,23.0157799 50.2902651,23.2486576 C50.2099337,23.4811612 50.0926423,23.6783122 49.9385794,23.8401108 C49.784328,24.0019094 49.5944366,24.1259237 49.3689051,24.212341 C49.1433737,24.2987583 48.885408,24.3419669 48.595008,24.3419669 C48.4877109,24.3419669 48.3715509,24.3329885 48.246528,24.3154058 C48.1213166,24.297636 48.0074194,24.2710748 47.9048366,24.2355353 L47.9048366,25.8308878 C47.8780594,25.8351899 47.839968,25.8385568 47.7909394,25.8408014 C47.7417223,25.843046 47.7058937,25.8441683 47.6836423,25.8441683 C47.6568651,25.8441683 47.6200937,25.843046 47.5731394,25.8408014 C47.5261851,25.8385568 47.4892251,25.8351899 47.462448,25.8308878 L47.462448,20.8723698 Z" id="Fill-36" fill="#FFFFFF"></path>
        <path d="M52.4681331,20.0414173 C52.4636074,20.0015755 52.4602131,19.9527554 52.4581389,19.8951439 C52.455876,19.8377194 52.4547446,19.7887122 52.4547446,19.7490576 C52.4547446,19.713518 52.8330189,19.6691871 52.8352817,19.6160647 C52.837356,19.5627554 52.8407503,19.5186115 52.845276,19.4830719 C52.8854417,19.4787698 52.9346589,19.4754029 52.9927389,19.4729712 C53.0506303,19.4709137 53.0998474,19.4697914 53.1400131,19.4697914 C53.1758417,19.4697914 53.2205331,19.4709137 53.2740874,19.4729712 C53.3278303,19.4754029 53.3723331,19.4787698 53.4081617,19.4830719 C53.4124989,19.5186115 53.4158931,19.5627554 53.418156,19.6160647 C53.4204189,19.6691871 53.0444074,19.713518 53.0444074,19.7490576 C53.0444074,19.7887122 53.043276,19.8377194 53.0410131,19.8951439 C53.0387503,19.9527554 53.035356,20.0015755 53.0310189,20.0414173 C52.9951903,20.0459065 52.9506874,20.0492734 52.8969446,20.0513309 C52.8433903,20.0535755 52.7986989,20.0546978 52.7628703,20.0546978 C52.7227046,20.0546978 52.6734874,20.0535755 52.615596,20.0513309 C52.557516,20.0492734 52.5082989,20.0459065 52.4681331,20.0414173 L52.4681331,20.0414173 Z M52.6891389,21.2445252 L52.2603274,21.2445252 C52.2559903,21.2222662 52.2524074,21.195705 52.2503331,21.1646547 C52.2480703,21.1337914 52.2469389,21.1004964 52.2469389,21.0649568 C52.2469389,21.0296043 52.2480703,20.9942518 52.2503331,20.9587122 C52.2524074,20.9231727 52.2559903,20.894554 52.2603274,20.872295 L53.1315274,20.872295 L53.1315274,24.2622086 C53.1047503,24.2665108 53.0677903,24.2698777 53.0210246,24.2721223 C52.9740703,24.2743669 52.9371103,24.2754892 52.9103331,24.2754892 C52.8880817,24.2754892 52.8522531,24.2743669 52.8032246,24.2721223 C52.7540074,24.2698777 52.7161046,24.2665108 52.6891389,24.2622086 L52.6891389,21.2445252 Z" id="Fill-38" fill="#FFFFFF"></path>
        <path d="M57.6747411,22.2681209 C57.6747411,22.1308259 57.6568269,21.9955885 57.6211869,21.8627827 C57.5853583,21.7297899 57.5295411,21.6134446 57.4535469,21.5137468 C57.3775526,21.4140489 57.2793069,21.3330561 57.1588097,21.2709554 C57.038124,21.2090417 56.892924,21.1779914 56.7232097,21.1779914 C56.4103697,21.1779914 56.166924,21.2733871 55.9928726,21.4638043 C55.8186326,21.6544086 55.7135983,21.9224518 55.6779583,22.2681209 L57.6747411,22.2681209 Z M55.6643811,22.6338043 C55.6643811,23.085718 55.7694154,23.4179194 55.9792954,23.6307827 C56.189364,23.843459 56.5042783,23.9497036 56.9242269,23.9497036 C57.0939411,23.9497036 57.2513983,23.9354878 57.3965983,23.906495 C57.5417983,23.8776892 57.683604,23.8389698 57.822204,23.7903367 C57.8444554,23.8389698 57.8623697,23.8988259 57.8757583,23.969718 C57.8891469,24.0406101 57.8981983,24.1049554 57.9025354,24.1623799 C57.7729869,24.2201784 57.6211869,24.2643223 57.4469469,24.2953727 C57.2727069,24.326423 57.0828154,24.3419482 56.8772726,24.3419482 C56.5825354,24.3419482 56.3289069,24.2987396 56.116764,24.2123223 C55.9044326,24.125905 55.7301926,24.0052576 55.594044,23.8501928 C55.4577069,23.694941 55.3571983,23.5101353 55.2925183,23.2950273 C55.2276497,23.0801065 55.195404,22.844236 55.195404,22.5872288 C55.195404,22.3390129 55.2255754,22.1063223 55.2859183,21.8893439 C55.3460726,21.6721784 55.4377183,21.4815741 55.5606669,21.3175309 C55.6834269,21.1536748 55.840884,21.0251712 56.0330383,20.9320201 C56.225004,20.8390561 56.4552497,20.7924806 56.7232097,20.7924806 C56.9464783,20.7924806 57.1454211,20.8302647 57.3196611,20.905459 C57.4939011,20.9808403 57.640044,21.0861496 57.7584669,21.2212 C57.8768897,21.3564374 57.9662726,21.518236 58.0266154,21.7064086 C58.0869583,21.8947683 58.1169411,22.0997755 58.1169411,22.3212432 C58.1169411,22.3612719 58.1158097,22.4121496 58.1137354,22.4742504 C58.111284,22.5363511 58.1078897,22.5894734 58.1035526,22.6338043 L55.6643811,22.6338043 Z" id="Fill-40" fill="#FFFFFF"></path>
        <path d="M60.1606971,20.8722763 C60.1963371,20.8679741 60.2312229,20.8646072 60.2646,20.8623626 C60.2981657,20.860118 60.3304114,20.8589957 60.3617143,20.8589957 C60.3973543,20.8589957 60.43092,20.860118 60.4622229,20.8623626 C60.4935257,20.8646072 60.5269029,20.8679741 60.5627314,20.8722763 C60.5717829,20.9519597 60.5783829,21.0462331 60.5829086,21.1547223 C60.5872457,21.2633986 60.5895086,21.3619741 60.5895086,21.4504489 C60.6788914,21.2865928 60.8041029,21.1481755 60.9649543,21.0351971 C61.1256171,20.9222187 61.33776,20.8655424 61.6013829,20.8655424 L61.6719086,20.8655424 C61.6964229,20.8655424 61.7243314,20.8679741 61.7556343,20.8722763 C61.7690229,20.9476576 61.7756229,21.0185496 61.7756229,21.0849525 C61.7756229,21.1558446 61.7690229,21.2244921 61.7556343,21.291082 C61.7198057,21.2865928 61.6918971,21.2843482 61.6719086,21.2843482 L61.6081714,21.2843482 C61.3041943,21.2843482 61.0607486,21.3797439 60.8776457,21.5701612 C60.6945429,21.7607655 60.6030857,22.0776288 60.6030857,22.5207511 L60.6030857,24.2621899 C60.5763086,24.2664921 60.5393486,24.269859 60.4923943,24.2721036 C60.44544,24.2743482 60.4086686,24.2754705 60.3818914,24.2754705 C60.3594514,24.2754705 60.3238114,24.2743482 60.2745943,24.2721036 C60.2253771,24.269859 60.1874743,24.2664921 60.1606971,24.2621899 L60.1606971,20.8722763 Z" id="Fill-42" fill="#FFFFFF"></path>
        <path d="M63.4107069,23.7969583 C63.5089526,23.8368 63.6362383,23.8712173 63.7927526,23.900023 C63.9488897,23.9288288 64.0986154,23.9432317 64.2417411,23.9432317 C64.5097011,23.9432317 64.721844,23.8844978 64.8783583,23.7670302 C65.0344954,23.6495626 65.1127526,23.5044115 65.1127526,23.331577 C65.1127526,23.2120518 65.0893697,23.1134763 65.0424154,23.0358504 C64.9954611,22.9584115 64.9328554,22.8929439 64.8547869,22.8398216 C64.7765297,22.7866993 64.6882783,22.7434906 64.5900326,22.7101957 C64.4917869,22.6769007 64.3912783,22.6426705 64.2885069,22.6071309 C64.1768726,22.5717784 64.0663697,22.5317496 63.9568097,22.4876058 C63.8472497,22.4432748 63.7501354,22.3867856 63.6654669,22.3179511 C63.5804211,22.2493036 63.5123469,22.1662532 63.4610554,22.0688 C63.4095754,21.9713468 63.3839297,21.8493899 63.3839297,21.7031165 C63.3839297,21.4328288 63.4833069,21.2136058 63.6820611,21.0450734 C63.8808154,20.8767281 64.1881869,20.7925554 64.6036097,20.7925554 C64.7778497,20.7925554 64.9464326,20.8080806 65.1093583,20.8391309 C65.2724726,20.8701813 65.3986269,20.9032892 65.4880097,20.9388288 C65.4655697,21.0673324 65.4344554,21.1935914 65.3942897,21.3176058 C65.3003811,21.2867424 65.1808269,21.2556921 65.0358154,21.2246417 C64.8906154,21.1935914 64.7397583,21.1780662 64.5834326,21.1780662 C64.3107583,21.1780662 64.1176611,21.225764 64.003764,21.3209727 C63.8898669,21.4161813 63.8329183,21.541318 63.8329183,21.6965698 C63.8329183,21.7807424 63.8517754,21.8525698 63.8898669,21.9124259 C63.9277697,21.972282 63.9792497,22.0233468 64.0439297,22.0654331 C64.1087983,22.1075194 64.1823411,22.1441813 64.265124,22.1750446 C64.3477183,22.206095 64.4359697,22.2349007 64.5298783,22.2614619 C64.6503754,22.3013036 64.7721926,22.3445122 64.8951411,22.3910878 C65.0177126,22.4376633 65.1295354,22.4986417 65.230044,22.573836 C65.3305526,22.6492173 65.4131469,22.7446129 65.4780154,22.8596489 C65.5426954,22.9748719 65.5751297,23.1189007 65.5751297,23.2917353 C65.5751297,23.4512892 65.5426954,23.5964403 65.4780154,23.7270014 C65.4131469,23.8579367 65.3228211,23.9686705 65.2066611,24.0593899 C65.0903126,24.1502964 64.9519011,24.2200662 64.7910497,24.2688863 C64.6303869,24.3175194 64.453884,24.342023 64.2617297,24.342023 C64.047324,24.342023 63.8563011,24.3287424 63.6888497,24.3021813 C63.5212097,24.2756201 63.3861926,24.2400806 63.2834211,24.1957496 C63.3101983,24.0627568 63.3526269,23.929764 63.4107069,23.7969583" id="Fill-44" fill="#FFFFFF"></path>
        <g id="Group-48" transform="translate(0.000000, 0.031237)" fill="#3F60FF">
            <path d="M18.0090806,0.185722302 L5.97652629,0.265031655 C2.65389771,0.287103597 -0.0217422857,2.97202446 0.000132000001,6.26149209 L0.0802748571,18.1741683 C0.103657714,21.463823 2.814372,24.1124561 6.13718914,24.0892619 L10.9387834,24.0572763 L10.9387834,16.8911899 C10.9154006,13.6015353 13.6989034,11.0836504 17.021532,11.0621396 L24.0982406,11.0509165 L24.0661834,6.10081583 C24.043932,2.8113482 21.3318977,0.162341007 18.0090806,0.185722302" id="Fill-46"></path>
        </g>
        <path d="M17.963616,13.2142288 C15.132216,13.2142288 13.1222331,14.7439266 13.1222331,18.1284158 L13.1222331,21.9513511 L21.8928789,13.2376101 L21.8928789,13.2142288 L17.963616,13.2142288 Z" id="Fill-49" fill="#D0021B"></path>
        <path d="M29.6307189,22.3389194 C29.4461074,22.3426604 29.261496,22.3660417 29.0768846,22.4090633 C28.8922731,22.4520849 28.7261417,22.5128763 28.5783017,22.5914374 C28.4306503,22.6699986 28.3122274,22.7616532 28.2230331,22.8664014 C28.1338389,22.9711496 28.0891474,23.0871209 28.0891474,23.2143151 C28.0891474,23.3527324 28.1353474,23.4752504 28.2277474,23.5818691 C28.3199589,23.6884878 28.4413989,23.7782719 28.592256,23.8512216 C28.7429246,23.9241712 28.918296,23.9793511 29.1183703,24.0167612 C29.318256,24.0541712 29.5260617,24.0728763 29.7414103,24.0728763 C29.8952846,24.0728763 30.050856,24.0616532 30.2077474,24.0392072 C30.3646389,24.0167612 30.5107817,23.9858978 30.646176,23.9466173 C30.7815703,23.9073367 30.9047074,23.8605741 31.0153989,23.8063295 C31.1262789,23.7520849 31.2152846,23.693164 31.2831703,23.6295669 C31.0246389,23.4312935 30.749136,23.2189914 30.4568503,22.9926604 C30.1645646,22.7663295 29.8892503,22.5484158 29.6307189,22.3389194 L29.6307189,22.3389194 Z M32.8247417,24.3310058 L32.2154674,24.3310058 C32.2092446,24.3310058 32.1492789,24.2889194 32.0353817,24.2047468 C31.9214846,24.1205741 31.7753417,24.0092791 31.5969531,23.8708619 C31.4061189,24.0205022 31.1460789,24.1420849 30.8170217,24.2356101 C30.4875874,24.3291353 30.1200617,24.3758978 29.7138789,24.3758978 C29.3999074,24.3758978 29.1121474,24.346905 28.8507874,24.2889194 C28.5890503,24.2309338 28.3629531,24.1495669 28.1723074,24.0448187 C27.9814731,23.9400705 27.8338217,23.8184878 27.7291646,23.6800705 C27.6245074,23.5416532 27.5720846,23.3901424 27.5720846,23.2255381 C27.5720846,23.0758978 27.616776,22.9356101 27.7059703,22.8046748 C27.7951646,22.6737396 27.9167931,22.5577683 28.0706674,22.4567612 C28.2243531,22.355754 28.4059474,22.270646 28.6152617,22.2014374 C28.824576,22.1322288 29.0459589,22.0826604 29.279976,22.0527324 C29.1383589,21.9367612 29.0182389,21.835754 28.9199931,21.7497108 C28.8213703,21.6636676 28.7538617,21.5982 28.7169017,21.5533079 C28.630536,21.4523007 28.5568046,21.3550345 28.4953303,21.2615094 C28.4336674,21.1679842 28.4029303,21.0613655 28.4029303,20.9416532 C28.4029303,20.814459 28.4446046,20.6984878 28.527576,20.5937396 C28.610736,20.4889914 28.7214274,20.4001424 28.8600274,20.3271928 C28.9984389,20.2542432 29.159856,20.1981281 29.3444674,20.1588475 C29.5292674,20.1195669 29.726136,20.0999266 29.9354503,20.0999266 C30.2060503,20.0961856 30.4553417,20.1195669 30.683136,20.1700705 C30.9107417,20.2205741 31.0953531,20.2738835 31.2369703,20.3299986 C31.2369703,20.3337396 31.223016,20.3477683 31.1954846,20.3720849 C31.1677646,20.3964014 31.1368389,20.4225885 31.1030846,20.450646 C31.0691417,20.4787036 31.0384046,20.5039554 31.0106846,20.5264014 C30.9831531,20.5488475 30.9691989,20.561941 30.9691989,20.565682 C30.8460617,20.5245309 30.7168903,20.4880561 30.581496,20.4562576 C30.4461017,20.424459 30.2984503,20.4048187 30.1383531,20.3973367 C29.9844789,20.3935957 29.8368274,20.4029482 29.6953989,20.4253942 C29.5537817,20.4478403 29.4276274,20.4833799 29.316936,20.5320129 C29.2062446,20.580646 29.1168617,20.6414374 29.0491646,20.7143871 C28.9814674,20.7873367 28.9475246,20.8724446 28.9475246,20.9697108 C28.9475246,21.0295669 28.9599703,21.0866173 28.9844846,21.1408619 C29.0091874,21.1951065 29.0353989,21.2437396 29.0631189,21.2867612 C29.0906503,21.3297827 29.1168617,21.3653223 29.1415646,21.3933799 C29.1660789,21.4214374 29.1815417,21.4373367 29.187576,21.4410777 L31.5137931,23.2928763 L32.3076789,22.0302863 L32.8522731,22.0302863 L31.8739646,23.5734518 L32.8247417,24.3310058 Z" id="Fill-51" fill="#FFFFFF"></path>
    </g>
</svg>