
<svg width="119px" height="47px" viewBox="7 6 119 47" version="1.1" xmlns="http://www.w3.org/2000/svg" xmlns:xlink="http://www.w3.org/1999/xlink">
    <!-- Generator: Sketch 42 (36781) - http://www.bohemiancoding.com/sketch -->
    <desc>Created with Sketch.</desc>
    <defs>
        <polygon id="path-1" points="11.4535857 0.281661871 0.000168571429 0.281661871 0.000168571429 16.3586036 11.4535857 16.3586036 11.4535857 0.281661871"></polygon>
    </defs>
    <g id="Page-1" stroke="none" stroke-width="1" fill="none" fill-rule="evenodd" transform="translate(8.000000, 6.000000)">
        <path d="M53.328448,16.1986683 C53.1686423,16.2470209 52.9167966,16.2950353 52.5735851,16.3430496 C52.2300366,16.391064 51.874688,16.4150712 51.5075394,16.4150712 C51.1558994,16.4150712 50.8403337,16.391064 50.5608423,16.3430496 C50.2813509,16.2950353 50.045688,16.1986683 49.8541909,16.0546252 C49.6623566,15.9102439 49.5143509,15.7144669 49.410848,15.4659417 C49.3066709,15.2177547 49.255088,14.8931504 49.255088,14.4924669 L49.255088,7.28320791 C49.255088,6.91464676 49.3228537,6.59815755 49.4587223,6.33407842 C49.5942537,6.06966115 49.7901337,5.83330863 50.045688,5.62502086 C50.3012423,5.41707122 50.616808,5.22839496 50.992048,5.0603446 C51.367288,4.89229424 51.770848,4.74419353 52.2023909,4.61570432 C52.6335966,4.48755324 53.080648,4.38746691 53.5442194,4.31510719 C54.0071166,4.24342374 54.4703509,4.20724388 54.9339223,4.20724388 C55.7005851,4.20724388 56.3074423,4.35568273 56.7548309,4.65188417 C57.2018823,4.94842374 57.4257451,5.43296331 57.4257451,6.10550288 C57.4257451,6.33002086 57.3937166,6.55014317 57.3299966,6.76654604 C57.2659394,6.98294892 57.1860366,7.17906403 57.090288,7.3552295 C56.7548309,7.3552295 56.4112823,7.37145971 56.0599794,7.40324388 C55.7083394,7.43536619 55.365128,7.48371871 55.0296709,7.54762518 C54.6942137,7.61153165 54.378648,7.67983381 54.0833109,7.7518554 C53.7872994,7.82387698 53.5357909,7.90807122 53.328448,8.0041 L53.328448,16.1986683 Z" id="Fill-1" fill="#FFFFFF"></path>
        <g id="Group-5" transform="translate(60.348571, 0.056468)">
            <mask id="mask-2" fill="white">
                <use xlink:href="#path-1"></use>
            </mask>
            <g id="Clip-4"></g>
            <path d="M11.4535857,16.1422007 C11.29378,16.1905532 11.0422714,16.2385676 10.6987229,16.286582 C10.3551743,16.3345964 9.99982571,16.3586036 9.63267714,16.3586036 C9.28103714,16.3586036 8.96547143,16.3345964 8.68631714,16.286582 C8.40648857,16.2385676 8.17116286,16.1422007 7.97932857,15.9981576 C7.78749429,15.8537763 7.63948857,15.6579993 7.53598571,15.4094741 C7.43180857,15.1612871 7.38022571,14.8366827 7.38022571,14.4359993 L7.38022571,9.10099209 C7.38022571,8.4443446 7.21637429,7.98381223 6.88900857,7.71939496 C6.56164286,7.4549777 6.15808286,7.32276906 5.67900286,7.32276906 C5.35939143,7.32276906 5.05596286,7.36300647 4.76838,7.44280504 C4.48079714,7.52327986 4.24918,7.61930863 4.07352857,7.7312295 L4.07352857,16.1422007 C3.91372286,16.1905532 3.66221429,16.2385676 3.31900286,16.286582 C2.97511714,16.3345964 2.61976857,16.3586036 2.25262,16.3586036 C1.90098,16.3586036 1.58541429,16.3345964 1.30626,16.286582 C1.02643143,16.2385676 0.791105714,16.1422007 0.599271429,15.9981576 C0.407437143,15.8537763 0.259768571,15.6579993 0.155928571,15.4094741 C0.0520885714,15.1612871 0.000168571429,14.8366827 0.000168571429,14.4359993 L0.000168571429,0.497963309 C0.17582,0.466179137 0.43542,0.422222302 0.778968571,0.365754676 C1.12218,0.309963309 1.46977429,0.281560432 1.82141429,0.281560432 C2.17238,0.281560432 2.48794571,0.305905755 2.76777429,0.353920144 C3.04692857,0.401934532 3.28292857,0.497963309 3.47442571,0.642006475 C3.66626,0.78638777 3.81392857,0.982841007 3.91776857,1.23102806 C4.02160857,1.47955324 4.07352857,1.80381942 4.07352857,2.20416475 L4.07352857,4.55923669 C4.28120857,4.4791 4.59677429,4.38712878 5.01988857,4.28298489 C5.44300286,4.17884101 5.91062,4.12676906 6.42172857,4.12676906 C8.00326571,4.12676906 9.23720857,4.52305683 10.1238943,5.31630863 C11.01058,6.1092223 11.4535857,7.29098489 11.4535857,8.86092014 L11.4535857,16.1422007 Z" id="Fill-3" fill="#FFFFFF" mask="url(#mask-2)"></path>
        </g>
        <path d="M81.0032914,7.16296906 C80.61996,7.16296906 80.2882114,7.22721367 80.00872,7.35536475 C79.7292286,7.48385396 79.50132,7.64784676 79.3260057,7.84801942 C79.1500171,8.04853022 79.0181943,8.27271007 78.9305371,8.52089712 C78.8425429,8.7694223 78.7906229,9.02166691 78.7747771,9.27763094 L82.8720743,8.60509137 C82.8242,8.2845446 82.6482114,7.96433597 82.34512,7.64345108 C82.0413543,7.32324245 81.5939657,7.16296906 81.0032914,7.16296906 M81.6742057,16.607264 C80.7312171,16.607264 79.8570057,16.4750554 79.05056,16.2106381 C78.24344,15.946559 77.5408343,15.5499331 76.9417314,15.0210986 C76.3426286,14.4926022 75.8713029,13.8278396 75.5280914,13.0264727 C75.1845429,12.225782 75.0129371,11.2884871 75.0129371,10.2149259 C75.0129371,9.15759496 75.1845429,8.24836475 75.5280914,7.48723525 C75.8713029,6.72678201 76.3227371,6.10191871 76.88172,5.61298345 C77.44104,5.12438633 78.0799257,4.76394029 78.7987143,4.53164532 C79.5175029,4.29968849 80.2521371,4.18303381 81.0032914,4.18303381 C81.8498571,4.18303381 82.6205657,4.31152302 83.3154171,4.56782518 C84.0102686,4.82412734 84.6093714,5.17645827 85.1123886,5.62515612 C85.6157429,6.07385396 86.0068286,6.61046547 86.2866571,7.23499065 C86.5661486,7.85985396 86.7060629,8.54118489 86.7060629,9.27763094 C86.7060629,9.82269568 86.5540114,10.2389331 86.2505829,10.5273576 C85.9471543,10.815782 85.5237029,11.0000626 84.9805657,11.0801993 L79.06236,11.9691417 C79.2380114,12.4979763 79.5974057,12.8946022 80.1405429,13.1586813 C80.6833429,13.4230986 81.3063829,13.5553072 82.0096629,13.5553072 C82.6643943,13.5553072 83.2833886,13.4711129 83.8666457,13.3030626 C84.4495657,13.1346741 84.9246,12.9388971 85.2924229,12.714041 C85.54764,12.8746525 85.7634114,13.0988324 85.9394,13.3872568 C86.1147143,13.6753432 86.2027086,13.9799978 86.2027086,14.3002065 C86.2027086,15.0210986 85.8672514,15.5583863 85.1963371,15.9103791 C84.6848914,16.1829115 84.1097257,16.366854 83.4711771,16.4632209 C82.8319543,16.5592496 82.2328514,16.607264 81.6742057,16.607264" id="Fill-6" fill="#FFFFFF"></path>
        <path d="M97.2486886,8.82125755 C97.2486886,8.32488345 97.1087743,7.96037986 96.8292829,7.72774676 C96.5497914,7.49578993 96.1705057,7.37913525 95.6910886,7.37913525 C95.3714771,7.37913525 95.0562486,7.41937266 94.7447286,7.49950935 C94.4332086,7.57998417 94.1655171,7.70002014 93.9419914,7.8599554 L93.9419914,16.1985669 C93.7821857,16.2469194 93.5306771,16.2949338 93.1874657,16.3429482 C92.84358,16.3909626 92.4882314,16.4149698 92.1210829,16.4149698 C91.7694429,16.4149698 91.4538771,16.3909626 91.1743857,16.3429482 C90.8948943,16.2949338 90.6595686,16.1985669 90.4677343,16.0545237 C90.2759,15.9104806 90.1282314,15.7143655 90.0243914,15.4658403 C89.9205514,15.2176532 89.8686314,14.8933871 89.8686314,14.4923655 L89.8686314,7.28310647 C89.8686314,6.85063885 89.9603343,6.49830791 90.1444143,6.22577554 C90.32782,5.95358129 90.5793286,5.70539424 90.8992771,5.48087626 C91.44174,5.09642302 92.1247914,4.78399137 92.9477571,4.54358129 C93.7703857,4.30350935 94.6850543,4.18313525 95.6910886,4.18313525 C97.4961514,4.18313525 98.8858543,4.57976115 99.8605343,5.37267482 C100.83454,6.16558849 101.322049,7.26755252 101.322049,8.67687626 L101.322049,16.1985669 C101.162243,16.2469194 100.910734,16.2949338 100.567186,16.3429482 C100.223637,16.3909626 99.8682886,16.4149698 99.50114,16.4149698 C99.1495,16.4149698 98.8339343,16.3909626 98.55478,16.3429482 C98.2749514,16.2949338 98.0392886,16.1985669 97.8477914,16.0545237 C97.6559571,15.9104806 97.5082886,15.7143655 97.4044486,15.4658403 C97.3002714,15.2176532 97.2486886,14.8933871 97.2486886,14.4923655 L97.2486886,8.82125755 Z" id="Fill-8" fill="#FFFFFF"></path>
        <path d="M108.701836,10.3832806 C108.701836,11.3604748 108.889625,12.1097698 109.264865,12.6301511 C109.640105,13.1508705 110.16335,13.4112302 110.834602,13.4112302 C111.505179,13.4112302 112.02067,13.1468129 112.380065,12.6179784 C112.739459,12.089482 112.919156,11.3445827 112.919156,10.3832806 C112.919156,9.42197842 112.735076,8.68113669 112.367927,8.16041727 C112.000442,7.64003597 111.481579,7.37933813 110.810327,7.37933813 C110.13975,7.37933813 109.620213,7.64003597 109.253065,8.16041727 C108.885242,8.68113669 108.701836,9.42197842 108.701836,10.3832806 M117.088265,10.3832806 C117.088265,11.376705 116.936213,12.2619281 116.633122,13.0386115 C116.329356,13.8159712 115.902196,14.4685612 115.351305,14.9973957 C114.800076,15.5258921 114.140962,15.9265755 113.374299,16.1987698 C112.607636,16.470964 111.752642,16.6072302 110.810327,16.6072302 C109.867676,16.6072302 109.013356,16.4631871 108.246693,16.1747626 C107.479693,15.8863381 106.820916,15.4741583 106.270025,14.9372086 C105.718796,14.4005971 105.291299,13.7476691 104.98787,12.9784245 C104.684105,12.209518 104.532727,11.3445827 104.532727,10.3832806 C104.532727,9.43820863 104.684105,8.58071223 104.98787,7.81180576 C105.291299,7.04289928 105.718796,6.39030935 106.270025,5.85335971 C106.820916,5.3167482 107.479693,4.90389209 108.246693,4.61580576 C109.013356,4.32738129 109.867676,4.18333813 110.810327,4.18333813 C111.752642,4.18333813 112.607636,4.33143885 113.374299,4.62764029 C114.140962,4.92417986 114.800076,5.3407554 115.351305,5.87736691 C115.902196,6.41431655 116.329356,7.06690647 116.633122,7.83581295 C116.936213,8.60505755 117.088265,9.45410072 117.088265,10.3832806" id="Fill-10" fill="#FFFFFF"></path>
        <path d="M49.8541234,30.4613763 C50.0375291,30.5333978 50.2273406,30.5874986 50.4232206,30.6233403 C50.6187634,30.6595201 50.8800491,30.677441 51.207752,30.677441 C51.519272,30.677441 51.8146091,30.627736 52.0944377,30.5273115 C52.3739291,30.4272252 52.6173463,30.2689806 52.8253634,30.0529158 C53.0327063,29.8365129 53.1965577,29.5622899 53.3165806,29.2295705 C53.4362663,28.8975273 53.4962777,28.4988727 53.4962777,28.0342827 C53.4962777,27.2971604 53.3583863,26.7206496 53.0829406,26.3040741 C52.8071577,25.8874986 52.361792,25.6788727 51.7468434,25.6788727 C51.5553463,25.6788727 51.3476663,25.7113331 51.1241406,25.7752396 C50.9002777,25.8394842 50.6946206,25.9493763 50.5071691,26.1055921 C50.3190434,26.2618079 50.1632834,26.4660381 50.0398891,26.7186209 C49.9158206,26.9708655 49.8541234,27.2890453 49.8541234,27.6734986 L49.8541234,30.4613763 Z M49.0631863,25.1145345 C49.1110606,25.1064194 49.171072,25.1006712 49.2432206,25.0962755 C49.315032,25.0925561 49.3750434,25.0901892 49.4229177,25.0901892 C49.470792,25.0901892 49.5308034,25.0925561 49.6022777,25.0962755 C49.6744263,25.1006712 49.7344377,25.1064194 49.782312,25.1145345 L49.8541234,25.9554626 C50.0216834,25.6991604 50.2630777,25.470923 50.5789806,25.2704122 C50.8942091,25.0705777 51.3038377,24.9701532 51.8068549,24.9701532 C52.1820949,24.9701532 52.5256434,25.0283115 52.8371634,25.1442899 C53.1486834,25.2606065 53.414352,25.4428583 53.633832,25.6910453 C53.8536491,25.9395705 54.0252549,26.2520022 54.1489863,26.6283403 C54.2727177,27.0050165 54.334752,27.4574338 54.334752,27.9862683 C54.334752,28.5147647 54.2629406,28.9891604 54.1189806,29.4101317 C53.9753577,29.8304266 53.7656549,30.1868151 53.4902091,30.4792971 C53.2144263,30.7717791 52.8749234,30.995959 52.4717006,31.1521748 C52.0684777,31.3083906 51.6072663,31.3864986 51.0880663,31.3864986 C50.896232,31.3864986 50.688552,31.3702683 50.4650263,31.3384842 C50.2411634,31.3063619 50.0375291,31.2583475 49.8541234,31.1941029 L49.8541234,34.0780094 C49.8062491,34.0857863 49.7381463,34.0918727 49.6504891,34.0959302 C49.5624949,34.0999878 49.4984377,34.1020165 49.4586549,34.1020165 C49.4107806,34.1020165 49.3450377,34.0999878 49.2610891,34.0959302 C49.1771406,34.0918727 49.1110606,34.0857863 49.0631863,34.0780094 L49.0631863,25.1145345 Z" id="Fill-12" fill="#FFFFFF"></path>
        <path d="M57.7969057,22.4108173 C57.84478,22.4030403 57.91086,22.396954 57.9944714,22.3928964 C58.07842,22.3888388 58.1445,22.3868101 58.1923743,22.3868101 C58.2321571,22.3868101 58.2958771,22.3888388 58.3838714,22.3928964 C58.4718657,22.396954 58.5399686,22.4030403 58.5878429,22.4108173 L58.5878429,29.8243065 C58.5878429,30.0329324 58.61178,30.1948964 58.6596543,30.3112129 C58.7075286,30.4271914 58.7672029,30.5113856 58.8393514,30.5634576 C58.9111629,30.6155295 58.9910657,30.6476518 59.0787229,30.6594863 C59.1667171,30.671659 59.24662,30.6774072 59.3184314,30.6774072 C59.4060886,30.6774072 59.4981286,30.671659 59.5942143,30.6594863 C59.6899629,30.6476518 59.7695286,30.6334504 59.8335857,30.6175583 C59.8737057,30.7135871 59.9013514,30.8177309 59.9175343,30.9299899 C59.93338,31.0422489 59.9455171,31.1460547 59.9532714,31.2424216 C59.84134,31.2823209 59.7155857,31.3103856 59.5760086,31.3262777 C59.4360943,31.3425079 59.3066314,31.3502849 59.1866086,31.3502849 C59.0190486,31.3502849 58.8511514,31.332364 58.6835914,31.2961842 C58.5156943,31.2603424 58.3660029,31.1923784 58.23418,31.091954 C58.1023571,30.9918676 57.9964943,30.8559396 57.9165914,30.6834935 C57.8370257,30.5113856 57.7969057,30.285177 57.7969057,30.0045295 L57.7969057,22.4108173 Z" id="Fill-14" fill="#FFFFFF"></path>
        <path d="M66.1833343,28.2623849 C66.0474657,28.2464928 65.8778829,28.2285719 65.6742486,28.2082842 C65.4702771,28.1883345 65.2767571,28.1781906 65.0930143,28.1781906 C64.4939114,28.1781906 64.0306771,28.2904496 63.7033114,28.5149676 C63.3756086,28.7391475 63.2120943,29.0596942 63.2120943,29.4759317 C63.2120943,29.7403489 63.2616543,29.9526942 63.3617857,30.1129676 C63.46158,30.273241 63.59138,30.3953058 63.7511857,30.4795 C63.9109914,30.5633561 64.0866429,30.6194856 64.2784771,30.6475504 C64.4699743,30.6756151 64.6618086,30.6894784 64.8533057,30.6894784 C65.1011057,30.6894784 65.3327229,30.6776439 65.5481571,30.6536367 C65.7639286,30.6292914 65.9753171,30.5975072 66.1833343,30.5576079 L66.1833343,28.2623849 Z M66.1833343,27.1928813 C66.1833343,26.6643849 66.0592657,26.2779029 65.8118029,26.0334353 C65.56434,25.7893058 65.1968543,25.667241 64.7096829,25.667241 C64.3900714,25.667241 64.0984429,25.6892194 63.8351343,25.7331763 C63.5714886,25.7771331 63.3358257,25.8315719 63.1281457,25.8954784 C63.0880257,25.8234568 63.0543114,25.7193129 63.0263286,25.5830468 C62.9983457,25.4467806 62.9845229,25.3186295 62.9845229,25.1982554 C63.1918657,25.1346871 63.44742,25.0802482 63.7511857,25.0362914 C64.0546143,24.9923345 64.3661343,24.9703561 64.6857457,24.9703561 C65.4601629,24.9703561 66.0353286,25.1404353 66.4109057,25.4809317 C66.7861457,25.8214281 66.9739343,26.3560108 66.9739343,27.085018 L66.9739343,31.1341187 C66.6944429,31.1902482 66.35494,31.2463777 65.9557629,31.3025072 C65.5562486,31.3582986 65.1769629,31.3863633 64.8175686,31.3863633 C64.0748429,31.3863633 63.4895629,31.2382626 63.0624029,30.9420612 C62.6349057,30.6455216 62.4214943,30.1650396 62.4214943,29.4999388 C62.4214943,29.1797302 62.4831914,28.8933345 62.60726,28.6410899 C62.7306543,28.3888453 62.9025971,28.1765 63.1220771,28.004054 C63.3418943,27.831946 63.60554,27.7017662 63.9130143,27.6135144 C64.2204886,27.5256007 64.5579686,27.4813058 64.9254543,27.4813058 C65.2130371,27.4813058 65.4601629,27.4914496 65.66818,27.5113993 C65.8755229,27.5316871 66.0474657,27.5496079 66.1833343,27.5655 L66.1833343,27.1928813 Z" id="Fill-16" fill="#FFFFFF"></path>
        <path d="M70.4720274,30.4012906 C70.6476789,30.4733122 70.8752503,30.5355281 71.1550789,30.5876 C71.4342331,30.6396719 71.7019246,30.6657079 71.957816,30.6657079 C72.436896,30.6657079 72.8161817,30.5595353 73.0960103,30.3471899 C73.3751646,30.1348446 73.5150789,29.8724561 73.5150789,29.5600245 C73.5150789,29.3439597 73.4732731,29.1657655 73.3893246,29.0254417 C73.305376,28.8854561 73.1934446,28.7671108 73.0538674,28.671082 C72.9139531,28.5750532 72.7561703,28.4969453 72.5805189,28.4367583 C72.4048674,28.3765712 72.2251703,28.3146935 72.0414274,28.2504489 C71.8418389,28.1865424 71.6442731,28.1141827 71.4483931,28.0343842 C71.2525131,27.9542475 71.0788846,27.8521324 70.9275074,27.7277007 C70.775456,27.6036072 70.6537474,27.4534777 70.5620446,27.2773122 C70.4700046,27.1011468 70.4241531,26.8806863 70.4241531,26.6162691 C70.4241531,26.1276719 70.6018274,25.7313842 70.957176,25.4267295 C71.3125246,25.1224129 71.8620674,24.9702547 72.6047931,24.9702547 C72.9163131,24.9702547 73.2177189,24.9983194 73.5090103,25.0544489 C73.8006389,25.1105784 74.0261874,25.1704273 74.1859931,25.2346719 C74.1458731,25.4669669 74.0902446,25.6952043 74.0184331,25.9193842 C73.850536,25.8635928 73.6367874,25.8074633 73.3775246,25.7513338 C73.1179246,25.6952043 72.8482103,25.6671396 72.5687189,25.6671396 C72.0812103,25.6671396 71.735976,25.7533626 71.5323417,25.9254705 C71.3287074,26.0975784 71.2268903,26.3237871 71.2268903,26.6044345 C71.2268903,26.7565928 71.2606046,26.8864345 71.3287074,26.994636 C71.3964731,27.1028374 71.4885131,27.1951468 71.6041531,27.2712259 C71.7201303,27.347305 71.851616,27.4135784 71.9996217,27.4693698 C72.1472903,27.5254993 72.3050731,27.5775712 72.4729703,27.6255856 C72.6884046,27.6976072 72.9061989,27.7757151 73.126016,27.8599094 C73.3451589,27.9441036 73.5450846,28.0543338 73.7247817,28.1902619 C73.9044789,28.3265281 74.0521474,28.4989741 74.1681246,28.7069237 C74.2837646,28.9152115 74.3417531,29.1755712 74.3417531,29.4880029 C74.3417531,29.7764273 74.2837646,30.0388158 74.1681246,30.2748302 C74.0521474,30.5115209 73.890656,30.7116935 73.682976,30.8756863 C73.4749589,31.0400173 73.227496,31.1661396 72.9399131,31.2543914 C72.6526674,31.342305 72.3371017,31.3866 71.9935531,31.3866 C71.6102217,31.3866 71.268696,31.3625928 70.9693131,31.3145784 C70.6695931,31.266564 70.4281989,31.2023194 70.244456,31.1221827 C70.2923303,30.8817727 70.3681874,30.6413626 70.4720274,30.4012906" id="Fill-18" fill="#FFFFFF"></path>
        <path d="M78.0078446,25.7871755 L76.965736,25.7871755 C76.9576446,25.7472763 76.951576,25.6952043 76.9475303,25.6309597 C76.9434846,25.5670532 76.9414617,25.5031468 76.9414617,25.4389022 C76.9414617,25.3746576 76.9434846,25.3148086 76.9475303,25.2586791 C76.951576,25.2025496 76.9576446,25.1545353 76.965736,25.1142978 L78.0078446,25.1142978 L78.0078446,23.9609381 L78.7505703,23.2278734 L78.7984446,23.2278734 L78.7984446,25.1142978 L80.4521303,25.1142978 C80.4595474,25.1545353 80.4659531,25.2025496 80.4699989,25.2586791 C80.4737074,25.3148086 80.4757303,25.3746576 80.4757303,25.4389022 C80.4757303,25.5031468 80.4737074,25.5670532 80.4699989,25.6309597 C80.4659531,25.6952043 80.4595474,25.7472763 80.4521303,25.7871755 L78.7984446,25.7871755 L78.7984446,29.7764273 C78.7984446,29.9769381 78.8244046,30.1348446 78.8766617,30.2511612 C78.9282446,30.3671396 78.9963474,30.4574201 79.080296,30.5213266 C79.1639074,30.5855712 79.259656,30.6274993 79.3675417,30.6477871 C79.4754274,30.6677367 79.585336,30.6775424 79.6972674,30.6775424 C79.9764217,30.6775424 80.220176,30.6413626 80.427856,30.5696791 C80.4838217,30.7779669 80.5236046,31.0018086 80.5478789,31.2422187 C80.260296,31.3304705 79.9248389,31.3744273 79.5415074,31.3744273 C79.0860274,31.3744273 78.7165189,31.2523626 78.4333189,31.007895 C78.1494446,30.7637655 78.0078446,30.3651108 78.0078446,29.8126072 L78.0078446,25.7871755 Z" id="Fill-20" fill="#FFFFFF"></path>
        <path d="M83.4469029,23.6124281 C83.4388114,23.5404065 83.4327429,23.4521547 83.4290343,23.3480108 C83.4249886,23.244205 83.4229657,23.1556151 83.4229657,23.0839317 C83.4229657,23.0196871 83.4249886,22.9395504 83.4290343,22.8435216 C83.4327429,22.7471547 83.4388114,22.6673561 83.4469029,22.6031115 C83.5187143,22.5953345 83.6067086,22.5892482 83.7105486,22.5848525 C83.8140514,22.5811331 83.9020457,22.5791043 83.9738571,22.5791043 C84.0379143,22.5791043 84.1178171,22.5811331 84.2135657,22.5848525 C84.3096514,22.5892482 84.3892171,22.5953345 84.4532743,22.6031115 C84.4610286,22.6673561 84.4670971,22.7471547 84.4711429,22.8435216 C84.4751886,22.9395504 84.4772114,23.0196871 84.4772114,23.0839317 C84.4772114,23.1556151 84.4751886,23.244205 84.4711429,23.3480108 C84.4670971,23.4521547 84.4610286,23.5404065 84.4532743,23.6124281 C84.3892171,23.6205432 84.3096514,23.6266295 84.2135657,23.6303489 C84.1178171,23.6344065 84.0379143,23.6364353 83.9738571,23.6364353 C83.9020457,23.6364353 83.8140514,23.6344065 83.7105486,23.6303489 C83.6067086,23.6266295 83.5187143,23.6205432 83.4469029,23.6124281 L83.4469029,23.6124281 Z M83.8420343,25.787277 L83.0753714,25.787277 C83.0676171,25.7470396 83.0612114,25.6990252 83.0575029,25.6428957 C83.0534571,25.5871043 83.0514343,25.5269173 83.0514343,25.4626727 C83.0514343,25.3987662 83.0534571,25.3348597 83.0575029,25.2706151 C83.0612114,25.2063705 83.0676171,25.1546367 83.0753714,25.1143993 L84.6329714,25.1143993 L84.6329714,31.2423201 C84.5850971,31.2500971 84.5190171,31.2561835 84.4354057,31.260241 C84.3514571,31.2642986 84.2853771,31.2663273 84.2375029,31.2663273 C84.19772,31.2663273 84.1336629,31.2642986 84.0460057,31.260241 C83.9580114,31.2561835 83.8902457,31.2500971 83.8420343,31.2423201 L83.8420343,25.787277 Z" id="Fill-22" fill="#FFFFFF"></path>
        <path d="M92.5161806,25.7871755 C92.276472,25.7391612 92.0789063,25.707377 91.9231463,25.6911468 C91.7673863,25.6749165 91.5775749,25.6671396 91.3540491,25.6671396 C90.9467806,25.6671396 90.589072,25.7351036 90.2819349,25.8713698 C89.9741234,26.007636 89.720592,26.2000317 89.5210034,26.4482187 C89.3210777,26.6964058 89.1717234,26.9888878 89.0719291,27.3253266 C88.9717977,27.6617655 88.9219006,28.0343842 88.9219006,28.4428446 C88.9219006,28.8354129 88.9758434,29.1718518 89.0837291,29.451823 C89.1916149,29.7324705 89.345352,29.9647655 89.5449406,30.1487079 C89.7445291,30.3333266 89.9781691,30.4692547 90.2458606,30.5575065 C90.513552,30.6457583 90.810912,30.6897151 91.1386149,30.6897151 C91.4019234,30.6897151 91.6574777,30.6697655 91.9052777,30.6295281 C92.1527406,30.5896288 92.3563749,30.5416144 92.5161806,30.4854849 L92.5161806,25.7871755 Z M92.5161806,31.206377 C92.3246834,31.2621683 92.1166663,31.3064633 91.8931406,31.3382475 C91.6696149,31.3703698 91.4299063,31.3866 91.174352,31.3866 C90.7509006,31.3866 90.3517234,31.3382475 89.9761463,31.2422187 C89.6009063,31.1461899 89.2732034,30.9798302 88.9940491,30.7438158 C88.7142206,30.5074633 88.4947406,30.1950317 88.3349349,29.8065209 C88.1751291,29.4180101 88.0952263,28.9354993 88.0952263,28.3586504 C88.0952263,27.8298158 88.1731063,27.3574489 88.3292034,26.9408734 C88.4846263,26.5242978 88.7020834,26.1699381 88.981912,25.8774561 C89.2614034,25.5849741 89.5988834,25.3607942 89.994352,25.2045784 C90.3894834,25.0483626 90.8267577,24.9702547 91.3061749,24.9702547 C91.5297006,24.9702547 91.731312,24.976341 91.9113463,24.9881755 C92.0907063,25.0000101 92.2586034,25.0182691 92.4143634,25.0422763 C92.5701234,25.0662835 92.7198149,25.0943482 92.8637749,25.1264705 C93.0073977,25.1585928 93.1550663,25.1984921 93.3067806,25.2465065 L93.3067806,34.0781108 C93.2589063,34.0858878 93.1908034,34.0919741 93.1031463,34.0960317 C93.015152,34.0997511 92.951432,34.102118 92.9116491,34.102118 C92.8637749,34.102118 92.7976949,34.0997511 92.7137463,34.0960317 C92.6297977,34.0919741 92.5640549,34.0858878 92.5161806,34.0781108 L92.5161806,31.206377 Z" id="Fill-24" fill="#FFFFFF"></path>
        <path d="M97.0447171,25.1143655 C97.0925914,25.1065885 97.1603571,25.1005022 97.2483514,25.0964446 C97.3363457,25.0923871 97.4000657,25.0903583 97.4401857,25.0903583 C97.48806,25.0903583 97.5538029,25.0923871 97.6377514,25.0964446 C97.7217,25.1005022 97.7874429,25.1065885 97.8356543,25.1143655 L97.8356543,28.5629482 C97.8356543,28.9954158 97.8794829,29.3497755 97.96714,29.6263655 C98.0551343,29.9026173 98.1845971,30.118682 98.35654,30.2748978 C98.5281457,30.4314518 98.7378486,30.5393151 98.9856486,30.5995022 C99.2331114,30.6593511 99.5126029,30.6894446 99.8241229,30.6894446 C100.087769,30.6894446 100.323431,30.6755813 100.531111,30.6475165 C100.738791,30.6194518 100.922197,30.5812432 101.08234,30.5332288 L101.08234,25.1143655 C101.130214,25.1065885 101.19798,25.1005022 101.285974,25.0964446 C101.373631,25.0923871 101.437351,25.0903583 101.477471,25.0903583 C101.525683,25.0903583 101.591426,25.0923871 101.675037,25.0964446 C101.758986,25.1005022 101.825066,25.1065885 101.87294,25.1143655 L101.87294,31.0860705 C101.577266,31.1662072 101.247877,31.2362 100.884437,31.2963871 C100.520997,31.356236 100.14778,31.3863295 99.7644486,31.3863295 C99.3888714,31.3863295 99.0355457,31.3504878 98.7041343,31.2781281 C98.3723857,31.2064446 98.0848029,31.0681496 97.8413857,30.8639194 C97.5976314,30.6593511 97.4041114,30.3770129 97.2604886,30.016905 C97.1165286,29.6561209 97.0447171,29.1874734 97.0447171,28.6109626 L97.0447171,25.1143655 Z" id="Fill-26" fill="#FFFFFF"></path>
        <path d="M109.756082,27.637623 C109.756082,27.389436 109.724053,27.1449683 109.660333,26.9048964 C109.596276,26.6644863 109.496482,26.4541698 109.360613,26.2739468 C109.224745,26.0937237 109.049093,25.9473137 108.833659,25.8350547 C108.617887,25.7231338 108.358287,25.6670043 108.054859,25.6670043 C107.495539,25.6670043 107.060287,25.8394504 106.749105,26.1836662 C106.437585,26.5282201 106.249796,27.0127597 106.186076,27.637623 L109.756082,27.637623 Z M106.161802,28.2986662 C106.161802,29.1155871 106.34959,29.716105 106.72483,30.1008964 C107.100407,30.4853496 107.663436,30.6774072 108.414253,30.6774072 C108.717682,30.6774072 108.999196,30.6517094 109.258796,30.5992993 C109.518396,30.5472273 109.771927,30.4772345 110.019727,30.3893209 C110.05951,30.4772345 110.091539,30.585436 110.115476,30.7135871 C110.139413,30.8417381 110.155596,30.9580547 110.16335,31.0618604 C109.931733,31.1663424 109.660333,31.246141 109.348813,31.3022705 C109.037293,31.3584 108.69779,31.3864647 108.330305,31.3864647 C107.80335,31.3864647 107.349893,31.3083568 106.970607,31.152141 C106.590985,30.9959252 106.279465,30.7778317 106.036047,30.4975223 C105.792293,30.2168748 105.612596,29.8828029 105.496956,29.493954 C105.380979,29.1054432 105.323327,28.6790619 105.323327,28.2144719 C105.323327,27.7657741 105.37727,27.345141 105.485156,26.9529108 C105.592705,26.5603424 105.756556,26.2157885 105.976373,25.9192489 C106.195853,25.6230475 106.477367,25.3907525 106.820916,25.222364 C107.164127,25.0543137 107.575779,24.9701194 108.054859,24.9701194 C108.454036,24.9701194 108.809722,25.0384216 109.121242,25.1743496 C109.432762,25.3106158 109.694047,25.5009827 109.905773,25.7451122 C110.117499,25.9895799 110.277305,26.2820619 110.38519,26.6222201 C110.493076,26.9627165 110.546682,27.3333065 110.546682,27.7336518 C110.546682,27.8060115 110.544659,27.8979827 110.54095,28.0102417 C110.536567,28.1225007 110.530499,28.2185295 110.522745,28.2986662 L106.161802,28.2986662 Z" id="Fill-28" fill="#FFFFFF"></path>
        <path d="M113.793401,30.4012906 C113.969053,30.4733122 114.196624,30.5355281 114.476453,30.5876 C114.755607,30.6396719 115.023298,30.6657079 115.27919,30.6657079 C115.75827,30.6657079 116.137555,30.5595353 116.417384,30.3471899 C116.696538,30.1348446 116.836453,29.8724561 116.836453,29.5600245 C116.836453,29.3439597 116.794647,29.1657655 116.710698,29.0254417 C116.62675,28.8854561 116.514818,28.7671108 116.375241,28.671082 C116.235327,28.5750532 116.077544,28.4969453 115.901893,28.4367583 C115.726241,28.3765712 115.546544,28.3146935 115.362801,28.2504489 C115.163213,28.1865424 114.965647,28.1141827 114.769767,28.0343842 C114.573887,27.9542475 114.400258,27.8521324 114.248881,27.7277007 C114.09683,27.6036072 113.975121,27.4534777 113.883418,27.2773122 C113.791378,27.1011468 113.745527,26.8806863 113.745527,26.6162691 C113.745527,26.1276719 113.923201,25.7313842 114.27855,25.4267295 C114.633898,25.1224129 115.183441,24.9702547 115.926167,24.9702547 C116.237687,24.9702547 116.539093,24.9983194 116.830384,25.0544489 C117.122013,25.1105784 117.347561,25.1704273 117.507367,25.2346719 C117.467247,25.4669669 117.411618,25.6952043 117.339807,25.9193842 C117.17191,25.8635928 116.958161,25.8074633 116.698898,25.7513338 C116.439298,25.6952043 116.169584,25.6671396 115.890093,25.6671396 C115.402584,25.6671396 115.05735,25.7533626 114.853715,25.9254705 C114.650081,26.0975784 114.548264,26.3237871 114.548264,26.6044345 C114.548264,26.7565928 114.581978,26.8864345 114.650081,26.994636 C114.717847,27.1028374 114.809887,27.1951468 114.925527,27.2712259 C115.041504,27.347305 115.17299,27.4135784 115.320995,27.4693698 C115.468664,27.5254993 115.626447,27.5775712 115.794344,27.6255856 C116.009778,27.6976072 116.227573,27.7757151 116.44739,27.8599094 C116.666533,27.9441036 116.866458,28.0543338 117.046155,28.1902619 C117.225853,28.3265281 117.373521,28.4989741 117.489498,28.7069237 C117.605138,28.9152115 117.663127,29.1755712 117.663127,29.4880029 C117.663127,29.7764273 117.605138,30.0388158 117.489498,30.2748302 C117.373521,30.5115209 117.21203,30.7116935 117.00435,30.8756863 C116.796333,31.0400173 116.54887,31.1661396 116.261287,31.2543914 C115.974041,31.342305 115.658475,31.3866 115.314927,31.3866 C114.931595,31.3866 114.59007,31.3625928 114.290687,31.3145784 C113.990967,31.266564 113.749573,31.2023194 113.56583,31.1221827 C113.613704,30.8817727 113.689561,30.6413626 113.793401,30.4012906" id="Fill-30" fill="#FFFFFF"></path>
        <path d="M68.6121451,43.077664 C68.7955509,43.1496856 68.9853623,43.2037863 69.1812423,43.2396281 C69.3767851,43.2758079 69.6380709,43.2937288 69.9657737,43.2937288 C70.2772937,43.2937288 70.5726309,43.2440237 70.8524594,43.1435993 C71.1319509,43.0435129 71.375368,42.8852683 71.5833851,42.6692036 C71.790728,42.4528007 71.9545794,42.1785777 72.0746023,41.8458583 C72.194288,41.5138151 72.2542994,41.1151604 72.2542994,40.6505705 C72.2542994,39.9134482 72.116408,39.3369374 71.8409623,38.9203619 C71.5651794,38.5037863 71.1198137,38.2951604 70.5048651,38.2951604 C70.313368,38.2951604 70.105688,38.3276209 69.8821623,38.3915273 C69.6582994,38.4557719 69.4526423,38.565664 69.2651909,38.7218799 C69.0770651,38.8780957 68.9213051,39.0823259 68.7979109,39.3349086 C68.6738423,39.5871532 68.6121451,39.9053331 68.6121451,40.2897863 L68.6121451,43.077664 Z M67.821208,37.7308223 C67.8690823,37.7227072 67.9290937,37.716959 68.0012423,37.7125633 C68.0730537,37.7088439 68.1330651,37.706477 68.1809394,37.706477 C68.2288137,37.706477 68.2888251,37.7088439 68.3602994,37.7125633 C68.432448,37.716959 68.4924594,37.7227072 68.5403337,37.7308223 L68.6121451,38.5717504 C68.7797051,38.3154482 69.0210994,38.0872108 69.3370023,37.8867 C69.6522309,37.6868655 70.0618594,37.586441 70.5648766,37.586441 C70.9401166,37.586441 71.2836651,37.6445993 71.5951851,37.7605777 C71.9067051,37.8768942 72.1723737,38.059146 72.3918537,38.3073331 C72.6116709,38.5558583 72.7832766,38.8682899 72.907008,39.2446281 C73.0307394,39.6213043 73.0927737,40.0737216 73.0927737,40.6025561 C73.0927737,41.1310525 73.0209623,41.6054482 72.8770023,42.0264194 C72.7333794,42.4467144 72.5236766,42.8031029 72.2482309,43.0955849 C71.972448,43.3880669 71.6329451,43.6122468 71.2297223,43.7684626 C70.8264994,43.9246784 70.365288,44.0027863 69.846088,44.0027863 C69.6542537,44.0027863 69.4465737,43.9865561 69.223048,43.9547719 C68.9991851,43.9226496 68.7955509,43.8746353 68.6121451,43.8103906 L68.6121451,46.6942971 C68.5642709,46.7020741 68.496168,46.7081604 68.4085109,46.712218 C68.3205166,46.7162755 68.2564594,46.7183043 68.2166766,46.7183043 C68.1688023,46.7183043 68.1030594,46.7162755 68.0191109,46.712218 C67.9351623,46.7081604 67.8690823,46.7020741 67.821208,46.6942971 L67.821208,37.7308223 Z" id="Fill-32" fill="#FFFFFF"></path>
        <path d="M80.1610749,40.8786727 C80.0252063,40.8627806 79.8556234,40.8448597 79.6519891,40.8245719 C79.4480177,40.8046223 79.2544977,40.7944784 79.0707549,40.7944784 C78.471652,40.7944784 78.0084177,40.9067374 77.681052,41.1312554 C77.3533491,41.3554353 77.1898349,41.675982 77.1898349,42.0922194 C77.1898349,42.3566367 77.2393949,42.568982 77.3395263,42.7292554 C77.4393206,42.8895288 77.5691206,43.0115935 77.7289263,43.0957878 C77.888732,43.1796439 78.0643834,43.2357734 78.2562177,43.2638381 C78.4477149,43.2919029 78.6395491,43.3057662 78.8310463,43.3057662 C79.0788463,43.3057662 79.3104634,43.2939317 79.5258977,43.2699245 C79.7416691,43.2455791 79.9530577,43.213795 80.1610749,43.1738957 L80.1610749,40.8786727 Z M80.1610749,39.8091691 C80.1610749,39.2806727 80.0370063,38.8941906 79.7895434,38.649723 C79.5420806,38.4055935 79.1745949,38.2835288 78.6874234,38.2835288 C78.367812,38.2835288 78.0761834,38.3055072 77.8128749,38.349464 C77.5492291,38.3934209 77.3135663,38.4478597 77.1058863,38.5117662 C77.0657663,38.4397446 77.032052,38.3356007 77.0040691,38.1993345 C76.9760863,38.0630683 76.9622634,37.9349173 76.9622634,37.8145432 C77.1696063,37.7509748 77.4251606,37.696536 77.7289263,37.6525791 C78.0323549,37.6086223 78.3438749,37.5866439 78.6634863,37.5866439 C79.4379034,37.5866439 80.0130691,37.756723 80.3886463,38.0972194 C80.7638863,38.4377158 80.9516749,38.9722986 80.9516749,39.7013058 L80.9516749,43.7504065 C80.6721834,43.806536 80.3326806,43.8626655 79.9335034,43.918795 C79.5339891,43.9745863 79.1547034,44.0026511 78.7953091,44.0026511 C78.0525834,44.0026511 77.4673034,43.8545504 77.0401434,43.5583489 C76.6126463,43.2618094 76.3992349,42.7813273 76.3992349,42.1162266 C76.3992349,41.796018 76.460932,41.5096223 76.5850006,41.2573777 C76.7083949,41.0051331 76.8803377,40.7927878 77.0998177,40.6203417 C77.3196349,40.4482338 77.5832806,40.318054 77.8907549,40.2298022 C78.1982291,40.1418885 78.5357091,40.0975935 78.9031949,40.0975935 C79.1907777,40.0975935 79.4379034,40.1077374 79.6459206,40.1276871 C79.8532634,40.1479748 80.0252063,40.1658957 80.1610749,40.1817878 L80.1610749,39.8091691 Z" id="Fill-34" fill="#FFFFFF"></path>
        <path d="M85.6480411,43.077664 C85.8314469,43.1496856 86.0212583,43.2037863 86.2171383,43.2396281 C86.4126811,43.2758079 86.6739669,43.2937288 87.0016697,43.2937288 C87.3131897,43.2937288 87.6085269,43.2440237 87.8883554,43.1435993 C88.1678469,43.0435129 88.411264,42.8852683 88.6192811,42.6692036 C88.826624,42.4528007 88.9904754,42.1785777 89.1104983,41.8458583 C89.230184,41.5138151 89.2901954,41.1151604 89.2901954,40.6505705 C89.2901954,39.9134482 89.152304,39.3369374 88.8768583,38.9203619 C88.6010754,38.5037863 88.1557097,38.2951604 87.5407611,38.2951604 C87.349264,38.2951604 87.141584,38.3276209 86.9180583,38.3915273 C86.6941954,38.4557719 86.4885383,38.565664 86.3010869,38.7218799 C86.1129611,38.8780957 85.9572011,39.0823259 85.8338069,39.3349086 C85.7097383,39.5871532 85.6480411,39.9053331 85.6480411,40.2897863 L85.6480411,43.077664 Z M84.857104,37.7308223 C84.9049783,37.7227072 84.9649897,37.716959 85.0371383,37.7125633 C85.1089497,37.7088439 85.1689611,37.706477 85.2168354,37.706477 C85.2647097,37.706477 85.3247211,37.7088439 85.3961954,37.7125633 C85.468344,37.716959 85.5283554,37.7227072 85.5762297,37.7308223 L85.6480411,38.5717504 C85.8156011,38.3154482 86.0569954,38.0872108 86.3728983,37.8867 C86.6881269,37.6868655 87.0977554,37.586441 87.6007726,37.586441 C87.9760126,37.586441 88.3195611,37.6445993 88.6310811,37.7605777 C88.9426011,37.8768942 89.2082697,38.059146 89.4277497,38.3073331 C89.6475669,38.5558583 89.8191726,38.8682899 89.942904,39.2446281 C90.0666354,39.6213043 90.1286697,40.0737216 90.1286697,40.6025561 C90.1286697,41.1310525 90.0568583,41.6054482 89.9128983,42.0264194 C89.7692754,42.4467144 89.5595726,42.8031029 89.2841269,43.0955849 C89.008344,43.3880669 88.6688411,43.6122468 88.2656183,43.7684626 C87.8623954,43.9246784 87.401184,44.0027863 86.881984,44.0027863 C86.6901497,44.0027863 86.4824697,43.9865561 86.258944,43.9547719 C86.0350811,43.9226496 85.8314469,43.8746353 85.6480411,43.8103906 L85.6480411,46.6942971 C85.6001669,46.7020741 85.532064,46.7081604 85.4444069,46.712218 C85.3564126,46.7162755 85.2923554,46.7183043 85.2525726,46.7183043 C85.2046983,46.7183043 85.1389554,46.7162755 85.0550069,46.712218 C84.9710583,46.7081604 84.9049783,46.7020741 84.857104,46.6942971 L84.857104,37.7308223 Z" id="Fill-36" fill="#FFFFFF"></path>
        <path d="M93.8066623,36.2287158 C93.7985709,36.1566942 93.7925023,36.0684424 93.7887937,35.9642986 C93.784748,35.8604928 93.7827251,35.7719029 93.7827251,35.7002194 C93.7827251,35.6359748 94.4590337,35.5558381 94.4630794,35.4598094 C94.466788,35.3634424 94.4728566,35.2836439 94.480948,35.2193993 C94.5527594,35.2116223 94.6407537,35.205536 94.7445937,35.2011403 C94.8480966,35.1974209 94.9360909,35.1953921 95.0079023,35.1953921 C95.0719594,35.1953921 95.1518623,35.1974209 95.2476109,35.2011403 C95.3436966,35.205536 95.4232623,35.2116223 95.4873194,35.2193993 C95.4950737,35.2836439 95.5011423,35.3634424 95.505188,35.4598094 C95.5092337,35.5558381 94.8369709,35.6359748 94.8369709,35.7002194 C94.8369709,35.7719029 94.834948,35.8604928 94.8309023,35.9642986 C94.8268566,36.0684424 94.820788,36.1566942 94.8130337,36.2287158 C94.7489766,36.2368309 94.6694109,36.2429173 94.5733251,36.2466367 C94.4775766,36.2506942 94.3976737,36.252723 94.3336166,36.252723 C94.2618051,36.252723 94.1738109,36.2506942 94.070308,36.2466367 C93.966468,36.2429173 93.8784737,36.2368309 93.8066623,36.2287158 L93.8066623,36.2287158 Z M94.2017937,38.4035647 L93.4351309,38.4035647 C93.4273766,38.3633273 93.4209709,38.3153129 93.4172623,38.2591835 C93.4132166,38.2033921 93.4111937,38.143205 93.4111937,38.0789604 C93.4111937,38.015054 93.4132166,37.9511475 93.4172623,37.8869029 C93.4209709,37.8226583 93.4273766,37.7709245 93.4351309,37.7306871 L94.9927309,37.7306871 L94.9927309,43.8586079 C94.9448566,43.8663849 94.8787766,43.8724712 94.7951651,43.8765288 C94.7112166,43.8805863 94.6451366,43.8826151 94.5972623,43.8826151 C94.5574794,43.8826151 94.4934223,43.8805863 94.4057651,43.8765288 C94.3177709,43.8724712 94.2500051,43.8663849 94.2017937,43.8586079 L94.2017937,38.4035647 Z" id="Fill-38" fill="#FFFFFF"></path>
        <path d="M103.115446,40.2539108 C103.115446,40.0057237 103.083418,39.7612561 103.019698,39.5211842 C102.955641,39.2807741 102.855846,39.0704576 102.719978,38.8902345 C102.584109,38.7100115 102.408458,38.5636014 102.193023,38.4513424 C101.977252,38.3394216 101.717652,38.2832921 101.414223,38.2832921 C100.854903,38.2832921 100.419652,38.4557381 100.108469,38.799954 C99.7969491,39.1445079 99.6091606,39.6290475 99.5454406,40.2539108 L103.115446,40.2539108 Z M99.5211663,40.914954 C99.5211663,41.7318748 99.7089549,42.3323928 100.084195,42.7171842 C100.459772,43.1016374 101.022801,43.293695 101.773618,43.293695 C102.077046,43.293695 102.358561,43.2679971 102.618161,43.2155871 C102.877761,43.1635151 103.131292,43.0935223 103.379092,43.0056086 C103.418875,43.0935223 103.450903,43.2017237 103.474841,43.3298748 C103.498778,43.4580259 103.514961,43.5743424 103.522715,43.6781482 C103.291098,43.7826302 103.019698,43.8624288 102.708178,43.9185583 C102.396658,43.9746878 102.057155,44.0027525 101.689669,44.0027525 C101.162715,44.0027525 100.709258,43.9246446 100.329972,43.7684288 C99.9503491,43.6122129 99.6388291,43.3941194 99.395412,43.1138101 C99.1516577,42.8331626 98.9719606,42.4990906 98.8563206,42.1102417 C98.7403434,41.7217309 98.682692,41.2953496 98.682692,40.8307597 C98.682692,40.3820619 98.7366349,39.9614288 98.8445206,39.5691986 C98.9520691,39.1766302 99.1159206,38.8320763 99.3357377,38.5355367 C99.5552177,38.2393353 99.836732,38.0070403 100.180281,37.8386518 C100.523492,37.6706014 100.935143,37.5864072 101.414223,37.5864072 C101.813401,37.5864072 102.169086,37.6547094 102.480606,37.7906374 C102.792126,37.9269036 103.053412,38.1172705 103.265138,38.3614 C103.476863,38.6058676 103.636669,38.8983496 103.744555,39.2385079 C103.852441,39.5790043 103.906046,39.9495942 103.906046,40.3499396 C103.906046,40.4222993 103.904023,40.5142705 103.900315,40.6265295 C103.895932,40.7387885 103.889863,40.8348173 103.882109,40.914954 L99.5211663,40.914954 Z" id="Fill-40" fill="#FFFFFF"></path>
        <path d="M107.560034,37.7306532 C107.623754,37.7228763 107.686126,37.7167899 107.7458,37.7127324 C107.805811,37.7086748 107.863463,37.706646 107.919429,37.706646 C107.983149,37.706646 108.04316,37.7086748 108.099126,37.7127324 C108.155091,37.7167899 108.214766,37.7228763 108.278823,37.7306532 C108.295006,37.8746964 108.306806,38.0451137 108.314897,38.2412288 C108.322651,38.437682 108.326697,38.6158763 108.326697,38.7758115 C108.486503,38.4796101 108.710366,38.2293942 108.997949,38.025164 C109.285194,37.8209338 109.66448,37.7184806 110.135806,37.7184806 L110.261897,37.7184806 C110.305726,37.7184806 110.355623,37.7228763 110.411589,37.7306532 C110.435526,37.8669194 110.447326,37.9950705 110.447326,38.1151065 C110.447326,38.2432576 110.435526,38.3673511 110.411589,38.4877252 C110.347531,38.4796101 110.297634,38.4755525 110.261897,38.4755525 L110.147943,38.4755525 C109.604469,38.4755525 109.169217,38.6479986 108.841851,38.9922144 C108.514486,39.3367683 108.350971,39.9095597 108.350971,40.7105885 L108.350971,43.8585741 C108.303097,43.8663511 108.237017,43.8724374 108.153069,43.876495 C108.06912,43.8805525 108.003377,43.8825813 107.955503,43.8825813 C107.915383,43.8825813 107.851663,43.8805525 107.763669,43.876495 C107.675674,43.8724374 107.607909,43.8663511 107.560034,43.8585741 L107.560034,37.7306532 Z" id="Fill-42" fill="#FFFFFF"></path>
        <path d="M113.370658,43.0175784 C113.546309,43.0896 113.773881,43.1518158 114.053709,43.2038878 C114.332863,43.2559597 114.600555,43.2819957 114.856446,43.2819957 C115.335526,43.2819957 115.714812,43.175823 115.994641,42.9634777 C116.273795,42.7511324 116.413709,42.4887439 116.413709,42.1763122 C116.413709,41.9602475 116.371903,41.7820532 116.287955,41.6417295 C116.204006,41.5017439 116.092075,41.3833986 115.952498,41.2873698 C115.812583,41.191341 115.654801,41.1132331 115.479149,41.053046 C115.303498,40.992859 115.123801,40.9309813 114.940058,40.8667367 C114.740469,40.8028302 114.542903,40.7304705 114.347023,40.6506719 C114.151143,40.5705353 113.977515,40.4684201 113.826138,40.3439885 C113.674086,40.219895 113.552378,40.0697655 113.460675,39.8936 C113.368635,39.7174345 113.322783,39.4969741 113.322783,39.2325568 C113.322783,38.7439597 113.500458,38.3476719 113.855806,38.0430173 C114.211155,37.7387007 114.760698,37.5865424 115.503423,37.5865424 C115.814943,37.5865424 116.116349,37.6146072 116.407641,37.6707367 C116.699269,37.7268662 116.924818,37.7867151 117.084623,37.8509597 C117.044503,38.0832547 116.988875,38.3114921 116.917063,38.5356719 C116.749166,38.4798806 116.535418,38.4237511 116.276155,38.3676216 C116.016555,38.3114921 115.746841,38.2834273 115.467349,38.2834273 C114.979841,38.2834273 114.634606,38.3696504 114.430972,38.5417583 C114.227338,38.7138662 114.125521,38.9400748 114.125521,39.2207223 C114.125521,39.3728806 114.159235,39.5027223 114.227338,39.6109237 C114.295103,39.7191252 114.387143,39.8114345 114.502783,39.8875137 C114.618761,39.9635928 114.750246,40.0298662 114.898252,40.0856576 C115.045921,40.1417871 115.203703,40.193859 115.371601,40.2418734 C115.587035,40.313895 115.804829,40.3920029 116.024646,40.4761971 C116.243789,40.5603914 116.443715,40.6706216 116.623412,40.8065496 C116.803109,40.9428158 116.950778,41.1152619 117.066755,41.3232115 C117.182395,41.5314993 117.240383,41.791859 117.240383,42.1042906 C117.240383,42.3927151 117.182395,42.6551036 117.066755,42.891118 C116.950778,43.1278086 116.789286,43.3279813 116.581606,43.4919741 C116.373589,43.656305 116.126126,43.7824273 115.838543,43.8706791 C115.551298,43.9585928 115.235732,44.0028878 114.892183,44.0028878 C114.508852,44.0028878 114.167326,43.9788806 113.867943,43.9308662 C113.568223,43.8828518 113.326829,43.8186072 113.143086,43.7384705 C113.190961,43.4980604 113.266818,43.2576504 113.370658,43.0175784" id="Fill-44" fill="#FFFFFF"></path>
        <g id="Group-48" transform="translate(0.000000, 0.056468)" fill="#3F60FF">
            <path d="M32.1980531,0.335728777 L10.6853046,0.479095683 C4.74484743,0.518994964 -0.0388725714,5.37250576 0.000236000001,11.3188511 L0.143521714,32.8533043 C0.185327429,38.7999878 5.031756,43.5879014 10.9725503,43.5459734 L19.5572189,43.4881532 L19.5572189,30.5340741 C19.5154131,24.5873906 24.4919789,20.0358295 30.432436,19.9969446 L43.0847331,19.9766568 L43.0274189,11.0283978 C42.987636,5.08205252 38.1388474,0.29346259 32.1980531,0.335728777" id="Fill-46"></path>
        </g>
        <path d="M32.116768,23.8872597 C27.054568,23.8872597 23.4609623,26.6524827 23.4609623,32.7705978 L23.4609623,39.6812885 L39.1418137,23.9295259 L39.1418137,23.8872597 L32.116768,23.8872597 Z" id="Fill-49" fill="#D0021B"></path>
        <path d="M52.9761337,40.3818928 C52.6460709,40.3886554 52.316008,40.4309216 51.9859451,40.5086914 C51.6558823,40.5864612 51.3588594,40.6963532 51.0945394,40.8383676 C50.8305566,40.980382 50.6188309,41.1460655 50.4593623,41.335418 C50.2998937,41.5247705 50.2199909,41.7344108 50.2199909,41.9643388 C50.2199909,42.2145547 50.3025909,42.4360295 50.4677909,42.6287633 C50.6326537,42.8214971 50.8497737,42.9837993 51.119488,43.1156698 C51.3888651,43.2475403 51.702408,43.3472885 52.0601166,43.4149144 C52.417488,43.4825403 52.7890194,43.5163532 53.1740366,43.5163532 C53.4491451,43.5163532 53.727288,43.4960655 54.0077909,43.4554899 C54.2882937,43.4149144 54.5495794,43.359123 54.791648,43.2881158 C55.0337166,43.2171086 55.2538709,43.1325763 55.4517737,43.0345187 C55.6500137,42.9364612 55.8091451,42.8299504 55.9305166,42.7149863 C55.4682937,42.3565691 54.975728,41.9727921 54.4531566,41.5636554 C53.9305851,41.1545187 53.4383566,40.7605978 52.9761337,40.3818928 L52.9761337,40.3818928 Z M58.6866594,43.9829719 L57.5973509,43.9829719 C57.5862251,43.9829719 57.4790137,43.9068928 57.2753794,43.7547345 C57.0717451,43.6025763 56.8104594,43.4013892 56.4915223,43.1511734 C56.1503337,43.421677 55.6854137,43.6414612 55.0970994,43.8105259 C54.5081109,43.9795906 53.8510194,44.064123 53.1248137,44.064123 C52.5634709,44.064123 52.0489909,44.0117129 51.5817109,43.9068928 C51.1137566,43.8020727 50.7095223,43.6549863 50.3686709,43.4656338 C50.0274823,43.2762813 49.7634994,43.0564971 49.5763851,42.8062813 C49.3892709,42.5560655 49.2955451,42.2821806 49.2955451,41.9846266 C49.2955451,41.714123 49.375448,41.4605259 49.5349166,41.2238353 C49.6943851,40.9871446 49.9118423,40.7775043 50.1869509,40.5949144 C50.4617223,40.4123245 50.7863909,40.2584755 51.1606194,40.1333676 C51.534848,40.0082597 51.9306537,39.9186554 52.349048,39.8645547 C52.0958537,39.6549144 51.8810937,39.4723245 51.7054423,39.3167849 C51.5291166,39.1612453 51.4084194,39.0429 51.3423394,38.9617489 C51.187928,38.779159 51.0561051,38.6033317 50.9461966,38.4342669 C50.8359509,38.2652022 50.7809966,38.0724683 50.7809966,37.8560655 C50.7809966,37.6261374 50.8555051,37.4164971 51.003848,37.2271446 C51.152528,37.0377921 51.3504309,36.8771806 51.5982309,36.7453101 C51.8456937,36.6134396 52.134288,36.5120007 52.4643509,36.4409935 C52.7947509,36.3699863 53.146728,36.3344827 53.5209566,36.3344827 C54.0047566,36.3277201 54.4504594,36.3699863 54.857728,36.4612813 C55.2646594,36.5525763 55.5947223,36.6489432 55.8479166,36.750382 C55.8479166,36.7571446 55.822968,36.7825043 55.7737451,36.8264612 C55.7241851,36.870418 55.6688937,36.9177561 55.6085451,36.9684755 C55.5478594,37.019195 55.4929051,37.0648424 55.4433451,37.105418 C55.3941223,37.1459935 55.3691737,37.1696626 55.3691737,37.1764252 C55.1490194,37.1020367 54.9180766,37.0361014 54.676008,36.9786194 C54.4339394,36.9211374 54.1699566,36.8856338 53.8837223,36.8721086 C53.6086137,36.865346 53.3446309,36.8822525 53.0917737,36.9228281 C52.8385794,36.9634036 52.6130309,37.0276482 52.415128,37.1155619 C52.2172251,37.2034755 52.0574194,37.3133676 51.9363851,37.4452381 C51.8153509,37.5771086 51.7546651,37.7309576 51.7546651,37.9067849 C51.7546651,38.0149863 51.7769166,38.1181158 51.8207451,38.2161734 C51.8649109,38.3142309 51.9117737,38.4021446 51.9613337,38.4799144 C52.0105566,38.5576842 52.0574194,38.6219288 52.1015851,38.6726482 C52.1454137,38.7233676 52.1730594,38.7521086 52.183848,38.7588712 L56.3428423,42.1063532 L57.7622137,39.8239791 L58.7358823,39.8239791 L56.9867851,42.6135475 L58.6866594,43.9829719 Z" id="Fill-51" fill="#FFFFFF"></path>
    </g>
</svg>