
<svg width="172px" height="68px" viewBox="121 15 172 68" version="1.1" xmlns="http://www.w3.org/2000/svg" xmlns:xlink="http://www.w3.org/1999/xlink">
    <!-- Generator: Sketch 42 (36781) - http://www.bohemiancoding.com/sketch -->
    <desc>Created with Sketch.</desc>
    <defs>
        <polygon id="path-1" points="16.5979929 0.407510791 0.000244285714 0.407510791 0.000244285714 23.6677669 16.5979929 23.6677669 16.5979929 0.407510791"></polygon>
    </defs>
    <g id="Page-1" stroke="none" stroke-width="1" fill="none" fill-rule="evenodd" transform="translate(122.000000, 15.000000)">
        <path d="M77.281056,23.4363712 C77.0494731,23.5063281 76.6845103,23.5757957 76.1871446,23.6452633 C75.6892903,23.7147309 75.174336,23.7494647 74.6422817,23.7494647 C74.1327017,23.7494647 73.6753989,23.7147309 73.2703731,23.6452633 C72.8653474,23.5757957 72.523836,23.4363712 72.2463274,23.2279683 C71.9683303,23.0190763 71.7538474,22.7358245 71.603856,22.3762561 C71.4528874,22.017177 71.378136,21.5475367 71.378136,20.9678245 L71.378136,10.5374072 C71.378136,10.0041698 71.4763389,9.5462705 71.6732331,9.16419856 C71.8696389,8.78163741 72.1534989,8.43968058 72.523836,8.13832806 C72.8941731,7.83746475 73.351476,7.56448633 73.895256,7.32134964 C74.439036,7.07821295 75.023856,6.86393957 75.6492274,6.67804029 C76.2741103,6.49263022 76.921956,6.34782446 77.5937417,6.24313381 C78.2645503,6.13942158 78.9358474,6.08707626 79.6076331,6.08707626 C80.7186446,6.08707626 81.5980731,6.30183885 82.2464074,6.73038561 C82.8942531,7.15942158 83.2186646,7.86045755 83.2186646,8.83349353 C83.2186646,9.15832806 83.1722503,9.47680288 83.0799103,9.7898964 C82.9870817,10.1029899 82.8712903,10.3867309 82.732536,10.6416086 C82.2464074,10.6416086 81.7485531,10.6650906 81.2394617,10.7110763 C80.7298817,10.7575511 80.232516,10.8275079 79.7463874,10.9199683 C79.2602589,11.0124288 78.802956,11.1112489 78.3749674,11.2154504 C77.9460017,11.3196518 77.5815274,11.4414647 77.281056,11.5804 L77.281056,23.4363712 Z" id="Fill-1" fill="#FFFFFF"></path>
        <g id="Group-5" transform="translate(87.454286, 0.081698)">
            <mask id="mask-2" fill="white">
                <use xlink:href="#path-1"></use>
            </mask>
            <g id="Clip-4"></g>
            <path d="M16.5979929,23.3546734 C16.36641,23.4246302 16.0019357,23.4940978 15.5040814,23.5635655 C15.0062271,23.6330331 14.4912729,23.6677669 13.9592186,23.6677669 C13.4496386,23.6677669 12.9923357,23.6330331 12.5877986,23.5635655 C12.1822843,23.4940978 11.8412614,23.3546734 11.5632643,23.1462705 C11.2852671,22.9373784 11.0707843,22.6541266 10.9207929,22.2945583 C10.7698243,21.9354791 10.6950729,21.4658388 10.6950729,20.8861266 L10.6950729,13.1673928 C10.6950729,12.2173496 10.4576271,11.5510475 9.98322429,11.1684863 C9.50882143,10.7859252 8.92400143,10.5946446 8.22974143,10.5946446 C7.76657571,10.5946446 7.32686143,10.6528604 6.91011,10.7683137 C6.49335857,10.8847453 6.15771,11.0236806 5.90316429,11.1856086 L5.90316429,23.3546734 C5.67158143,23.4246302 5.30710714,23.4940978 4.80974143,23.5635655 C4.31139857,23.6330331 3.79644429,23.6677669 3.26439,23.6677669 C2.75481,23.6677669 2.29750714,23.6330331 1.89297,23.5635655 C1.48745571,23.4940978 1.14643286,23.3546734 0.868435714,23.1462705 C0.590438571,22.9373784 0.376444286,22.6541266 0.225964286,22.2945583 C0.0754842857,21.9354791 0.000244285714,21.4658388 0.000244285714,20.8861266 L0.000244285714,0.720457554 C0.25479,0.674471942 0.63099,0.61087482 1.12884429,0.529176978 C1.62621,0.448457554 2.12992714,0.407364029 2.63950714,0.407364029 C3.14811,0.407364029 3.60541286,0.44258705 4.01092714,0.512054676 C4.41546429,0.581522302 4.75746429,0.720457554 5.03497286,0.928860432 C5.31297,1.13775252 5.52696429,1.42198273 5.67744429,1.78106187 C5.82792429,2.14063022 5.90316429,2.60978129 5.90316429,3.18900432 L5.90316429,6.59634245 C6.20412429,6.4804 6.66142714,6.34733525 7.27458429,6.19665899 C7.88774143,6.04598273 8.56539,5.9706446 9.30606429,5.9706446 C11.5979529,5.9706446 13.3861243,6.54399712 14.6710671,7.69168058 C15.95601,8.83887482 16.5979929,10.548659 16.5979929,12.8200547 L16.5979929,23.3546734 Z" id="Fill-3" fill="#FFFFFF" mask="url(#mask-2)"></path>
        </g>
        <path d="M117.386126,10.3634446 C116.83062,10.3634446 116.349866,10.4563942 115.94484,10.6418043 C115.539814,10.8277036 115.20954,11.0649698 114.955483,11.3545813 C114.700449,11.644682 114.509417,11.9690273 114.382389,12.3281065 C114.254871,12.6876748 114.179631,13.0526245 114.156669,13.4229554 L120.094277,12.4499194 C120.0249,11.9861496 119.769866,11.5228691 119.33064,11.0586101 C118.890437,10.5953295 118.242103,10.3634446 117.386126,10.3634446 M118.358383,24.0275309 C116.991849,24.0275309 115.724983,23.8362504 114.55632,23.4536892 C113.38668,23.0716173 112.368497,22.4977755 111.500306,21.7326532 C110.632114,20.9680201 109.949091,20.006236 109.451726,18.8468115 C108.953871,17.6883655 108.705189,16.3322791 108.705189,14.7790417 C108.705189,13.2492863 108.953871,11.9338043 109.451726,10.8325957 C109.949091,9.73236547 110.603289,8.82830791 111.41334,8.12091223 C112.22388,7.41400576 113.149723,6.89250935 114.191357,6.55642302 C115.232991,6.2208259 116.297589,6.05204892 117.386126,6.05204892 C118.612929,6.05204892 119.729803,6.2379482 120.736749,6.60876835 C121.743694,6.97958849 122.611886,7.48934388 123.340834,8.13852374 C124.070271,8.7877036 124.637014,9.5640777 125.042529,10.467646 C125.447554,11.3717036 125.650311,12.357459 125.650311,13.4229554 C125.650311,14.2115597 125.429966,14.8137755 124.990251,15.2310705 C124.550537,15.6483655 123.936891,15.9149842 123.149803,16.0309266 L114.57342,17.3170561 C114.827966,18.0821784 115.348783,18.6560201 116.135871,19.0380921 C116.922471,19.4206532 117.825351,19.6119338 118.844511,19.6119338 C119.793317,19.6119338 120.690334,19.4901209 121.535563,19.2469842 C122.380303,19.0033583 123.0687,18.7201065 123.601731,18.3947827 C123.97158,18.6271568 124.284266,18.9515022 124.5393,19.3687971 C124.793357,19.7856029 124.920874,20.2263799 124.920874,20.6896604 C124.920874,21.7326532 124.434746,22.5100058 123.462489,23.0192719 C122.721326,23.4135741 121.887823,23.6797036 120.962469,23.8191281 C120.036137,23.9580633 119.167946,24.0275309 118.358383,24.0275309" id="Fill-6" fill="#FFFFFF"></path>
        <path d="M140.928184,12.7626705 C140.928184,12.0445122 140.725427,11.5171453 140.320401,11.1805698 C139.915376,10.8449727 139.365733,10.6761957 138.670984,10.6761957 C138.207819,10.6761957 137.751004,10.7344115 137.299564,10.850354 C136.848124,10.9667856 136.460199,11.1404547 136.136276,11.3718504 L136.136276,23.4362245 C135.904693,23.5061813 135.540219,23.5756489 135.042853,23.6451165 C134.54451,23.7145842 134.029556,23.749318 133.497501,23.749318 C132.987921,23.749318 132.530619,23.7145842 132.125593,23.6451165 C131.720567,23.5756489 131.379544,23.4362245 131.101547,23.2278216 C130.82355,23.0194187 130.609556,22.7356777 130.459076,22.3761094 C130.308596,22.0170302 130.233356,21.5478791 130.233356,20.9676777 L130.233356,10.5372604 C130.233356,9.91156259 130.366247,9.40180719 130.633007,9.00750504 C130.89879,8.61369209 131.263264,8.25461295 131.726919,7.92977842 C132.51303,7.3735482 133.502876,6.92151942 134.695479,6.57369209 C135.887593,6.22635396 137.213087,6.05219568 138.670984,6.05219568 C141.286796,6.05219568 143.300687,6.62603741 144.713147,7.77323165 C146.12463,8.9204259 146.831104,10.5147568 146.831104,12.5537784 L146.831104,23.4362245 C146.599521,23.5061813 146.235047,23.5756489 145.737193,23.6451165 C145.239339,23.7145842 144.724384,23.749318 144.19233,23.749318 C143.68275,23.749318 143.225447,23.7145842 142.82091,23.6451165 C142.415396,23.5756489 142.073884,23.4362245 141.796376,23.2278216 C141.518379,23.0194187 141.304384,22.7356777 141.153904,22.3761094 C141.002936,22.0170302 140.928184,21.5478791 140.928184,20.9676777 L140.928184,12.7626705 Z" id="Fill-8" fill="#FFFFFF"></path>
        <path d="M157.525542,15.0226187 C157.525542,16.4364317 157.797676,17.520518 158.341456,18.2734101 C158.885236,19.0267914 159.643499,19.403482 160.616245,19.403482 C161.588013,19.403482 162.335039,19.0209209 162.855856,18.2557986 C163.376673,17.4911655 163.637082,16.4134388 163.637082,15.0226187 C163.637082,13.6317986 163.370322,12.5599424 162.838268,11.8065612 C162.305725,11.0536691 161.553813,10.6764892 160.581068,10.6764892 C159.609299,10.6764892 158.856411,11.0536691 158.324356,11.8065612 C157.791325,12.5599424 157.525542,13.6317986 157.525542,15.0226187 M169.678756,15.0226187 C169.678756,16.4599137 169.458411,17.7406619 169.019185,18.8643741 C168.578982,19.9890647 167.959962,20.9332374 167.161636,21.6983597 C166.362822,22.4629928 165.407665,23.042705 164.296653,23.436518 C163.185642,23.8303309 161.946625,24.027482 160.581068,24.027482 C159.215022,24.027482 157.976982,23.8190791 156.865971,23.4017842 C155.754471,22.9844892 154.799802,22.3881439 154.001476,21.6112806 C153.202662,20.8349065 152.583153,19.8902446 152.143439,18.777295 C151.703236,17.6648345 151.483868,16.4134388 151.483868,15.0226187 C151.483868,13.6552806 151.703236,12.4146475 152.143439,11.3021871 C152.583153,10.1897266 153.202662,9.24555396 154.001476,8.46869065 C154.799802,7.69231655 155.754471,7.09499281 156.865971,6.67818705 C157.976982,6.26089209 159.215022,6.05248921 160.581068,6.05248921 C161.946625,6.05248921 163.185642,6.26676259 164.296653,6.69530935 C165.407665,7.12434532 166.362822,7.72705036 167.161636,8.50342446 C167.959962,9.28028777 168.578982,10.2244604 169.019185,11.3369209 C169.458411,12.4498705 169.678756,13.6782734 169.678756,15.0226187" id="Fill-10" fill="#FFFFFF"></path>
        <path d="M72.2462297,44.0717784 C72.5120126,44.1759799 72.7870783,44.2542532 73.0709383,44.3061094 C73.3543097,44.3584547 73.7329526,44.3843827 74.207844,44.3843827 C74.659284,44.3843827 75.0872726,44.3124691 75.4927869,44.1671741 C75.8978126,44.0223683 76.2505611,43.7934187 76.5520097,43.4808144 C76.8524811,43.1677209 77.0899269,42.7709727 77.2638583,42.2895914 C77.4373011,41.8091885 77.5242669,41.2324115 77.5242669,40.5602388 C77.5242669,39.493764 77.3244411,38.6596633 76.9252783,38.0569583 C76.5256269,37.4542532 75.880224,37.1524115 74.9890697,37.1524115 C74.7115611,37.1524115 74.4106011,37.1993755 74.0866783,37.291836 C73.7622669,37.3847856 73.4642383,37.5437784 73.1925926,37.7697928 C72.9199697,37.9958072 72.6942497,38.2912892 72.5154326,38.6567281 C72.3356383,39.0216777 72.2462297,39.482023 72.2462297,40.0382532 L72.2462297,44.0717784 Z M71.1000411,36.3359223 C71.1694183,36.3241813 71.256384,36.3158647 71.3609383,36.309505 C71.465004,36.3041237 71.5519697,36.3006993 71.6213469,36.3006993 C71.690724,36.3006993 71.7776897,36.3041237 71.8812669,36.309505 C71.9858211,36.3158647 72.0727869,36.3241813 72.142164,36.3359223 L72.2462297,37.5525842 C72.4890497,37.181764 72.8388669,36.8515482 73.2966583,36.5614475 C73.7534726,36.2723252 74.3470869,36.1270302 75.0760354,36.1270302 C75.6198154,36.1270302 76.1176697,36.2111741 76.5691097,36.3789727 C77.0205497,36.5472604 77.405544,36.8109439 77.723604,37.170023 C78.0421526,37.5295914 78.2908354,37.9816201 78.4701411,38.5261094 C78.6494469,39.0710878 78.739344,39.7256489 78.739344,40.4907712 C78.739344,41.2554043 78.6352783,41.941764 78.4266583,42.5508288 C78.2185269,43.1589151 77.9146354,43.674541 77.5154726,44.0977065 C77.1158211,44.5208719 76.6238297,44.8452173 76.0394983,45.0712317 C75.4551669,45.297246 74.7868011,45.4102532 74.0344011,45.4102532 C73.756404,45.4102532 73.455444,45.3867712 73.1315211,45.3407856 C72.8071097,45.2943108 72.5120126,45.2248432 72.2462297,45.1318935 L72.2462297,49.304354 C72.1768526,49.3156058 72.0781611,49.3244115 71.9511326,49.330282 C71.8236154,49.3361525 71.7307869,49.3390878 71.6731354,49.3390878 C71.6037583,49.3390878 71.5084869,49.3361525 71.3868326,49.330282 C71.2651783,49.3244115 71.1694183,49.3156058 71.1000411,49.304354 L71.1000411,36.3359223 Z" id="Fill-12" fill="#FFFFFF"></path>
        <path d="M83.7565329,32.4241612 C83.82591,32.4129094 83.92167,32.4041036 84.0428357,32.3982331 C84.16449,32.3923626 84.26025,32.3894273 84.3296271,32.3894273 C84.3872786,32.3894273 84.4796186,32.3923626 84.6071357,32.3982331 C84.7346529,32.4041036 84.8333443,32.4129094 84.9027214,32.4241612 L84.9027214,43.1500604 C84.9027214,43.4519022 84.93741,43.6862331 85.0067871,43.8545209 C85.0761643,44.0223194 85.1626414,44.1441324 85.2671957,44.2194705 C85.3712614,44.2948086 85.4870529,44.3412835 85.6140814,44.3584058 C85.7415986,44.3760173 85.85739,44.3843338 85.9614557,44.3843338 C86.0884843,44.3843338 86.2218643,44.3760173 86.3611071,44.3584058 C86.4998614,44.3412835 86.6151643,44.3207367 86.7079929,44.2977439 C86.7661329,44.4366791 86.8061957,44.5873554 86.8296471,44.7497727 C86.85261,44.9121899 86.8701986,45.062377 86.8814357,45.2018014 C86.71923,45.2595281 86.5369929,45.3001324 86.3347243,45.3231252 C86.1319671,45.3466072 85.9443557,45.357859 85.7704243,45.357859 C85.5276043,45.357859 85.2842957,45.3319309 85.0414757,45.2795856 C84.7981671,45.2277295 84.5812414,45.1293986 84.39021,44.9841036 C84.1991786,44.8392978 84.0457671,44.642636 83.9299757,44.3931396 C83.8146729,44.1441324 83.7565329,43.8168518 83.7565329,43.4108086 L83.7565329,32.4241612 Z" id="Fill-14" fill="#FFFFFF"></path>
        <path d="M95.9097471,40.890259 C95.7128529,40.8672662 95.4671014,40.8413381 95.1720043,40.8119856 C94.8764186,40.7831223 94.5959786,40.768446 94.3297071,40.768446 C93.4615157,40.768446 92.7902186,40.9308633 92.3158157,41.2556978 C91.8409243,41.5800432 91.6039671,42.0438129 91.6039671,42.6460288 C91.6039671,43.0285899 91.6757871,43.3358129 91.8208929,43.5676978 C91.96551,43.7995827 92.15361,43.9761871 92.3851929,44.098 C92.6167757,44.2193237 92.8713214,44.3005324 93.1493186,44.3411367 C93.4268271,44.381741 93.7048243,44.4017986 93.9823329,44.4017986 C94.3414329,44.4017986 94.6770814,44.3846763 94.9892786,44.3499424 C95.3019643,44.3147194 95.6082986,44.2687338 95.9097471,44.2110072 L95.9097471,40.890259 Z M95.9097471,39.3428921 C95.9097471,38.578259 95.7299529,38.0190935 95.3713414,37.6653957 C95.01273,37.3121871 94.4801871,37.1355827 93.7742014,37.1355827 C93.3110357,37.1355827 92.8884214,37.1673813 92.5068471,37.2309784 C92.1247843,37.2945755 91.7832729,37.3733381 91.4823129,37.4657986 C91.4241729,37.3615971 91.3753157,37.2109209 91.3347643,37.0137698 C91.2942129,36.8166187 91.2741814,36.6312086 91.2741814,36.4570504 C91.5746529,36.3650791 91.94499,36.2863165 92.3851929,36.2227194 C92.8249071,36.1591223 93.2763471,36.1273237 93.7395129,36.1273237 C94.8617614,36.1273237 95.6952643,36.3733957 96.2395329,36.8660288 C96.7833129,37.3586619 97.0554471,38.1321007 97.0554471,39.1868345 L97.0554471,45.0451079 C96.6504214,45.1263165 96.15843,45.2075252 95.5799614,45.2887338 C95.0010043,45.3694532 94.4513614,45.4100576 93.9305443,45.4100576 C92.8542214,45.4100576 92.0060614,45.1957842 91.3870414,44.7672374 C90.7675329,44.3382014 90.4582671,43.643036 90.4582671,42.6807626 C90.4582671,42.217482 90.5476757,41.8031223 90.72747,41.4381727 C90.9062871,41.073223 91.1554586,40.766 91.4735186,40.5165036 C91.7920671,40.2674964 92.17413,40.0791511 92.6197071,39.9514676 C93.0652843,39.8242734 93.5543443,39.7601871 94.0868871,39.7601871 C94.5036386,39.7601871 94.8617614,39.7748633 95.16321,39.8037266 C95.4636814,39.8330791 95.7128529,39.8590072 95.9097471,39.882 L95.9097471,39.3428921 Z" id="Fill-16" fill="#FFFFFF"></path>
        <path d="M102.124718,43.984846 C102.379263,44.0890475 102.709049,44.1790619 103.114563,44.2544 C103.519101,44.3297381 103.907026,44.3674072 104.277852,44.3674072 C104.972112,44.3674072 105.521755,44.2137957 105.927269,43.9065727 C106.331806,43.5993496 106.534563,43.2197237 106.534563,42.767695 C106.534563,42.4550906 106.473981,42.1972777 106.352326,41.9942561 C106.230672,41.7917237 106.068466,41.6205007 105.866198,41.4815655 C105.663441,41.3426302 105.434789,41.229623 105.180243,41.1425439 C104.925698,41.0554647 104.665289,40.9659396 104.399018,40.8729899 C104.109783,40.7805295 103.823481,40.6758388 103.539621,40.5603856 C103.255761,40.4444432 103.004146,40.2967022 102.784778,40.1166734 C102.564432,39.9371338 102.388058,39.7199252 102.255166,39.4650475 C102.121786,39.2101698 102.055341,38.8912058 102.055341,38.5086446 C102.055341,37.8017381 102.312818,37.2283856 102.827772,36.7876086 C103.342726,36.3473209 104.139098,36.127177 105.215421,36.127177 C105.666861,36.127177 106.103643,36.1677813 106.525769,36.2489899 C106.948383,36.3301986 107.275238,36.4167885 107.506821,36.5097381 C107.448681,36.8458245 107.368066,37.1760403 107.264001,37.5003856 C107.020692,37.4196662 106.710938,37.3384576 106.335226,37.2572489 C105.959026,37.1760403 105.568169,37.135436 105.163143,37.135436 C104.456669,37.135436 103.956372,37.2601842 103.661275,37.5091914 C103.366178,37.7581986 103.218629,38.0854791 103.218629,38.4915223 C103.218629,38.7116662 103.267486,38.8995223 103.366178,39.0560691 C103.464381,39.2126158 103.597761,39.3461698 103.765341,39.4562417 C103.933409,39.5663137 104.123952,39.6621986 104.338435,39.742918 C104.552429,39.8241266 104.781081,39.8994647 105.024389,39.9689324 C105.336586,40.0731338 105.652203,40.186141 105.970752,40.307954 C106.288323,40.4297669 106.578046,40.5892489 106.838455,40.7859108 C107.098863,40.9830619 107.312858,41.2325583 107.480926,41.5334216 C107.648506,41.8347741 107.732541,42.2114647 107.732541,42.6634935 C107.732541,43.0807885 107.648506,43.4604144 107.480926,43.801882 C107.312858,44.1443281 107.078832,44.4339396 106.777872,44.6712058 C106.476423,44.9089612 106.117812,45.091436 105.701061,45.2191194 C105.284798,45.3463137 104.827495,45.4104 104.329641,45.4104 C103.774135,45.4104 103.279212,45.3756662 102.845361,45.3061986 C102.411021,45.2367309 102.061203,45.1437813 101.794932,45.0278388 C101.864309,44.6800115 101.974238,44.3321842 102.124718,43.984846" id="Fill-18" fill="#FFFFFF"></path>
        <path d="M113.045266,37.309105 L111.535092,37.309105 C111.523366,37.2513784 111.514572,37.1760403 111.508709,37.0830906 C111.502846,36.9906302 111.499915,36.8981698 111.499915,36.8052201 C111.499915,36.7122705 111.502846,36.6256806 111.508709,36.5444719 C111.514572,36.4632633 111.523366,36.3937957 111.535092,36.3355799 L113.045266,36.3355799 L113.045266,34.6668892 L114.121589,33.6062849 L114.190966,33.6062849 L114.190966,36.3355799 L116.587409,36.3355799 C116.598158,36.3937957 116.607441,36.4632633 116.613303,36.5444719 C116.618678,36.6256806 116.621609,36.7122705 116.621609,36.8052201 C116.621609,36.8981698 116.618678,36.9906302 116.613303,37.0830906 C116.607441,37.1760403 116.598158,37.2513784 116.587409,37.309105 L114.190966,37.309105 L114.190966,43.0807885 C114.190966,43.3708892 114.228586,43.5993496 114.304315,43.7676374 C114.379066,43.935436 114.477758,44.0660547 114.599412,44.1585151 C114.720578,44.2514647 114.859332,44.3121266 115.015675,44.3414791 C115.172018,44.3703424 115.331292,44.3845295 115.493498,44.3845295 C115.898035,44.3845295 116.251272,44.3321842 116.552232,44.2284719 C116.633335,44.5298245 116.690986,44.8536806 116.726163,45.2015079 C116.309412,45.3291914 115.823283,45.3927885 115.267778,45.3927885 C114.607718,45.3927885 114.072243,45.2161842 113.661843,44.8624863 C113.250466,44.5092777 113.045266,43.9325007 113.045266,43.1331338 L113.045266,37.309105 Z" id="Fill-20" fill="#FFFFFF"></path>
        <path d="M120.927291,34.1626619 C120.915566,34.0584604 120.906771,33.930777 120.901397,33.7801007 C120.895534,33.6299137 120.892603,33.501741 120.892603,33.3980288 C120.892603,33.3050791 120.895534,33.1891367 120.901397,33.0502014 C120.906771,32.910777 120.915566,32.7953237 120.927291,32.7023741 C121.031357,32.6911223 121.158874,32.6823165 121.309354,32.6759568 C121.459346,32.6705755 121.586863,32.6676403 121.690929,32.6676403 C121.783757,32.6676403 121.899549,32.6705755 122.038303,32.6759568 C122.177546,32.6823165 122.292849,32.6911223 122.385677,32.7023741 C122.396914,32.7953237 122.405709,32.910777 122.411571,33.0502014 C122.417434,33.1891367 122.420366,33.3050791 122.420366,33.3980288 C122.420366,33.501741 122.417434,33.6299137 122.411571,33.7801007 C122.405709,33.930777 122.396914,34.0584604 122.385677,34.1626619 C122.292849,34.1744029 122.177546,34.1832086 122.038303,34.1885899 C121.899549,34.1944604 121.783757,34.1973957 121.690929,34.1973957 C121.586863,34.1973957 121.459346,34.1944604 121.309354,34.1885899 C121.158874,34.1832086 121.031357,34.1744029 120.927291,34.1626619 L120.927291,34.1626619 Z M121.499897,37.3092518 L120.388886,37.3092518 C120.377649,37.251036 120.368366,37.1815683 120.362991,37.1003597 C120.357129,37.0196403 120.354197,36.9325612 120.354197,36.8396115 C120.354197,36.7471511 120.357129,36.6546906 120.362991,36.561741 C120.368366,36.4687914 120.377649,36.3939424 120.388886,36.3357266 L122.646086,36.3357266 L122.646086,45.2016547 C122.576709,45.2129065 122.480949,45.2217122 122.359783,45.2275827 C122.238129,45.2334532 122.142369,45.2363885 122.072991,45.2363885 C122.01534,45.2363885 121.922511,45.2334532 121.795483,45.2275827 C121.667966,45.2217122 121.569763,45.2129065 121.499897,45.2016547 L121.499897,37.3092518 Z" id="Fill-22" fill="#FFFFFF"></path>
        <path d="M134.070058,37.309105 C133.722684,37.2396374 133.436381,37.1936518 133.210661,37.1701698 C132.984941,37.1466878 132.709875,37.135436 132.385953,37.135436 C131.795758,37.135436 131.277384,37.2337669 130.832295,37.430918 C130.38623,37.6280691 130.018824,37.9064288 129.72959,38.2655079 C129.439867,38.6245871 129.22343,39.0477525 129.078813,39.5345151 C128.933707,40.0212777 128.861398,40.5603856 128.861398,41.1513496 C128.861398,41.7193209 128.93957,42.2060835 129.095913,42.6111482 C129.252255,43.0171914 129.475044,43.3532777 129.764278,43.6194072 C130.053513,43.8865151 130.392093,44.083177 130.780018,44.2108604 C131.167944,44.3385439 131.598864,44.402141 132.073755,44.402141 C132.45533,44.402141 132.825667,44.3732777 133.184767,44.3150619 C133.543378,44.2573353 133.838475,44.1878676 134.070058,44.106659 L134.070058,37.309105 Z M134.070058,45.1496518 C133.79255,45.2303712 133.491101,45.2944576 133.167178,45.3404432 C132.843255,45.386918 132.495881,45.4104 132.125544,45.4104 C131.511898,45.4104 130.93343,45.3404432 130.389161,45.2015079 C129.845381,45.0625727 129.37049,44.821882 128.965953,44.4804144 C128.560438,44.1384576 128.242378,43.6864288 128.010795,43.1243281 C127.779213,42.5622273 127.663421,41.8641266 127.663421,41.0295367 C127.663421,40.2644144 127.776281,39.5809899 128.00249,38.9782849 C128.227721,38.3755799 128.54285,37.8628892 128.948364,37.4397237 C129.35339,37.0165583 129.84245,36.6922129 130.415544,36.4661986 C130.98815,36.2401842 131.621827,36.127177 132.316575,36.127177 C132.640498,36.127177 132.932664,36.1359827 133.193561,36.153105 C133.453481,36.1702273 133.69679,36.1966446 133.92251,36.2313784 C134.14823,36.2661122 134.365155,36.3067165 134.573775,36.3531914 C134.781907,36.3996662 134.995901,36.4573928 135.215758,36.5268604 L135.215758,49.3045007 C135.146381,49.3157525 135.04769,49.3245583 134.920661,49.3304288 C134.793144,49.3358101 134.700804,49.3392345 134.643153,49.3392345 C134.573775,49.3392345 134.478015,49.3358101 134.356361,49.3304288 C134.234707,49.3245583 134.139435,49.3157525 134.070058,49.3045007 L134.070058,45.1496518 Z" id="Fill-24" fill="#FFFFFF"></path>
        <path d="M140.632599,36.3356777 C140.701976,36.3244259 140.800179,36.3156201 140.927696,36.3097496 C141.055213,36.3038791 141.147553,36.3009439 141.205693,36.3009439 C141.27507,36.3009439 141.370341,36.3038791 141.491996,36.3097496 C141.61365,36.3156201 141.708921,36.3244259 141.778787,36.3356777 L141.778787,41.3251165 C141.778787,41.9508144 141.842301,42.463505 141.96933,42.8636777 C142.096847,43.2633612 142.284459,43.5759655 142.53363,43.8019799 C142.782313,44.0284835 143.086204,44.184541 143.445304,44.2716201 C143.803916,44.3582101 144.208941,44.4017496 144.660381,44.4017496 C145.042444,44.4017496 145.383956,44.3816921 145.684916,44.3410878 C145.985876,44.3004835 146.251659,44.2452029 146.48373,44.1757353 L146.48373,36.3356777 C146.553107,36.3244259 146.65131,36.3156201 146.778827,36.3097496 C146.905856,36.3038791 146.998196,36.3009439 147.056336,36.3009439 C147.126201,36.3009439 147.221473,36.3038791 147.342639,36.3097496 C147.464293,36.3156201 147.560053,36.3244259 147.62943,36.3356777 L147.62943,44.9755914 C147.200953,45.0915338 146.723619,45.1928 146.196939,45.2798791 C145.670259,45.3664691 145.12941,45.4100086 144.573904,45.4100086 C144.029636,45.4100086 143.517613,45.3581525 143.037347,45.2534619 C142.556593,45.1497496 142.139841,44.9496633 141.787093,44.6541813 C141.433856,44.3582101 141.153416,43.9497209 140.945284,43.4287137 C140.736664,42.9067281 140.632599,42.2286849 140.632599,41.3945842 L140.632599,36.3356777 Z" id="Fill-26" fill="#FFFFFF"></path>
        <path d="M159.053305,39.9863482 C159.053305,39.6272691 159.006891,39.2735712 158.914551,38.9262331 C158.821722,38.5784058 158.677105,38.274118 158.480211,38.0133698 C158.283316,37.7526216 158.028771,37.5407942 157.716573,37.378377 C157.403888,37.2164489 157.027688,37.1352403 156.587973,37.1352403 C155.777433,37.1352403 155.146688,37.3847367 154.695736,37.8827511 C154.244296,38.3812547 153.972162,39.0822906 153.879822,39.9863482 L159.053305,39.9863482 Z M153.844645,40.9427511 C153.844645,42.1246791 154.116779,42.9935137 154.660559,43.5502331 C155.204828,44.1064633 156.020742,44.3843338 157.108791,44.3843338 C157.548505,44.3843338 157.956462,44.347154 158.332662,44.2713266 C158.708862,44.1959885 159.076268,44.0947223 159.435368,43.9675281 C159.493019,44.0947223 159.539433,44.2512691 159.574122,44.4366791 C159.608811,44.6220892 159.632262,44.790377 159.643499,44.940564 C159.307851,45.0917295 158.914551,45.2071827 158.463111,45.2883914 C158.011671,45.3696 157.519679,45.4102043 156.987136,45.4102043 C156.223499,45.4102043 155.566371,45.2971971 155.016728,45.0711827 C154.466596,44.8451683 154.015156,44.5296288 153.662408,44.1240748 C153.309171,43.7180317 153.048762,43.2346935 152.881182,42.6721036 C152.713113,42.1100029 152.629568,41.4931108 152.629568,40.8209381 C152.629568,40.1717583 152.707739,39.5631827 152.864082,38.9957007 C153.019936,38.4277295 153.257382,37.9292259 153.575931,37.5001899 C153.893991,37.0716432 154.301948,36.7355568 154.799802,36.4919309 C155.297168,36.2487942 155.893713,36.1269813 156.587973,36.1269813 C157.166442,36.1269813 157.681885,36.2258014 158.133325,36.4224633 C158.584765,36.6196144 158.963408,36.8950388 159.270231,37.2482475 C159.577053,37.6019453 159.808636,38.0251108 159.964979,38.5172547 C160.121322,39.0098878 160.199005,39.5460604 160.199005,40.1252835 C160.199005,40.2299741 160.196073,40.3630388 160.190699,40.5254561 C160.184348,40.6878734 160.175553,40.8268086 160.164316,40.9427511 L153.844645,40.9427511 Z" id="Fill-28" fill="#FFFFFF"></path>
        <path d="M164.903997,43.984846 C165.158542,44.0890475 165.488328,44.1790619 165.893842,44.2544 C166.298379,44.3297381 166.686305,44.3674072 167.057131,44.3674072 C167.751391,44.3674072 168.301034,44.2137957 168.706548,43.9065727 C169.111085,43.5993496 169.313842,43.2197237 169.313842,42.767695 C169.313842,42.4550906 169.253259,42.1972777 169.131605,41.9942561 C169.009951,41.7917237 168.847745,41.6205007 168.645477,41.4815655 C168.442719,41.3426302 168.214068,41.229623 167.959522,41.1425439 C167.704977,41.0554647 167.444568,40.9659396 167.178297,40.8729899 C166.889062,40.7805295 166.602759,40.6758388 166.318899,40.5603856 C166.035039,40.4444432 165.783425,40.2967022 165.564057,40.1166734 C165.343711,39.9371338 165.167337,39.7199252 165.034445,39.4650475 C164.901065,39.2101698 164.834619,38.8912058 164.834619,38.5086446 C164.834619,37.8017381 165.092097,37.2283856 165.607051,36.7876086 C166.122005,36.3473209 166.918377,36.127177 167.994699,36.127177 C168.446139,36.127177 168.882922,36.1677813 169.305048,36.2489899 C169.727662,36.3301986 170.054517,36.4167885 170.286099,36.5097381 C170.227959,36.8458245 170.147345,37.1760403 170.043279,37.5003856 C169.799971,37.4196662 169.490217,37.3384576 169.114505,37.2572489 C168.738305,37.1760403 168.347448,37.135436 167.942422,37.135436 C167.235948,37.135436 166.735651,37.2601842 166.440554,37.5091914 C166.145457,37.7581986 165.997908,38.0854791 165.997908,38.4915223 C165.997908,38.7116662 166.046765,38.8995223 166.145457,39.0560691 C166.243659,39.2126158 166.377039,39.3461698 166.544619,39.4562417 C166.712688,39.5663137 166.903231,39.6621986 167.117714,39.742918 C167.331708,39.8241266 167.560359,39.8994647 167.803668,39.9689324 C168.115865,40.0731338 168.431482,40.186141 168.750031,40.307954 C169.067602,40.4297669 169.357325,40.5892489 169.617734,40.7859108 C169.878142,40.9830619 170.092137,41.2325583 170.260205,41.5334216 C170.427785,41.8347741 170.511819,42.2114647 170.511819,42.6634935 C170.511819,43.0807885 170.427785,43.4604144 170.260205,43.801882 C170.092137,44.1443281 169.858111,44.4339396 169.557151,44.6712058 C169.255702,44.9089612 168.897091,45.091436 168.480339,45.2191194 C168.064077,45.3463137 167.606774,45.4104 167.108919,45.4104 C166.553414,45.4104 166.058491,45.3756662 165.624639,45.3061986 C165.190299,45.2367309 164.840482,45.1437813 164.574211,45.0278388 C164.643588,44.6800115 164.753517,44.3321842 164.903997,43.984846" id="Fill-30" fill="#FFFFFF"></path>
        <path d="M99.4294646,62.3251309 C99.6952474,62.4293324 99.9703131,62.5076058 100.254173,62.5594619 C100.537545,62.6118072 100.916187,62.6377353 101.391079,62.6377353 C101.842519,62.6377353 102.270507,62.5658216 102.676022,62.4205266 C103.081047,62.2757209 103.433796,62.0467712 103.735245,61.7341669 C104.035716,61.4210734 104.273162,61.0243252 104.447093,60.5429439 C104.620536,60.062541 104.707502,59.485764 104.707502,58.8135914 C104.707502,57.7471165 104.507676,56.9130158 104.108513,56.3103108 C103.708862,55.7076058 103.063459,55.405764 102.172305,55.405764 C101.894796,55.405764 101.593836,55.4527281 101.269913,55.5451885 C100.945502,55.6381381 100.647473,55.7971309 100.375827,56.0231453 C100.103205,56.2491597 99.8774846,56.5446417 99.6986674,56.9100806 C99.5188731,57.2750302 99.4294646,57.7353755 99.4294646,58.2916058 L99.4294646,62.3251309 Z M98.283276,54.5892748 C98.3526531,54.5775338 98.4396189,54.5692173 98.5441731,54.5628576 C98.6482389,54.5574763 98.7352046,54.5540518 98.8045817,54.5540518 C98.8739589,54.5540518 98.9609246,54.5574763 99.0645017,54.5628576 C99.169056,54.5692173 99.2560217,54.5775338 99.3253989,54.5892748 L99.4294646,55.8059367 C99.6722846,55.4351165 100.022102,55.1049007 100.479893,54.8148 C100.936707,54.5256777 101.530322,54.3803827 102.25927,54.3803827 C102.80305,54.3803827 103.300905,54.4645266 103.752345,54.6323252 C104.203785,54.8006129 104.588779,55.0642964 104.906839,55.4233755 C105.225387,55.7829439 105.47407,56.2349727 105.653376,56.7794619 C105.832682,57.3244403 105.922579,57.9790014 105.922579,58.7441237 C105.922579,59.5087568 105.818513,60.1951165 105.609893,60.8041813 C105.401762,61.4122676 105.09787,61.9278935 104.698707,62.351059 C104.299056,62.7742245 103.807065,63.0985698 103.222733,63.3245842 C102.638402,63.5505986 101.970036,63.6636058 101.217636,63.6636058 C100.939639,63.6636058 100.638679,63.6401237 100.314756,63.5941381 C99.9903446,63.5476633 99.6952474,63.4781957 99.4294646,63.385246 L99.4294646,67.5577065 C99.3600874,67.5689583 99.261396,67.577764 99.1343674,67.5836345 C99.0068503,67.589505 98.9140217,67.5924403 98.8563703,67.5924403 C98.7869931,67.5924403 98.6917217,67.589505 98.5700674,67.5836345 C98.4484131,67.577764 98.3526531,67.5689583 98.283276,67.5577065 L98.283276,54.5892748 Z" id="Fill-32" fill="#FFFFFF"></path>
        <path d="M116.165625,59.1436115 C115.968731,59.1206187 115.72298,59.0946906 115.427883,59.0653381 C115.132297,59.0364748 114.851857,59.0217986 114.585585,59.0217986 C113.717394,59.0217986 113.046097,59.1842158 112.571694,59.5090504 C112.096803,59.8333957 111.859845,60.2971655 111.859845,60.8993813 C111.859845,61.2819424 111.931665,61.5891655 112.076771,61.8210504 C112.221388,62.0529353 112.409488,62.2295396 112.641071,62.3513525 C112.872654,62.4726763 113.1272,62.5538849 113.405197,62.5944892 C113.682705,62.6350935 113.960703,62.6551511 114.238211,62.6551511 C114.597311,62.6551511 114.93296,62.6380288 115.245157,62.603295 C115.557843,62.5680719 115.864177,62.5220863 116.165625,62.4643597 L116.165625,59.1436115 Z M116.165625,57.5962446 C116.165625,56.8316115 115.985831,56.272446 115.62722,55.9187482 C115.268608,55.5655396 114.736065,55.3889353 114.03008,55.3889353 C113.566914,55.3889353 113.1443,55.4207338 112.762725,55.4843309 C112.380663,55.5479281 112.039151,55.6266906 111.738191,55.7191511 C111.680051,55.6149496 111.631194,55.4642734 111.590643,55.2671223 C111.550091,55.0699712 111.53006,54.8845612 111.53006,54.7104029 C111.830531,54.6184317 112.200868,54.5396691 112.641071,54.4760719 C113.080785,54.4124748 113.532225,54.3806763 113.995391,54.3806763 C115.11764,54.3806763 115.951143,54.6267482 116.495411,55.1193813 C117.039191,55.6120144 117.311325,56.3854532 117.311325,57.4401871 L117.311325,63.2984604 C116.9063,63.3796691 116.414308,63.4608777 115.83584,63.5420863 C115.256883,63.6228058 114.70724,63.6634101 114.186423,63.6634101 C113.1101,63.6634101 112.26194,63.4491367 111.64292,63.0205899 C111.023411,62.591554 110.714145,61.8963885 110.714145,60.9341151 C110.714145,60.4708345 110.803554,60.0564748 110.983348,59.6915252 C111.162165,59.3265755 111.411337,59.0193525 111.729397,58.7698561 C112.047945,58.5208489 112.430008,58.3325036 112.875585,58.2048201 C113.321163,58.0776259 113.810223,58.0135396 114.342765,58.0135396 C114.759517,58.0135396 115.11764,58.0282158 115.419088,58.0570791 C115.71956,58.0864317 115.968731,58.1123597 116.165625,58.1353525 L116.165625,57.5962446 Z" id="Fill-34" fill="#FFFFFF"></path>
        <path d="M124.117077,62.3251309 C124.382859,62.4293324 124.657925,62.5076058 124.941785,62.5594619 C125.225157,62.6118072 125.603799,62.6377353 126.078691,62.6377353 C126.530131,62.6377353 126.958119,62.5658216 127.363634,62.4205266 C127.768659,62.2757209 128.121408,62.0467712 128.422857,61.7341669 C128.723328,61.4210734 128.960774,61.0243252 129.134705,60.5429439 C129.308148,60.062541 129.395114,59.485764 129.395114,58.8135914 C129.395114,57.7471165 129.195288,56.9130158 128.796125,56.3103108 C128.396474,55.7076058 127.751071,55.405764 126.859917,55.405764 C126.582408,55.405764 126.281448,55.4527281 125.957525,55.5451885 C125.633114,55.6381381 125.335085,55.7971309 125.063439,56.0231453 C124.790817,56.2491597 124.565097,56.5446417 124.386279,56.9100806 C124.206485,57.2750302 124.117077,57.7353755 124.117077,58.2916058 L124.117077,62.3251309 Z M122.970888,54.5892748 C123.040265,54.5775338 123.127231,54.5692173 123.231785,54.5628576 C123.335851,54.5574763 123.422817,54.5540518 123.492194,54.5540518 C123.561571,54.5540518 123.648537,54.5574763 123.752114,54.5628576 C123.856668,54.5692173 123.943634,54.5775338 124.013011,54.5892748 L124.117077,55.8059367 C124.359897,55.4351165 124.709714,55.1049007 125.167505,54.8148 C125.624319,54.5256777 126.217934,54.3803827 126.946882,54.3803827 C127.490662,54.3803827 127.988517,54.4645266 128.439957,54.6323252 C128.891397,54.8006129 129.276391,55.0642964 129.594451,55.4233755 C129.912999,55.7829439 130.161682,56.2349727 130.340988,56.7794619 C130.520294,57.3244403 130.610191,57.9790014 130.610191,58.7441237 C130.610191,59.5087568 130.506125,60.1951165 130.297505,60.8041813 C130.089374,61.4122676 129.785482,61.9278935 129.386319,62.351059 C128.986668,62.7742245 128.494677,63.0985698 127.910345,63.3245842 C127.326014,63.5505986 126.657648,63.6636058 125.905248,63.6636058 C125.627251,63.6636058 125.326291,63.6401237 125.002368,63.5941381 C124.677957,63.5476633 124.382859,63.4781957 124.117077,63.385246 L124.117077,67.5577065 C124.047699,67.5689583 123.949008,67.577764 123.821979,67.5836345 C123.694462,67.589505 123.601634,67.5924403 123.543982,67.5924403 C123.474605,67.5924403 123.379334,67.589505 123.257679,67.5836345 C123.136025,67.577764 123.040265,67.5689583 122.970888,67.5577065 L122.970888,54.5892748 Z" id="Fill-36" fill="#FFFFFF"></path>
        <path d="M135.940163,52.4160144 C135.928437,52.3118129 135.919643,52.1841295 135.914269,52.0334532 C135.908406,51.8832662 135.905475,51.7550935 135.905475,51.6513813 C135.905475,51.5584317 136.885549,51.4424892 136.891412,51.303554 C136.896786,51.1641295 136.90558,51.0486763 136.917306,50.9557266 C137.021372,50.9444748 137.148889,50.9356691 137.299369,50.9293094 C137.44936,50.9239281 137.576877,50.9209928 137.680943,50.9209928 C137.773772,50.9209928 137.889563,50.9239281 138.028317,50.9293094 C138.16756,50.9356691 138.282863,50.9444748 138.375692,50.9557266 C138.386929,51.0486763 138.395723,51.1641295 138.401586,51.303554 C138.407449,51.4424892 137.433237,51.5584317 137.433237,51.6513813 C137.433237,51.7550935 137.430306,51.8832662 137.424443,52.0334532 C137.41858,52.1841295 137.409786,52.3118129 137.398549,52.4160144 C137.30572,52.4277554 137.190417,52.4365612 137.051175,52.4419424 C136.91242,52.4478129 136.796629,52.4507482 136.7038,52.4507482 C136.599735,52.4507482 136.472217,52.4478129 136.322226,52.4419424 C136.171746,52.4365612 136.044229,52.4277554 135.940163,52.4160144 L135.940163,52.4160144 Z M136.512769,55.5626043 L135.401757,55.5626043 C135.39052,55.5043885 135.381237,55.4349209 135.375863,55.3537122 C135.37,55.2729928 135.367069,55.1859137 135.367069,55.092964 C135.367069,55.0005036 135.37,54.9080432 135.375863,54.8150935 C135.381237,54.7221439 135.39052,54.647295 135.401757,54.5890791 L137.658957,54.5890791 L137.658957,63.4550072 C137.58958,63.466259 137.49382,63.4750647 137.372655,63.4809353 C137.251,63.4868058 137.15524,63.489741 137.085863,63.489741 C137.028212,63.489741 136.935383,63.4868058 136.808355,63.4809353 C136.680837,63.4750647 136.582635,63.466259 136.512769,63.4550072 L136.512769,55.5626043 Z" id="Fill-38" fill="#FFFFFF"></path>
        <path d="M149.430011,58.2397007 C149.430011,57.8806216 149.383597,57.5269237 149.291257,57.1795856 C149.198428,56.8317583 149.053811,56.5274705 148.856917,56.2667223 C148.660023,56.0059741 148.405477,55.7941468 148.09328,55.6317295 C147.780594,55.4698014 147.404394,55.3885928 146.96468,55.3885928 C146.15414,55.3885928 145.523394,55.6380892 145.072443,56.1361036 C144.621003,56.6346072 144.348868,57.3356432 144.256528,58.2397007 L149.430011,58.2397007 Z M144.221351,59.1961036 C144.221351,60.3780317 144.493485,61.2468662 145.037265,61.8035856 C145.581534,62.3598158 146.397448,62.6376863 147.485497,62.6376863 C147.925211,62.6376863 148.333168,62.6005065 148.709368,62.5246791 C149.085568,62.449341 149.452974,62.3480748 149.812074,62.2208806 C149.869725,62.3480748 149.91614,62.5046216 149.950828,62.6900317 C149.985517,62.8754417 150.008968,63.0437295 150.020205,63.1939165 C149.684557,63.345082 149.291257,63.4605353 148.839817,63.5417439 C148.388377,63.6229525 147.896385,63.6635568 147.363843,63.6635568 C146.600205,63.6635568 145.943077,63.5505496 145.393434,63.3245353 C144.843303,63.0985209 144.391863,62.7829813 144.039114,62.3774273 C143.685877,61.9713842 143.425468,61.488046 143.257888,60.9254561 C143.08982,60.3633554 143.006274,59.7464633 143.006274,59.0742906 C143.006274,58.4251108 143.084445,57.8165353 143.240788,57.2490532 C143.396643,56.681082 143.634088,56.1825784 143.952637,55.7535424 C144.270697,55.3249957 144.678654,54.9889094 145.176508,54.7452835 C145.673874,54.5021468 146.27042,54.3803338 146.96468,54.3803338 C147.543148,54.3803338 148.058591,54.479154 148.510031,54.6758158 C148.961471,54.8729669 149.340114,55.1483914 149.646937,55.5016 C149.95376,55.8552978 150.185343,56.2784633 150.341685,56.7706072 C150.498028,57.2632403 150.575711,57.7994129 150.575711,58.378636 C150.575711,58.4833266 150.57278,58.6163914 150.567405,58.7788086 C150.561054,58.9412259 150.55226,59.0801612 150.541023,59.1961036 L144.221351,59.1961036 Z" id="Fill-40" fill="#FFFFFF"></path>
        <path d="M155.870897,54.5890302 C155.963237,54.5777784 156.053623,54.5689727 156.1401,54.5631022 C156.227066,54.5572317 156.310611,54.5542964 156.391714,54.5542964 C156.484054,54.5542964 156.57102,54.5572317 156.652123,54.5631022 C156.733226,54.5689727 156.819703,54.5777784 156.912531,54.5890302 C156.935983,54.7974331 156.953083,55.0439942 156.964809,55.3277353 C156.976046,55.6119655 156.981909,55.8697784 156.981909,56.1011741 C157.213491,55.6726273 157.537903,55.3106129 157.954654,55.0151309 C158.370917,54.7196489 158.92056,54.5714187 159.603583,54.5714187 L159.786309,54.5714187 C159.849823,54.5714187 159.922131,54.5777784 160.003234,54.5890302 C160.037923,54.7861813 160.055023,54.9715914 160.055023,55.1452604 C160.055023,55.3306705 160.037923,55.5102101 160.003234,55.6843683 C159.910406,55.6726273 159.838097,55.6667568 159.786309,55.6667568 L159.621171,55.6667568 C158.833594,55.6667568 158.202849,55.9162532 157.728446,56.4142676 C157.254043,56.9127712 157.017086,57.7414906 157.017086,58.9004259 L157.017086,63.4549583 C156.947709,63.4662101 156.851949,63.4750158 156.730294,63.4808863 C156.60864,63.4867568 156.513369,63.4896921 156.443991,63.4896921 C156.385851,63.4896921 156.293511,63.4867568 156.165994,63.4808863 C156.038477,63.4750158 155.940274,63.4662101 155.870897,63.4549583 L155.870897,54.5890302 Z" id="Fill-42" fill="#FFFFFF"></path>
        <path d="M164.291377,62.2381986 C164.545923,62.3424 164.875708,62.4324144 165.281223,62.5077525 C165.68576,62.5830906 166.073685,62.6207597 166.444511,62.6207597 C167.138771,62.6207597 167.688414,62.4671482 168.093928,62.1599252 C168.498465,61.8527022 168.701223,61.4730763 168.701223,61.0210475 C168.701223,60.7084432 168.64064,60.4506302 168.518985,60.2476086 C168.397331,60.0450763 168.235125,59.8738532 168.032857,59.734918 C167.8301,59.5959827 167.601448,59.4829755 167.346903,59.3958964 C167.092357,59.3088173 166.831948,59.2192921 166.565677,59.1263424 C166.276443,59.033882 165.99014,58.9291914 165.70628,58.8137381 C165.42242,58.6977957 165.170805,58.5500547 164.951437,58.3700259 C164.731091,58.1904863 164.554717,57.9732777 164.421825,57.7184 C164.288445,57.4635223 164.222,57.1445583 164.222,56.7619971 C164.222,56.0550906 164.479477,55.4817381 164.994431,55.0409612 C165.509385,54.6006734 166.305757,54.3805295 167.38208,54.3805295 C167.83352,54.3805295 168.270303,54.4211338 168.692428,54.5023424 C169.115043,54.5835511 169.441897,54.670141 169.67348,54.7630906 C169.61534,55.099177 169.534725,55.4293928 169.43066,55.7537381 C169.187351,55.6730187 168.877597,55.5918101 168.501885,55.5106014 C168.125685,55.4293928 167.734828,55.3887885 167.329803,55.3887885 C166.623328,55.3887885 166.123031,55.5135367 165.827934,55.7625439 C165.532837,56.0115511 165.385288,56.3388317 165.385288,56.7448748 C165.385288,56.9650187 165.434145,57.1528748 165.532837,57.3094216 C165.63104,57.4659683 165.76442,57.5995223 165.932,57.7095942 C166.100068,57.8196662 166.290611,57.9155511 166.505094,57.9962705 C166.719088,58.0774791 166.94774,58.1528173 167.191048,58.2222849 C167.503245,58.3264863 167.818863,58.4394935 168.137411,58.5613065 C168.454983,58.6831194 168.744705,58.8426014 169.005114,59.0392633 C169.265523,59.2364144 169.479517,59.4859108 169.647585,59.7867741 C169.815165,60.0881266 169.8992,60.4648173 169.8992,60.916846 C169.8992,61.334141 169.815165,61.7137669 169.647585,62.0552345 C169.479517,62.3976806 169.245491,62.6872921 168.944531,62.9245583 C168.643083,63.1623137 168.284471,63.3447885 167.86772,63.4724719 C167.451457,63.5996662 166.994154,63.6637525 166.4963,63.6637525 C165.940794,63.6637525 165.445871,63.6290187 165.01202,63.5595511 C164.57768,63.4900835 164.227863,63.3971338 163.961591,63.2811914 C164.030968,62.933364 164.140897,62.5855367 164.291377,62.2381986" id="Fill-44" fill="#FFFFFF"></path>
        <g id="Group-48" transform="translate(0.000000, 0.081698)" fill="#3F60FF">
            <path d="M46.6598906,0.485735252 L15.4846363,0.693159712 C6.87600771,0.750886331 -0.0563322857,7.77298705 0.000342,16.3762101 L0.207984857,47.5324403 C0.268567714,56.1361525 7.291782,63.0633468 15.9008991,63.0026849 L28.3413934,62.9190302 L28.3413934,44.1769583 C28.2808106,35.573246 35.4926134,28.9880086 44.101242,28.9317496 L62.4363506,28.9023971 L62.3532934,15.9559799 C62.295642,7.35275683 55.2690077,0.424584173 46.6598906,0.485735252" id="Fill-46"></path>
        </g>
        <path d="M46.542096,34.5602906 C39.206196,34.5602906 33.9985131,38.5610388 33.9985131,47.4127799 L33.9985131,57.4112259 L56.7224589,34.6214417 L56.7224589,34.5602906 L46.542096,34.5602906 Z" id="Fill-49" fill="#D0021B"></path>
        <path d="M76.7704989,58.4248662 C76.2921874,58.4346504 75.813876,58.4958014 75.3355646,58.6083194 C74.8572531,58.7208374 74.4268217,58.8798302 74.0437817,59.0852978 C73.6612303,59.2907655 73.3544074,59.5304777 73.1233131,59.8044345 C72.8922189,60.0783914 72.7764274,60.3817007 72.7764274,60.7143626 C72.7764274,61.076377 72.8961274,61.3968086 73.1355274,61.6756576 C73.3744389,61.9545065 73.6890789,62.1893266 74.079936,62.380118 C74.4703046,62.5709094 74.924676,62.7152259 75.4430503,62.8130676 C75.960936,62.9109094 76.4993417,62.9598302 77.0572903,62.9598302 C77.4559646,62.9598302 77.859036,62.9304777 78.2655274,62.8717727 C78.6720189,62.8130676 79.0506617,62.7323482 79.401456,62.6296144 C79.7522503,62.5268806 80.0712874,62.4045784 80.3580789,62.2627079 C80.6453589,62.1208374 80.8759646,61.9667367 81.0518503,61.8004058 C80.3820189,61.2818446 79.668216,60.7265928 78.9109303,60.1346504 C78.1536446,59.5427079 77.4403303,58.9727799 76.7704989,58.4248662 L76.7704989,58.4248662 Z M85.0459217,63.6349381 L83.4673474,63.6349381 C83.4512246,63.6349381 83.2958589,63.5248662 83.0007617,63.3047223 C82.7056646,63.0845784 82.3270217,62.7934993 81.8648331,62.4314849 C81.3703989,62.8228518 80.6966589,63.1408374 79.8441017,63.3854417 C78.9905674,63.630046 78.0383417,63.7523482 76.9859589,63.7523482 C76.1724874,63.7523482 75.4269274,63.6765209 74.7497674,63.5248662 C74.0716303,63.3732115 73.4858331,63.1604058 72.9918874,62.8864489 C72.4974531,62.6124921 72.1149017,62.2945065 71.8437446,61.9324921 C71.5725874,61.5704777 71.4367646,61.1742187 71.4367646,60.7437151 C71.4367646,60.3523482 71.552556,59.9854417 71.7836503,59.6429957 C72.0147446,59.3005496 72.3298731,58.9972403 72.7285474,58.7330676 C73.1267331,58.468895 73.5972274,58.246305 74.1395417,58.0652978 C74.681856,57.8842906 75.2554389,57.7546504 75.861756,57.676377 C75.4948389,57.3730676 75.1836189,57.108895 74.9290731,56.883859 C74.6735503,56.658823 74.4986417,56.4876 74.4028817,56.3701899 C74.179116,56.1060173 73.9880846,55.8516288 73.8288103,55.6070245 C73.6690474,55.3624201 73.5894103,55.0835712 73.5894103,54.7704777 C73.5894103,54.4378158 73.6973846,54.1345065 73.912356,53.8605496 C74.127816,53.5865928 74.4146074,53.3542187 74.7737074,53.1634273 C75.1323189,52.972636 75.550536,52.8258734 76.0288474,52.7231396 C76.5076474,52.6204058 77.017716,52.5690388 77.5600303,52.5690388 C78.2611303,52.5592547 78.9070217,52.6204058 79.497216,52.7524921 C80.0869217,52.8845784 80.5652331,53.0240029 80.9321503,53.1707655 C80.9321503,53.1805496 80.895996,53.2172403 80.8246646,53.2808374 C80.7528446,53.3444345 80.6727189,53.4129237 80.5852646,53.486305 C80.4973217,53.5596863 80.4176846,53.6257295 80.3458646,53.6844345 C80.2745331,53.7431396 80.2383789,53.7773842 80.2383789,53.7871683 C79.9193417,53.6795424 79.5846703,53.5841468 79.233876,53.5009813 C78.8830817,53.4178158 78.5005303,53.3664489 78.0857331,53.3468806 C77.6870589,53.3370964 77.3045074,53.3615568 76.9380789,53.4202619 C76.5711617,53.4789669 76.2443074,53.5719165 75.957516,53.6991108 C75.6707246,53.826305 75.4391417,53.9852978 75.2637446,54.1760892 C75.0883474,54.3668806 75.0004046,54.5894705 75.0004046,54.843859 C75.0004046,55.0004058 75.0326503,55.1496144 75.0961646,55.2914849 C75.1601674,55.4333554 75.2280789,55.5605496 75.2998989,55.6730676 C75.3712303,55.7855856 75.4391417,55.8785353 75.5031446,55.9519165 C75.5666589,56.0252978 75.6067217,56.0668806 75.622356,56.0766647 L81.6493731,60.9198302 L83.7062589,57.6176719 L85.1172531,57.6176719 L82.5825446,61.6536432 L85.0459217,63.6349381 Z" id="Fill-51" fill="#FFFFFF"></path>
    </g>
</svg>