
<svg width="205px" height="95px" viewBox="-50 312 205 95" version="1.1" xmlns="http://www.w3.org/2000/svg" xmlns:xlink="http://www.w3.org/1999/xlink">
    <!-- Generator: Sketch 42 (36781) - http://www.bohemiancoding.com/sketch -->
    <desc>Created with Sketch.</desc>
    <defs>
        <rect id="path-1" x="0" y="0" width="185" height="75"></rect>
        <filter x="-50%" y="-50%" width="200%" height="200%" filterUnits="objectBoundingBox" id="filter-2">
            <feOffset dx="0" dy="2" in="SourceAlpha" result="shadowOffsetOuter1"></feOffset>
            <feGaussianBlur stdDeviation="5" in="shadowOffsetOuter1" result="shadowBlurOuter1"></feGaussianBlur>
            <feColorMatrix values="0 0 0 0 0.499973427   0 0 0 0 0.499973427   0 0 0 0 0.499973427  0 0 0 0.5 0" type="matrix" in="shadowBlurOuter1"></feColorMatrix>
        </filter>
    </defs>
    <g id="Menu" stroke="none" stroke-width="1" fill="none" fill-rule="evenodd" transform="translate(-40.000000, 320.000000)">
        <g id="raccourci-menu-">
            <g>
                <g id="Rectangle">
                    <use fill="black" fill-opacity="1" filter="url(#filter-2)" xlink:href="#path-1"></use>
                    <use fill="#000000" fill-rule="evenodd" xlink:href="#path-1"></use>
                </g>
                <g id="Picto-menu" transform="translate(115.000000, 18.000000)" fill="#FFFFFF">
                    <path d="M5.24193548,0 C8.13716129,0 10.483871,2.34670968 10.483871,5.24193548 C10.483871,8.13716129 8.13716129,10.483871 5.24193548,10.483871 C2.34670968,10.483871 0,8.13716129 0,5.24193548 C0,2.34670968 2.34670968,0 5.24193548,0" id="Fill-1"></path>
                    <path d="M19.5,0 C22.3952258,0 24.7419355,2.34670968 24.7419355,5.24193548 C24.7419355,8.13716129 22.3952258,10.483871 19.5,10.483871 C16.6047742,10.483871 14.2580645,8.13716129 14.2580645,5.24193548 C14.2580645,2.34670968 16.6047742,0 19.5,0" id="Fill-3"></path>
                    <path d="M33.7580645,0 C36.6532903,0 39,2.34670968 39,5.24193548 C39,8.13716129 36.6532903,10.483871 33.7580645,10.483871 C30.8628387,10.483871 28.516129,8.13716129 28.516129,5.24193548 C28.516129,2.34670968 30.8628387,0 33.7580645,0" id="Fill-5"></path>
                    <path d="M5.24193548,14.2580645 C8.13716129,14.2580645 10.483871,16.6047742 10.483871,19.5 C10.483871,22.3952258 8.13716129,24.7419355 5.24193548,24.7419355 C2.34670968,24.7419355 0,22.3952258 0,19.5 C0,16.6047742 2.34670968,14.2580645 5.24193548,14.2580645" id="Fill-7"></path>
                    <path d="M19.5,14.2580645 C22.3952258,14.2580645 24.7419355,16.6047742 24.7419355,19.5 C24.7419355,22.3952258 22.3952258,24.7419355 19.5,24.7419355 C16.6047742,24.7419355 14.2580645,22.3952258 14.2580645,19.5 C14.2580645,16.6047742 16.6047742,14.2580645 19.5,14.2580645" id="Fill-9"></path>
                    <path d="M33.7580645,14.2580645 C36.6532903,14.2580645 39,16.6047742 39,19.5 C39,22.3952258 36.6532903,24.7419355 33.7580645,24.7419355 C30.8628387,24.7419355 28.516129,22.3952258 28.516129,19.5 C28.516129,16.6047742 30.8628387,14.2580645 33.7580645,14.2580645" id="Fill-11"></path>
                    <path d="M5.24193548,28.516129 C8.13716129,28.516129 10.483871,30.8628387 10.483871,33.7580645 C10.483871,36.6532903 8.13716129,39 5.24193548,39 C2.34670968,39 0,36.6532903 0,33.7580645 C0,30.8628387 2.34670968,28.516129 5.24193548,28.516129" id="Fill-13"></path>
                    <path d="M19.5,28.516129 C22.3952258,28.516129 24.7419355,30.8628387 24.7419355,33.7580645 C24.7419355,36.6532903 22.3952258,39 19.5,39 C16.6047742,39 14.2580645,36.6532903 14.2580645,33.7580645 C14.2580645,30.8628387 16.6047742,28.516129 19.5,28.516129" id="Fill-15"></path>
                    <path d="M33.7580645,28.516129 C36.6532903,28.516129 39,30.8628387 39,33.7580645 C39,36.6532903 36.6532903,39 33.7580645,39 C30.8628387,39 28.516129,36.6532903 28.516129,33.7580645 C28.516129,30.8628387 30.8628387,28.516129 33.7580645,28.516129" id="Fill-17"></path>
                </g>
            </g>
        </g>
    </g>
</svg>