
<svg width="23px" height="20px" viewBox="181 32 23 20" version="1.1" xmlns="http://www.w3.org/2000/svg" xmlns:xlink="http://www.w3.org/1999/xlink">
    <!-- Generator: Sketch 42 (36781) - http://www.bohemiancoding.com/sketch -->
    <desc>Created with Sketch.</desc>
    <defs></defs>
    <path d="M193.95393,50.2384824 C193.926829,50.3468835 193.818428,50.6449864 193.764228,51.0243902 L193.655827,51.0243902 L192.165312,51.0243902 L190.810298,51.0243902 L190.701897,51.0243902 C190.647696,50.6178862 190.539295,50.3468835 190.485095,50.2384824 C189.97019,49.0460705 188.723577,48.2601626 187.422764,48.2601626 L181,48.2059621 L181,49.1544715 L187.422764,49.2357724 C188.289973,49.2357724 189.157182,49.7506775 189.563686,50.5636856 C189.644986,50.8075881 189.753388,51.1056911 189.753388,51.295393 C189.753388,51.4579946 189.834688,51.6205962 189.943089,51.7560976 C190.159892,51.9728997 190.539295,52 190.728997,52 L190.783198,52 L192.300813,52 L193.601626,52 L193.682927,52 C193.899729,52 194.252033,51.9728997 194.468835,51.7560976 C194.604336,51.6205962 194.658537,51.4579946 194.658537,51.295393 C194.658537,51.1056911 194.712737,50.9159892 194.794038,50.6720867 C195.227642,49.8319783 196.094851,49.3170732 197.04336,49.2628726 L203.493225,49.3170732 L203.493225,48.3685637 L196.98916,48.3143631 C195.742547,48.2872629 194.523035,49.0460705 193.95393,50.2384824 L193.95393,50.2384824 Z M202.544715,46.4715447 L196.094851,46.4173442 C194.441734,46.3902439 193.384824,47.0406504 192.707317,47.8807588 L192.815718,36.4173442 C192.842818,34.5474255 194.333333,33.0569106 196.203252,33.0840108 L202.544715,33.1382114 L202.544715,46.4715447 Z M191.758808,47.8536585 C191.135501,47.0406504 190.078591,46.3631436 188.452575,46.3631436 L182.056911,46.3089431 L182.056911,32.9485095 L188.506775,33.00271 C190.376694,33.0298103 191.867209,34.5203252 191.840108,36.3902439 L191.758808,47.8536585 Z M196.230352,32.1084011 C194.550136,32.0813008 193.086721,33.0298103 192.355014,34.4390244 C191.650407,33.0298103 190.214092,32.0542005 188.533875,32.0542005 L181,32 L181,46.7696477 L181,47.2574526 L188.425474,47.3116531 C191.704607,47.3387534 191.704607,50.0216802 191.704607,50.1571816 L192.653117,50.1571816 C192.653117,50.0216802 192.734417,47.3387534 196.04065,47.3658537 L203.520325,47.4471545 L203.520325,32.1897019 L196.230352,32.1084011 Z" id="Page-1" stroke="none" fill="#F6A623" fill-rule="evenodd"></path>
</svg>