
<svg width="28px" height="21px" viewBox="814 2969 28 21" version="1.1" xmlns="http://www.w3.org/2000/svg" xmlns:xlink="http://www.w3.org/1999/xlink">
    <!-- Generator: Sketch 42 (36781) - http://www.bohemiancoding.com/sketch -->
    <desc>Created with Sketch.</desc>
    <defs></defs>
    <path d="M829.578635,2970.30861 C829.578635,2970.62018 829.703264,2970.93175 829.952522,2971.18101 L837.05638,2978.28487 L815.246291,2978.28487 C814.560831,2978.28487 814,2978.8457 814,2979.53116 C814,2980.21662 814.560831,2980.77745 815.246291,2980.77745 L837.05638,2980.77745 L829.952522,2987.88131 C829.703264,2988.13056 829.578635,2988.44214 829.578635,2988.75371 C829.578635,2989.06528 829.703264,2989.37685 829.952522,2989.62611 C830.451039,2990.12463 831.198813,2990.12463 831.697329,2989.62611 L840.919881,2980.40356 C841.418398,2979.90504 841.418398,2979.15727 840.919881,2978.65875 L831.697329,2969.37389 C831.198813,2968.87537 830.451039,2968.87537 829.952522,2969.37389 C829.703264,2969.62315 829.578635,2969.93472 829.578635,2970.30861" id="Page-1" stroke="none" fill="#3F60FF" fill-rule="evenodd"></path>
</svg>