
<svg width="22px" height="17px" viewBox="408 34 22 17" version="1.1" xmlns="http://www.w3.org/2000/svg" xmlns:xlink="http://www.w3.org/1999/xlink">
    <!-- Generator: Sketch 42 (36781) - http://www.bohemiancoding.com/sketch -->
    <desc>Created with Sketch.</desc>
    <defs></defs>
    <path d="M420.557078,35.0547945 C420.557078,35.3059361 420.657534,35.5570776 420.858447,35.7579909 L426.584475,41.4840183 L409.004566,41.4840183 C408.452055,41.4840183 408,41.9360731 408,42.4885845 C408,43.0410959 408.452055,43.4931507 409.004566,43.4931507 L426.584475,43.4931507 L420.858447,49.2191781 C420.657534,49.4200913 420.557078,49.6712329 420.557078,49.9223744 C420.557078,50.173516 420.657534,50.4246575 420.858447,50.6255708 C421.260274,51.0273973 421.863014,51.0273973 422.26484,50.6255708 L429.69863,43.1917808 C430.100457,42.7899543 430.100457,42.1872146 429.69863,41.7853881 L422.26484,34.3013699 C421.863014,33.8995434 421.260274,33.8995434 420.858447,34.3013699 C420.657534,34.5022831 420.557078,34.7534247 420.557078,35.0547945" id="Page-1" stroke="none" fill="#F6A623" fill-rule="evenodd"></path>
</svg>