
<svg width="28px" height="28px" viewBox="1280 36 28 28" version="1.1" xmlns="http://www.w3.org/2000/svg" xmlns:xlink="http://www.w3.org/1999/xlink">
    <!-- Generator: Sketch 42 (36781) - http://www.bohemiancoding.com/sketch -->
    <desc>Created with Sketch.</desc>
    <defs></defs>
    <path d="M1292.43776,53.7255641 C1291.84168,53.8775143 1291.23063,53.9543627 1290.62213,53.9543627 C1287.27257,53.9543627 1284.35466,51.6842678 1283.5263,48.4339786 C1283.04291,46.5374102 1283.32693,44.5660232 1284.32662,42.8832423 C1285.32602,41.2004615 1286.92123,40.0073294 1288.81834,39.5240532 C1289.41443,39.3721031 1290.02519,39.2952547 1290.63398,39.2952547 C1293.98325,39.2952547 1296.90144,41.5653496 1297.7298,44.8153555 C1298.72746,48.7306567 1296.35361,52.7277156 1292.43776,53.7255641 M1306.12289,60.7108818 L1297.87106,52.9539179 C1299.87969,50.6488919 1300.7647,47.4289078 1299.95423,44.248528 C1298.86673,39.9807534 1295.03407,37 1290.63426,37 C1289.83479,37 1289.03301,37.1008281 1288.25172,37.299888 C1285.76055,37.934595 1283.66581,39.5012064 1282.35321,41.7112104 C1281.04061,43.9212145 1280.66703,46.5102206 1281.30211,49.0010421 C1282.38961,53.2691 1286.22227,56.2498534 1290.62241,56.2498534 C1291.42188,56.2498534 1292.22366,56.1490253 1293.00495,55.9499654 C1294.04854,55.6838756 1295.00725,55.2534681 1295.86389,54.6967424 C1295.88268,54.7166625 1295.90086,54.7371963 1295.92111,54.7562668 L1304.30848,62.6406348 C1304.56418,62.8809983 1304.89012,63 1305.21545,63 C1305.56792,63 1305.91988,62.8598981 1306.18077,62.5828569 C1306.68139,62.0498748 1306.65571,61.2120955 1306.12289,60.7108818" id="Fill-1" stroke="#979797" stroke-width="1" fill="#FFFFFF" fill-rule="evenodd"></path>
</svg>