
<svg width="157px" height="195px" viewBox="227 672 157 195" version="1.1" xmlns="http://www.w3.org/2000/svg" xmlns:xlink="http://www.w3.org/1999/xlink">
    <!-- Generator: Sketch 42 (36781) - http://www.bohemiancoding.com/sketch -->
    <desc>Created with Sketch.</desc>
    <defs>
        <polygon id="path-1" points="15.081355 174.270801 112.880746 174.270801 112.880746 107.508445 112.880746 91.884716 15.081355 91.884716"></polygon>
    </defs>
    <g id="pictos-atiquettes" stroke="none" stroke-width="1" fill="none" fill-rule="evenodd" transform="translate(227.000000, 673.000000)">
        <g id="Group" transform="translate(112.519724, 58.182943) rotate(11.000000) translate(-112.519724, -58.182943) translate(79.019724, 6.182943)" stroke="#FFFFFF" fill-rule="nonzero" stroke-width="0.5" fill="#FFFFFF">
            <g transform="translate(-0.000000, -0.000000)">
                <path d="M63.7696202,85.57737 L63.6498944,52.3771858 L64.8471523,50.9389107 C64.9668781,50.6991982 65.0866039,48.781498 63.1709913,41.1106974 C60.6567497,30.8030589 57.1847018,27.6867962 49.7617028,20.9748456 L49.5222512,20.8549893 C42.6978812,14.74232 34.0776243,13.5437574 30.0069474,13.0643324 C29.6477701,13.0643324 29.2885927,12.9444761 28.9294153,12.9444761 C25.09819,12.3451948 24.8587384,11.9856261 24.7390127,11.6260573 C24.7390127,11.506201 24.6192869,11.506201 24.6192869,11.3863447 L24.1403837,9.1090758 L25.5770932,8.86936328 L25.9362706,10.9069197 C26.2954479,11.026776 27.0138027,11.2664885 29.0491411,11.506201 C29.4083185,11.506201 29.6477701,11.6260573 30.0069474,11.6260573 C34.3170759,12.2253386 43.1767843,13.4239012 50.3603317,19.776283 L50.5997833,19.8961392 C58.0227823,26.6080898 61.8540076,29.9640651 64.487975,40.7511286 C66.8824908,50.2197732 66.2838618,51.538192 65.9246845,51.8977608 L65.0866039,52.8566109 L65.2063297,85.57737 L63.7696202,85.57737 Z" id="Shape"></path>
                <path d="M3.30809623,85.097945 L1.87138675,84.9780887 C2.35028991,81.0228321 1.87138675,53.0963234 1.87138675,52.7367546 L2.35028991,52.7367546 L2.94891886,52.1374733 L3.30809623,52.4970421 L3.30809623,52.8566109 C3.30809623,53.815461 3.6672736,81.0228321 3.30809623,85.097945 Z" id="Shape"></path>
                <path d="M1.99111254,53.3360359 C1.63193517,53.2161797 0.554403062,52.3771858 0.195225691,50.9389107 L0.195225691,50.9389107 C-0.283677469,49.1410668 0.674128852,33.2001842 3.78699939,23.9712521 C7.01959573,14.3827513 8.21685363,12.1054823 8.81548258,11.3863447 C9.05493416,11.026776 9.29438574,10.7870634 9.53383732,10.7870634 L10.2521921,10.4274947 L10.1324663,8.86936328 L11.5691757,8.74950702 L11.6889015,10.5473509 C11.6889015,11.026776 11.44945,11.506201 10.9705468,11.7459135 L10.0127405,12.2253386 L10.0127405,12.2253386 L10.0127405,12.3451948 L9.89301469,12.4650511 C9.53383732,12.8246199 8.33657942,14.9820326 5.10398309,24.5705334 C1.87138675,34.039178 1.2727578,49.3807793 1.51220938,50.5793419 L1.51220938,50.5793419 C1.75166096,51.4183358 2.4700157,52.0176171 2.58974149,52.0176171 L1.99111254,53.3360359 Z" id="Shape"></path>
                <path d="M34.6762532,103.316097 C26.4151737,103.316097 18.5132716,102.596959 12.2875305,101.757965 C2.35028991,100.439546 0.314951481,95.1658708 0.434677271,90.9709017 L0.434677271,90.8510455 C0.913580432,86.6560763 1.39248359,85.4575137 1.75166096,85.097945 L1.75166096,85.097945 L1.75166096,85.097945 C1.87138675,84.9780887 1.87138675,84.9780887 1.99111254,84.9780887 L2.11083833,85.097945 L3.30809623,85.097945 C3.30809623,85.4575137 3.18837044,85.8170825 3.06864465,85.9369388 L2.94891886,86.056795 L2.82919307,86.1766513 C2.4700157,86.6560763 2.11083833,89.0532016 1.87138675,91.090758 C1.75166096,96.3644334 5.34343467,99.4806962 12.4072563,100.439546 C22.7036742,101.757965 37.669398,102.836672 50.9589607,100.799115 C57.064976,99.840265 61.1356528,98.4019899 63.2907171,96.604146 C64.9668781,95.1658708 65.2063297,93.6077395 65.3260555,92.0496081 L65.3260555,91.9297518 C65.5655071,89.6524829 64.3682492,86.7759326 63.889346,85.9369388 L65.2063297,85.2178012 C65.8049587,86.4163638 67.1219424,89.2929141 66.762765,91.9297518 L66.762765,92.0496081 C66.6430392,93.6077395 66.4035876,95.6452959 64.2485234,97.562996 C61.8540076,99.6005525 57.6636049,101.158684 51.1984123,102.117534 C45.8107517,102.956528 40.1836396,103.316097 34.6762532,103.316097 Z" id="Shape"></path>
                <path d="M26.5348995,9.94806962 L26.5348995,9.94806962 C26.4151737,9.94806962 26.1757221,9.94806962 26.0559964,9.82821336 C25.09819,9.46864458 23.0628516,8.86936328 19.1119005,8.86936328 C16.4779331,8.86936328 13.4847884,9.1090758 10.1324663,9.7083571 L10.0127405,9.7083571 C8.81548258,9.7083571 8.576031,9.22893206 8.576031,8.74950702 L8.576031,3.47583155 C8.576031,3.11626277 8.69575679,2.75669399 8.93520837,2.39712521 L8.93520837,2.39712521 L8.93520837,2.39712521 C9.29438574,2.03755643 9.89301469,1.19856261 10.9705468,0.838993824 L11.0902726,0.838993824 L11.3297242,0.838993824 C11.8086273,0.719137563 14.6820463,0.359568782 18.1540942,0.359568782 C21.0275132,0.359568782 23.422029,0.599281303 25.3376416,1.19856261 L25.3376416,1.19856261 C25.696819,1.19856261 27.8518832,2.03755643 27.8518832,3.59568782 C27.8518832,4.43468164 27.7321574,7.91051319 27.4927058,8.98921954 C27.4927058,9.22893206 27.37298,9.46864458 27.2532543,9.58850084 C27.0138027,9.82821336 26.7743511,9.94806962 26.5348995,9.94806962 Z M19.1119005,7.43108815 C22.5839484,7.43108815 24.7390127,7.91051319 26.0559964,8.27008197 C26.1757221,7.07151937 26.2954479,4.5545379 26.2954479,3.59568782 C26.2954479,3.23611903 25.4573674,2.75669399 24.7390127,2.51698147 C23.0628516,2.03755643 20.7880616,1.79784391 18.0343684,1.79784391 C14.4425947,1.79784391 11.44945,2.27726895 11.3297242,2.27726895 L11.3297242,2.27726895 C10.7310952,2.51698147 10.3719178,2.99640651 10.1324663,3.23611903 C10.1324663,3.35597529 10.0127405,3.47583155 10.0127405,3.47583155 L10.1324663,8.15022571 C13.4847884,7.67080067 16.4779331,7.43108815 19.1119005,7.43108815 Z" id="Shape"></path>
                <path d="M46.2896549,45.7850915 C39.8244622,45.7850915 32.521189,44.3468164 26.1757221,39.4327097 C22.8234,36.795872 18.5132716,32.0016216 17.0765621,23.6116833 C16.2384816,18.6975766 16.7173847,14.8621763 16.7173847,14.6224638 C16.8371105,14.262895 17.1962879,13.9033262 17.5554653,14.0231825 C17.9146426,14.1430387 18.27382,14.5026075 18.1540942,14.8621763 L18.1540942,14.8621763 C18.1540942,14.8621763 17.5554653,18.5777204 18.5132716,23.3719708 C19.5908037,29.7243526 22.4642226,34.6384593 27.1335285,38.2341471 C38.0285754,46.6240853 52.0364928,44.4666726 59.4594918,42.4291162 C59.8186692,42.30926 60.2975723,42.5489725 60.4172981,42.9085413 C60.5370239,43.26811 60.2975723,43.7475351 59.9383949,43.8673913 C56.3466212,44.7063852 51.5575896,45.7850915 46.2896549,45.7850915 Z" id="Shape"></path>
                <path d="M49.641977,38.9532847 L49.641977,38.9532847 C46.1699291,38.8334284 41.8598006,37.0355845 36.5918659,33.6796092 C32.8803664,31.282484 30.1266732,28.8853588 29.8872216,28.6456463 C29.5280443,28.4059337 24.0206579,23.7315396 26.8940769,19.8961392 C28.4505122,17.8585828 30.3661248,17.499014 31.4436569,17.499014 L32.0422859,17.499014 L32.1620116,17.499014 L32.2817374,17.499014 L32.4014632,17.499014 C35.5143338,18.2181516 46.1699291,21.0947018 53.3534765,31.282484 C53.5929281,31.6420528 55.7479923,34.518603 54.5507344,36.795872 C53.8323797,38.2341471 52.2759444,38.9532847 49.641977,38.9532847 Z M31.4436569,19.0571454 C30.4858506,19.0571454 29.2885927,19.4167142 28.0913348,20.8549893 C25.9362706,23.4918271 30.7253022,27.4470837 30.845028,27.5669399 L30.845028,27.5669399 C30.9647537,27.6867962 42.0992522,37.275297 49.641977,37.5150095 C50.9589607,37.5150095 52.7548475,37.275297 53.2337507,36.3164469 C53.8323797,35.1178843 52.6351218,33.0803279 52.1562186,32.3611903 C45.2121228,22.6528332 35.0354306,19.776283 32.0422859,19.1770017 L32.0422859,19.1770017 L32.0422859,19.1770017 C31.8028343,19.0571454 31.6831085,19.0571454 31.4436569,19.0571454 Z" id="Shape"></path>
                <rect id="Rectangle-path" x="2.23056412" y="52.0176171" width="0.23945158" height="1.43827513"></rect>
                <path d="M64.0090718,53.9353172 C46.0502033,51.8977608 2.70946728,53.4558922 2.23056412,53.4558922 L2.23056412,52.0176171 C2.70946728,52.0176171 46.0502033,50.4594857 64.1287976,52.4970421 L64.0090718,53.9353172 Z" id="Shape"></path>
                <rect id="Rectangle-path" x="64.487975" y="84.8582324" width="0.23945158" height="1.43827513"></rect>
                <path d="M32.7606406,88.4539203 C28.4505122,88.4539203 24.2601095,88.334064 20.0697068,88.0943515 C8.21685363,87.3752139 2.23056412,85.8170825 2.23056412,85.8170825 L2.58974149,84.3788074 C2.82919307,84.3788074 25.09819,89.8921954 64.3682492,84.9780887 L64.6077008,86.4163638 C53.4732023,87.7347827 42.817607,88.4539203 32.7606406,88.4539203 Z" id="Shape"></path>
                <rect id="Rectangle-path" x="2.35028991" y="84.2589511" width="0.23945158" height="1.43827513"></rect>
            </g>
        </g>
        <g id="Group" transform="translate(30.664109, 61.860265) rotate(-9.000000) translate(-30.664109, -61.860265) translate(7.164109, 16.860265)" stroke="#FFFFFF" stroke-width="0.5" fill="#FFFFFF" fill-rule="nonzero">
            <g transform="translate(0.000000, 0.000000)" id="Shape">
                <path d="M45.168563,28.5467002 C44.4342341,22.6617514 43.6999052,18.0062597 43.6989274,18.0023442 L43.6989274,18.0023442 C43.6764379,17.4796292 43.4926113,16.9794281 43.1904706,16.5399168 C42.6233457,15.7157107 41.6973677,15.0481234 40.493694,14.4490567 C39.7241642,14.0692563 38.8304536,13.7246951 37.8399407,13.4114577 L37.8399407,1.4683006 C37.8399407,1.28721019 37.7666056,1.11101412 37.6394914,0.9837614 C37.5123772,0.856508682 37.3373507,0.783093652 37.1564575,0.783093652 L9.77801512,0.783093652 C9.59712184,0.783093652 9.42111757,0.856508682 9.29400337,0.9837614 C9.16688917,1.11101412 9.09355406,1.28721019 9.09355406,1.4683006 L9.09355406,13.4153731 C7.44106951,13.9380881 6.06530278,14.5469435 5.05230041,15.264453 C4.50962057,15.6501266 4.06569869,16.067124 3.74302419,16.5399168 C3.44088352,16.9794281 3.25803464,17.4796292 3.2345674,18.0023442 L3.2345674,18.0023442 C3.2335896,18.0072385 2.49926066,22.6627303 1.76395393,28.5467002 C1.03060279,34.4345856 0.293340454,41.5382239 0.292362652,46.4961856 C0.294318255,52.4506339 1.51950355,62.9685605 2.74371104,72.0387428 C3.96694073,81.1030518 5.19017043,88.693187 5.19017043,88.693187 C5.24394951,89.0289384 5.52946755,89.2726763 5.86680907,89.2726763 L41.0676635,89.2726763 C41.4040272,89.2726763 41.6895453,89.0289384 41.7433243,88.6961236 C41.7433243,88.6961236 42.966554,81.1020729 44.1897837,72.0377639 C45.4130134,62.9675817 46.6391765,52.4496551 46.6411321,46.4952067 C46.6401543,41.5392028 45.902892,34.4345856 45.168563,28.5467002 Z M28.5801604,2.15350754 C28.4266456,3.30954955 27.9162332,4.34910637 27.1320364,5.13611549 C26.1923691,6.07582787 24.9006933,6.65629604 23.4672363,6.65629604 C22.0347571,6.65629604 20.7430813,6.07582787 19.803414,5.13611549 C19.0172616,4.3481275 18.507827,3.30857068 18.3543122,2.15252868 L28.5801604,2.15350754 Z M16.9521448,2.15252868 C17.2953531,5.45228955 20.0811097,8.02573106 23.4672363,8.02670993 C26.8553185,8.02573106 29.6400972,5.45228955 29.9823278,2.15350754 L36.4719964,2.15350754 L36.4719964,13.0150165 C35.4951727,12.7595322 34.4411027,12.5334139 33.3176087,12.3395982 C30.4076714,11.8364605 27.0479454,11.5506314 23.4672363,11.5506314 C18.5000046,11.5516102 13.9737614,12.1017335 10.4614984,13.0218686 L10.4614984,2.15252868 L16.9521448,2.15252868 Z M42.8345508,71.8547158 C42.2234249,76.3770816 40.7361888,86.3027936 40.60223,87.154408 C40.5543177,87.4607934 40.5161834,87.6986581 40.483916,87.9022624 L6.45153438,87.9022624 C6.41926693,87.6986581 6.38113267,87.4607934 6.33322039,87.154408 C5.86583127,84.1737578 4.69638066,76.5562143 3.64524404,68.4061671 C2.59410741,60.2619931 1.66128477,51.5628015 1.66324037,46.4961856 C1.66226257,41.6644977 2.3917025,34.5755425 3.12407583,28.7170231 C3.4897736,25.7862951 3.85644916,23.1590159 4.13023359,21.2668659 C4.40499581,19.3727581 4.58784469,18.2196527 4.58784469,18.2196527 L4.59566711,18.1090407 C4.59664491,17.8604085 4.67389123,17.6068819 4.87336274,17.3122429 C5.21852667,16.7973588 5.96067802,16.2100386 7.04505989,15.6785138 C8.6682104,14.8748639 11.0286233,14.1759528 13.8495806,13.6894559 C16.6724936,13.2019801 19.9598623,12.9210453 23.4672363,12.9220241 C28.8109215,12.9210453 33.6500612,13.5759073 37.0987672,14.6135064 C38.8216534,15.1293694 40.1964424,15.7460556 41.0901529,16.3832981 C41.5370082,16.700451 41.8616383,17.0195617 42.060132,17.3132218 C42.2586257,17.6078608 42.3368499,17.8623662 42.3378277,18.1100196 L42.3466279,18.2167161 C42.3466279,18.2167161 42.5294768,19.3737369 42.8032612,21.2668659 C43.6285257,26.9394005 45.2741656,39.2427806 45.27221,46.4961856 C45.2741656,52.288142 44.0548471,62.8158573 42.8345508,71.8547158 Z"></path>
                <path d="M34.695825,43.0701509 L11.6519667,43.0701509 C11.415127,43.0701509 11.1846884,43.1849146 11.0182606,43.3838384 C10.8518327,43.5827622 10.7558166,43.8581951 10.7558166,44.141279 L10.7558166,68.6242069 C10.7558166,68.9072908 10.8518327,69.1811935 11.0182606,69.3816475 C11.1846884,69.5805713 11.4164072,69.695335 11.6519667,69.695335 L34.695825,69.695335 C34.9313844,69.695335 35.161823,69.5805713 35.3295311,69.3816475 C35.495959,69.1811935 35.591975,68.9042304 35.591975,68.6242069 L35.591975,44.141279 C35.591975,43.8581951 35.495959,43.5827622 35.3295311,43.3838384 C35.161823,43.1849146 34.9326646,43.0701509 34.695825,43.0701509 Z M12.5481167,67.5530788 L12.5481167,45.2108769 L33.7996749,45.2124071 L33.7996749,67.5530788 L12.5481167,67.5530788 Z"></path>
                <path d="M34.907514,28.3871449 L11.4402777,28.3871449 C11.0618685,28.3871449 10.7558166,28.6935303 10.7558166,29.0723518 C10.7558166,29.4511734 11.0618685,29.7575588 11.4402777,29.7575588 L34.907514,29.7575588 C35.2859232,29.7575588 35.591975,29.4511734 35.591975,29.0723518 C35.591975,28.6935303 35.2859232,28.3871449 34.907514,28.3871449 Z"></path>
            </g>
        </g>
        <path d="M70.8916907,142.947835 C71.6592464,142.947835 72.1709502,143.504533 72.1709502,144.171802 L72.1709502,194.581349 C72.1709502,195.248619 71.5952834,195.805316 70.8916907,195.805316 L34.5607201,195.805316 C34.688646,195.304864 34.752609,194.803772 34.752609,194.247714 L34.752609,143.504533 C34.752609,143.337076 34.688646,143.114653 34.688646,142.947835 L70.8916907,142.947835 Z" id="Fill-1" fill="#FFFFFF" transform="translate(53.365835, 169.376576) rotate(102.000000) translate(-53.365835, -169.376576) "></path>
        <path d="M96.3465855,133.095092 C95.2592149,133.095092 85.6008055,132.967262 85.6008055,128.684975 C85.6008055,124.338774 95.2592149,124.274859 96.3465855,124.274859 C97.4339561,124.274859 107.156329,124.402689 107.156329,128.684975 C107.156329,132.967262 97.4979191,133.095092 96.3465855,133.095092 M96.3465855,116.605092 C81.6990639,116.605092 66.1560606,120.887379 66.1560606,128.684975 C66.1560606,136.482572 81.7630269,140.700944 96.4105485,140.700944 C111.05807,140.700944 126.665036,136.482572 126.665036,128.684975 C126.665036,120.887379 110.994107,116.605092 96.3465855,116.605092" id="Fill-3" fill="#FFFFFF" transform="translate(96.410548, 128.653018) rotate(102.000000) translate(-96.410548, -128.653018) "></path>
        <path d="M46.4440335,74.294739 L46.4440335,125.298692 C46.4440335,133.096289 62.0509997,137.378576 76.6985214,137.378576 L76.8264473,137.378576 L76.8264473,82.539739 L76.6985214,82.539739 C67.2320008,82.539739 52.7763681,80.6222971 46.4440335,74.294739" id="Fill-5" fill="#FFFFFF" transform="translate(61.635240, 105.836658) rotate(102.000000) translate(-61.635240, -105.836658) "></path>
        <path d="M50.0188726,82.8083521 L50.0188726,120.006724 C50.0188726,125.695135 61.4042824,128.826957 72.0860995,128.826957 L72.1500625,128.826957 L72.1500625,88.7524219 L72.0860995,88.7524219 C65.178098,88.7524219 54.6242069,87.3462979 50.0188726,82.8083521" id="Fill-7" fill="#285AD1" transform="translate(61.084468, 105.817654) rotate(102.000000) translate(-61.084468, -105.817654) "></path>
        <path d="M41.3082829,168.194215 C55.1242858,167.682897 68.8763257,163.592354 68.8763257,156.178246 L68.8763257,105.110378 C63.1196578,110.862703 50.5829145,112.971889 41.3082829,113.355378 L41.3082829,168.194215 Z" id="Fill-9" fill="#FFFFFF" transform="translate(55.092304, 136.652296) rotate(102.000000) translate(-55.092304, -136.652296) "></path>
        <path d="M43.9221385,160.784601 C54.0922518,160.401113 64.262365,157.397121 64.262365,151.900454 L64.262365,114.254679 C60.0408086,118.536965 50.766177,120.070919 43.9221385,120.390493 L43.9221385,160.784601 Z" id="Fill-11" fill="#1A40A9" transform="translate(54.092252, 137.519640) rotate(102.000000) translate(-54.092252, -137.519640) "></path>
        <mask id="mask-2" fill="white">
            <use xlink:href="#path-1"></use>
        </mask>
        <g id="Clip-14" transform="translate(63.981050, 133.077759) rotate(102.000000) translate(-63.981050, -133.077759) "></g>
        <polygon id="Fill-13" stroke="none" fill="#113091" fill-rule="evenodd" transform="translate(52.059013, 169.229426) rotate(102.000000) translate(-52.059013, -169.229426) " points="39.5222698 187.892527 64.5957566 187.892527 64.5957566 150.566325 39.5222698 150.566325"></polygon>
        <path d="M47.7509122,162.513236 L36.6114765,173.648412 C36.760499,175.547723 38.3252358,177.000137 40.262529,177.000137 L47.7881678,177.000137 L55.0157616,169.775307 L47.7509122,162.513236 Z" id="Fill-3" fill="#FFFFFF" mask="url(#mask-2)" transform="translate(45.813619, 169.756687) rotate(13.000000) translate(-45.813619, -169.756687) "></path>
        <polygon id="Fill-5" fill="#FFFFFF" mask="url(#mask-2)" transform="translate(57.335877, 175.105793) rotate(13.000000) translate(-57.335877, -175.105793) " points="49.2700313 179.146484 65.4017225 179.146484 57.3545047 171.065102"></polygon>
        <path d="M42.4862652,159.624372 C43.7414077,159.624372 44.7588591,160.674951 44.7588591,161.970579 C44.7588591,163.266207 43.7414077,164.316787 42.4862652,164.316787 C41.2311228,164.316787 40.2136713,163.266207 40.2136713,161.970579 C40.2136713,160.674951 41.2311228,159.624372 42.4862652,159.624372" id="Fill-7" fill="#FFFFFF" mask="url(#mask-2)" transform="translate(42.486265, 161.970579) rotate(13.000000) translate(-42.486265, -161.970579) "></path>
        <path d="M54.7036956,164.488085 C54.9272295,164.711533 55.2997859,165.009464 55.3742971,165.121188 C55.3742971,165.15843 55.4115528,165.195671 55.4488084,165.232913 C55.597831,165.381878 55.8213648,165.381878 55.9703873,165.232913 C56.0448986,165.15843 56.0821543,165.046706 56.0821543,164.934981 C56.0821543,164.823257 56.0448986,164.711533 55.8586204,164.525326 C57.0880565,165.121188 57.5723798,165.344637 57.8331692,165.344637 C57.9449361,165.344637 58.0194474,165.307395 58.0939587,165.232913 C58.16847,165.15843 58.2057256,165.046706 58.2057256,164.934981 C58.2057256,164.823257 58.16847,164.711533 57.9821918,164.525326 C59.7704624,165.381878 59.9567406,165.456361 60.2175301,165.232913 C60.2920413,165.15843 60.329297,165.046706 60.329297,164.934981 C60.329297,164.823257 60.2920413,164.711533 60.1057631,164.525326 C61.8940338,165.381878 62.0803119,165.456361 62.3411014,165.232913 C62.4156127,165.15843 62.4528683,165.046706 62.4528683,164.934981 C62.4528683,164.823257 62.4156127,164.711533 62.2293345,164.525326 C64.0176051,165.381878 64.2038833,165.456361 64.4646728,165.232913 C64.539184,165.15843 64.5764397,165.046706 64.5764397,164.934981 C64.5764397,164.823257 64.539184,164.711533 64.3529059,164.525326 C66.1411765,165.381878 66.3274547,165.456361 66.5882441,165.232913 C66.6627554,165.15843 66.700011,165.046706 66.700011,164.934981 C66.700011,164.823257 66.6627554,164.711533 66.4764772,164.525326 C68.2647478,165.381878 68.451026,165.456361 68.7118155,165.232913 C68.7863268,165.15843 68.8235824,165.046706 68.8235824,164.934981 C68.8235824,164.711533 68.7118155,164.599809 67.9294471,163.892223 L67.8921915,163.854981 C67.9294471,163.854981 67.9667027,163.854981 68.0039584,163.892223 C69.1961388,164.07843 69.3451613,164.07843 69.4941839,163.929464 C69.5686952,163.854981 69.6059508,163.743257 69.6059508,163.668774 C69.6059508,163.482567 69.4941839,163.408084 69.3451613,163.259119 C69.3079057,163.221878 69.2706501,163.221878 69.2706501,163.184636 L69.2333944,163.147395 C69.0843719,162.998429 68.860838,162.998429 68.7118155,163.147395 C68.6745598,163.184636 68.6745598,163.221878 68.6373042,163.259119 C68.451026,163.221878 68.2647478,163.221878 68.1157253,163.184636 C66.9235449,162.998429 66.7745223,162.998429 66.6254998,163.147395 C66.5509885,163.221878 66.5137329,163.333602 66.5137329,163.445326 C66.5137329,163.55705 66.5509885,163.668774 66.7372667,163.854981 C64.9489961,162.998429 64.7627179,162.923946 64.5019284,163.147395 C64.4274171,163.221878 64.3901615,163.333602 64.3901615,163.445326 C64.3901615,163.55705 64.4274171,163.668774 64.6136953,163.854981 C62.8254247,162.998429 62.6391465,162.923946 62.378357,163.147395 C62.3038458,163.221878 62.2665901,163.333602 62.2665901,163.445326 C62.2665901,163.55705 62.3038458,163.668774 62.490124,163.854981 C60.7018533,162.998429 60.5155752,162.923946 60.2547857,163.147395 C60.1802744,163.221878 60.1430188,163.333602 60.1430188,163.445326 C60.1430188,163.55705 60.1802744,163.668774 60.3665526,163.854981 C58.578282,162.998429 58.3920038,162.923946 58.1312143,163.147395 C58.0567031,163.221878 58.0194474,163.333602 58.0194474,163.445326 C58.0194474,163.55705 58.0567031,163.668774 58.2429812,163.854981 C56.4547106,162.998429 56.2684324,162.923946 56.007643,163.147395 C55.9331317,163.221878 55.8958761,163.333602 55.8958761,163.445326 C55.8958761,163.55705 55.9331317,163.668774 56.1194099,163.854981 C54.3311393,162.998429 54.1448611,162.923946 53.8840716,163.147395 C53.8095603,163.221878 53.7723047,163.333602 53.7723047,163.445326 C53.7723047,163.668774 53.8840716,163.780498 54.7036956,164.488085" id="Fill-11" fill="#FFFFFF" mask="url(#mask-2)" transform="translate(61.689128, 164.190154) rotate(13.000000) translate(-61.689128, -164.190154) "></path>
        <path d="M68.8098997,166.885861 C68.8844109,166.811379 68.9216666,166.699654 68.9216666,166.625172 C68.9216666,166.438965 68.8098997,166.364482 68.6608771,166.215516 C68.6236215,166.178275 68.5863658,166.178275 68.5863658,166.141034 L68.5491102,166.103792 C68.4000876,165.954827 68.1765538,165.954827 68.0275313,166.103792 C67.9902756,166.141034 67.95302,166.178275 67.95302,166.215516 C67.7667418,166.178275 67.5804636,166.178275 67.4314411,166.141034 C66.2392607,165.954827 66.0902381,165.954827 65.9412155,166.103792 C65.8667043,166.178275 65.8294486,166.289999 65.8294486,166.364482 C65.8294486,166.438965 65.8294486,166.513448 65.9039599,166.550689 C65.8667043,166.550689 65.8667043,166.550689 65.8294486,166.513448 C64.2274562,165.880344 64.0784337,165.843103 63.8548998,166.066551 C63.7803886,166.141034 63.7431329,166.252758 63.7431329,166.327241 C63.7431329,166.401723 63.7431329,166.476206 63.8176442,166.513448 C63.7803886,166.513448 63.7803886,166.513448 63.7431329,166.476206 C62.1411405,165.843103 61.9921179,165.805861 61.7685841,166.029309 C61.6940728,166.103792 61.6568172,166.215516 61.6568172,166.289999 C61.6568172,166.364482 61.6568172,166.438965 61.7313285,166.476206 C61.6940728,166.476206 61.6940728,166.476206 61.6568172,166.438965 C60.0548248,165.805861 59.9058022,165.76862 59.6450127,165.992068 C59.5705015,166.066551 59.5332458,166.178275 59.5332458,166.252758 C59.5332458,166.327241 59.5332458,166.401723 59.6077571,166.476206 C59.5705015,166.476206 59.5705015,166.476206 59.5332458,166.438965 C57.9312534,165.805861 57.7449752,165.76862 57.5214414,165.992068 C57.4469301,166.066551 57.4096745,166.178275 57.4096745,166.252758 C57.4096745,166.327241 57.4096745,166.401723 57.4841858,166.476206 C57.4469301,166.476206 57.4469301,166.476206 57.4096745,166.438965 C55.807682,165.805861 55.6214039,165.76862 55.39787,165.992068 C55.3233588,166.066551 55.2861031,166.178275 55.2861031,166.252758 C55.2861031,166.327241 55.2861031,166.401723 55.3606144,166.476206 C55.3233588,166.476206 55.3233588,166.476206 55.2861031,166.438965 C53.6841107,165.805861 53.4978325,165.76862 53.2742987,165.992068 C53.1997874,166.066551 53.1625318,166.178275 53.1625318,166.252758 C53.1625318,166.476206 53.2742987,166.550689 53.8331332,167.072068 C53.9821558,167.221034 54.2056896,167.407241 54.2802009,167.481724 C54.2802009,167.518965 54.3174565,167.556206 54.3547122,167.593448 C54.5037347,167.742413 54.7272686,167.742413 54.8762911,167.593448 C54.9508024,167.518965 54.988058,167.407241 54.988058,167.332758 C54.988058,167.258275 54.988058,167.183793 54.9135467,167.10931 C54.9508024,167.10931 54.9508024,167.10931 54.988058,167.146551 C56.0684715,167.556206 56.4782835,167.742413 56.7018174,167.742413 C56.8135843,167.742413 56.8880955,167.705172 56.9626068,167.630689 C57.0371181,167.556206 57.0743737,167.444482 57.0743737,167.369999 C57.0743737,167.295517 57.0743737,167.221034 56.9998625,167.146551 C57.0371181,167.146551 57.0371181,167.146551 57.0743737,167.183793 C58.6763662,167.816896 58.8626444,167.854138 59.0861782,167.630689 C59.1606895,167.556206 59.1979451,167.444482 59.1979451,167.369999 C59.1979451,167.295517 59.1979451,167.221034 59.1234338,167.146551 C59.1606895,167.146551 59.1606895,167.146551 59.1979451,167.183793 C60.7999375,167.816896 60.9489601,167.854138 61.2097495,167.630689 C61.2842608,167.556206 61.3215165,167.444482 61.3215165,167.369999 C61.3215165,167.295517 61.3215165,167.221034 61.2470052,167.146551 C61.2842608,167.146551 61.2842608,167.146551 61.3215165,167.183793 C62.9235089,167.816896 63.0725314,167.854138 63.3333209,167.630689 C63.4078322,167.556206 63.4450878,167.444482 63.4450878,167.369999 C63.4450878,167.295517 63.4450878,167.221034 63.3705765,167.146551 C63.4078322,167.146551 63.4078322,167.146551 63.4450878,167.183793 C65.0470802,167.816896 65.1961028,167.854138 65.4196366,167.630689 C65.4941479,167.556206 65.5314035,167.444482 65.5314035,167.369999 C65.5314035,167.295517 65.5314035,167.221034 65.4568923,167.183793 C65.4941479,167.183793 65.4941479,167.183793 65.5314035,167.221034 C67.133396,167.854138 67.2824185,167.891379 67.5059523,167.667931 C67.5804636,167.593448 67.6177193,167.481724 67.6177193,167.407241 C67.6177193,167.221034 67.543208,167.146551 67.2079072,166.84862 L67.3196741,166.84862 C68.5118546,167.034827 68.6608771,167.072068 68.8098997,166.885861" id="Fill-13" fill="#FFFFFF" mask="url(#mask-2)" transform="translate(61.042099, 166.829999) rotate(13.000000) translate(-61.042099, -166.829999) "></path>
        <path d="M67.7987754,169.546781 C67.7615198,169.50954 67.7242642,169.50954 67.7242642,169.472298 L67.6870085,169.435057 C67.537986,169.286091 67.3144521,169.286091 67.1654296,169.435057 C67.128174,169.472298 67.0909183,169.50954 67.0909183,169.546781 C66.9046401,169.50954 66.7183619,169.50954 66.5693394,169.472298 C65.377159,169.286091 65.2281364,169.286091 65.0791139,169.435057 C65.0046026,169.50954 64.967347,169.621264 64.967347,169.695747 C64.967347,169.770229 64.967347,169.844712 65.0418582,169.881953 C65.0046026,169.881953 65.0046026,169.881953 64.967347,169.844712 C63.3653545,169.211608 63.216332,169.174367 62.9927982,169.397815 C62.9182869,169.472298 62.8810312,169.584022 62.8810312,169.658505 C62.8810312,169.732988 62.8810312,169.807471 62.9555425,169.844712 C62.9182869,169.844712 62.9182869,169.844712 62.8810312,169.807471 C61.2790388,169.174367 61.1300163,169.137126 60.9064824,169.360574 C60.8319712,169.435057 60.7947155,169.546781 60.7947155,169.621264 C60.7947155,169.695747 60.7947155,169.770229 60.8692268,169.844712 C60.8319712,169.844712 60.8319712,169.844712 60.7947155,169.807471 C59.1927231,169.174367 59.0437005,169.137126 58.7829111,169.360574 C58.7083998,169.435057 58.6711442,169.546781 58.6711442,169.621264 C58.6711442,169.770229 58.7456554,169.881953 59.0437005,170.179885 L58.9691893,170.179885 C57.7397532,169.956436 57.5907307,169.919195 57.4044525,170.105402 C57.3299412,170.179885 57.2926856,170.291609 57.2926856,170.366092 C57.2926856,170.552298 57.4044525,170.626781 57.5907307,170.812988 L57.7024976,170.924712 C57.7024976,170.961954 57.7397532,170.961954 57.7397532,170.999195 C57.8887758,171.148161 58.1123096,171.148161 58.2613321,170.999195 C58.2985878,170.961954 58.3358434,170.887471 58.3358434,170.85023 C58.484866,170.887471 58.6338885,170.924712 58.7829111,170.924712 C60.0123471,171.148161 60.1613697,171.185402 60.3476479,170.999195 C60.4221591,170.924712 60.4594148,170.812988 60.4594148,170.738505 C60.4594148,170.664023 60.4594148,170.58954 60.3849035,170.515057 C60.4221591,170.515057 60.4221591,170.515057 60.4594148,170.552298 C61.5025726,170.961954 61.9496403,171.148161 62.1731741,171.148161 C62.284941,171.148161 62.3594523,171.110919 62.4339636,171.036437 C62.5084749,170.961954 62.5457305,170.85023 62.5457305,170.775747 C62.5457305,170.701264 62.5457305,170.626781 62.4712192,170.552298 C62.5084749,170.552298 62.5084749,170.552298 62.5457305,170.58954 C64.1477229,171.222644 64.2967455,171.259885 64.5575349,171.036437 C64.6320462,170.961954 64.6693019,170.85023 64.6693019,170.775747 C64.6693019,170.701264 64.6693019,170.626781 64.5947906,170.552298 C64.6320462,170.552298 64.6320462,170.552298 64.6693019,170.58954 C66.2712943,171.222644 66.4203168,171.259885 66.6438507,171.036437 C66.7183619,170.961954 66.7556176,170.85023 66.7556176,170.775747 C66.7556176,170.58954 66.6811063,170.515057 66.3458056,170.217126 L66.4575725,170.217126 C67.6497529,170.403333 67.7987754,170.403333 67.9850536,170.254367 C68.0595649,170.179885 68.0968205,170.06816 68.0968205,169.993678 C68.0595649,169.770229 67.9850536,169.695747 67.7987754,169.546781" id="Fill-15" fill="#FFFFFF" mask="url(#mask-2)" transform="translate(62.694753, 170.198505) rotate(13.000000) translate(-62.694753, -170.198505) "></path>
        <path d="M55.1789527,98.8120552 L44.039517,109.947231 C44.1885395,111.846542 45.7532763,113.298956 47.6905695,113.298956 L55.2162083,113.298956 L62.4438021,106.074126 L55.1789527,98.8120552 Z" id="Fill-3" fill="#FFFFFF" mask="url(#mask-2)" transform="translate(53.241660, 106.055505) rotate(13.000000) translate(-53.241660, -106.055505) "></path>
        <polygon id="Fill-5" fill="#FFFFFF" mask="url(#mask-2)" transform="translate(64.763917, 111.404612) rotate(13.000000) translate(-64.763917, -111.404612) " points="56.6980718 115.445303 72.829763 115.445303 64.7825452 107.363921"></polygon>
        <path d="M49.9143057,95.9231904 C51.1694481,95.9231904 52.1868996,96.97377 52.1868996,98.2693979 C52.1868996,99.5650258 51.1694481,100.615605 49.9143057,100.615605 C48.6591633,100.615605 47.6417118,99.5650258 47.6417118,98.2693979 C47.6417118,96.97377 48.6591633,95.9231904 49.9143057,95.9231904" id="Fill-7" fill="#FFFFFF" mask="url(#mask-2)" transform="translate(49.914306, 98.269398) rotate(13.000000) translate(-49.914306, -98.269398) "></path>
        <path d="M62.1317361,100.786904 C62.3552699,101.010352 62.7278263,101.308283 62.8023376,101.420007 C62.8023376,101.457249 62.8395932,101.49449 62.8768489,101.531731 C63.0258714,101.680697 63.2494052,101.680697 63.3984278,101.531731 C63.4729391,101.457249 63.5101947,101.345524 63.5101947,101.2338 C63.5101947,101.122076 63.4729391,101.010352 63.2866609,100.824145 C64.5160969,101.420007 65.0004202,101.643456 65.2612097,101.643456 C65.3729766,101.643456 65.4474879,101.606214 65.5219992,101.531731 C65.5965104,101.457249 65.6337661,101.345524 65.6337661,101.2338 C65.6337661,101.122076 65.5965104,101.010352 65.4102322,100.824145 C67.1985029,101.680697 67.3847811,101.75518 67.6455705,101.531731 C67.7200818,101.457249 67.7573374,101.345524 67.7573374,101.2338 C67.7573374,101.122076 67.7200818,101.010352 67.5338036,100.824145 C69.3220742,101.680697 69.5083524,101.75518 69.7691419,101.531731 C69.8436532,101.457249 69.8809088,101.345524 69.8809088,101.2338 C69.8809088,101.122076 69.8436532,101.010352 69.657375,100.824145 C71.4456456,101.680697 71.6319238,101.75518 71.8927132,101.531731 C71.9672245,101.457249 72.0044801,101.345524 72.0044801,101.2338 C72.0044801,101.122076 71.9672245,101.010352 71.7809463,100.824145 C73.5692169,101.680697 73.7554951,101.75518 74.0162846,101.531731 C74.0907959,101.457249 74.1280515,101.345524 74.1280515,101.2338 C74.1280515,101.122076 74.0907959,101.010352 73.9045177,100.824145 C75.6927883,101.680697 75.8790665,101.75518 76.1398559,101.531731 C76.2143672,101.457249 76.2516229,101.345524 76.2516229,101.2338 C76.2516229,101.010352 76.1398559,100.898628 75.3574876,100.191041 L75.3202319,100.1538 C75.3574876,100.1538 75.3947432,100.1538 75.4319988,100.191041 C76.6241792,100.377248 76.7732018,100.377248 76.9222243,100.228283 C76.9967356,100.1538 77.0339913,100.042076 77.0339913,99.9675931 C77.0339913,99.7813861 76.9222243,99.7069033 76.7732018,99.5579378 C76.7359462,99.5206964 76.6986905,99.5206964 76.6986905,99.483455 L76.6614349,99.4462136 C76.5124123,99.2972481 76.2888785,99.2972481 76.1398559,99.4462136 C76.1026003,99.483455 76.1026003,99.5206964 76.0653447,99.5579378 C75.8790665,99.5206964 75.6927883,99.5206964 75.5437657,99.483455 C74.3515853,99.2972481 74.2025628,99.2972481 74.0535402,99.4462136 C73.979029,99.5206964 73.9417733,99.6324206 73.9417733,99.7441447 C73.9417733,99.8558689 73.979029,99.9675931 74.1653071,100.1538 C72.3770365,99.2972481 72.1907583,99.2227653 71.9299689,99.4462136 C71.8554576,99.5206964 71.818202,99.6324206 71.818202,99.7441447 C71.818202,99.8558689 71.8554576,99.9675931 72.0417358,100.1538 C70.2534652,99.2972481 70.067187,99.2227653 69.8063975,99.4462136 C69.7318862,99.5206964 69.6946306,99.6324206 69.6946306,99.7441447 C69.6946306,99.8558689 69.7318862,99.9675931 69.9181644,100.1538 C68.1298938,99.2972481 67.9436156,99.2227653 67.6828262,99.4462136 C67.6083149,99.5206964 67.5710592,99.6324206 67.5710592,99.7441447 C67.5710592,99.8558689 67.6083149,99.9675931 67.7945931,100.1538 C66.0063225,99.2972481 65.8200443,99.2227653 65.5592548,99.4462136 C65.4847435,99.5206964 65.4474879,99.6324206 65.4474879,99.7441447 C65.4474879,99.8558689 65.4847435,99.9675931 65.6710217,100.1538 C63.8827511,99.2972481 63.6964729,99.2227653 63.4356834,99.4462136 C63.3611722,99.5206964 63.3239165,99.6324206 63.3239165,99.7441447 C63.3239165,99.8558689 63.3611722,99.9675931 63.5474504,100.1538 C61.7591797,99.2972481 61.5729015,99.2227653 61.3121121,99.4462136 C61.2376008,99.5206964 61.2003452,99.6324206 61.2003452,99.7441447 C61.2003452,99.9675931 61.3121121,100.079317 62.1317361,100.786904" id="Fill-11" fill="#FFFFFF" mask="url(#mask-2)" transform="translate(69.117168, 100.488973) rotate(13.000000) translate(-69.117168, -100.488973) "></path>
        <path d="M76.2379401,103.18468 C76.3124514,103.110197 76.349707,102.998473 76.349707,102.923991 C76.349707,102.737784 76.2379401,102.663301 76.0889176,102.514335 C76.0516619,102.477094 76.0144063,102.477094 76.0144063,102.439852 L75.9771507,102.402611 C75.8281281,102.253646 75.6045943,102.253646 75.4555717,102.402611 C75.4183161,102.439852 75.3810605,102.477094 75.3810605,102.514335 C75.1947823,102.477094 75.0085041,102.477094 74.8594815,102.439852 C73.6673011,102.253646 73.5182786,102.253646 73.369256,102.402611 C73.2947447,102.477094 73.2574891,102.588818 73.2574891,102.663301 C73.2574891,102.737784 73.2574891,102.812266 73.3320004,102.849508 C73.2947447,102.849508 73.2947447,102.849508 73.2574891,102.812266 C71.6554967,102.179163 71.5064741,102.141921 71.2829403,102.36537 C71.208429,102.439852 71.1711734,102.551577 71.1711734,102.626059 C71.1711734,102.700542 71.1711734,102.775025 71.2456847,102.812266 C71.208429,102.812266 71.208429,102.812266 71.1711734,102.775025 C69.5691809,102.141921 69.4201584,102.10468 69.1966246,102.328128 C69.1221133,102.402611 69.0848577,102.514335 69.0848577,102.588818 C69.0848577,102.663301 69.0848577,102.737784 69.1593689,102.775025 C69.1221133,102.775025 69.1221133,102.775025 69.0848577,102.737784 C67.4828652,102.10468 67.3338427,102.067439 67.0730532,102.290887 C66.9985419,102.36537 66.9612863,102.477094 66.9612863,102.551577 C66.9612863,102.626059 66.9612863,102.700542 67.0357976,102.775025 C66.9985419,102.775025 66.9985419,102.775025 66.9612863,102.737784 C65.3592939,102.10468 65.1730157,102.067439 64.9494819,102.290887 C64.8749706,102.36537 64.8377149,102.477094 64.8377149,102.551577 C64.8377149,102.626059 64.8377149,102.700542 64.9122262,102.775025 C64.8749706,102.775025 64.8749706,102.775025 64.8377149,102.737784 C63.2357225,102.10468 63.0494443,102.067439 62.8259105,102.290887 C62.7513992,102.36537 62.7141436,102.477094 62.7141436,102.551577 C62.7141436,102.626059 62.7141436,102.700542 62.7886549,102.775025 C62.7513992,102.775025 62.7513992,102.775025 62.7141436,102.737784 C61.1121512,102.10468 60.925873,102.067439 60.7023391,102.290887 C60.6278279,102.36537 60.5905722,102.477094 60.5905722,102.551577 C60.5905722,102.775025 60.7023391,102.849508 61.2611737,103.370887 C61.4101963,103.519853 61.6337301,103.70606 61.7082414,103.780543 C61.7082414,103.817784 61.745497,103.855025 61.7827526,103.892267 C61.9317752,104.041232 62.155309,104.041232 62.3043316,103.892267 C62.3788428,103.817784 62.4160985,103.70606 62.4160985,103.631577 C62.4160985,103.557094 62.4160985,103.482611 62.3415872,103.408129 C62.3788428,103.408129 62.3788428,103.408129 62.4160985,103.44537 C63.496512,103.855025 63.906324,104.041232 64.1298578,104.041232 C64.2416247,104.041232 64.316136,104.003991 64.3906473,103.929508 C64.4651586,103.855025 64.5024142,103.743301 64.5024142,103.668818 C64.5024142,103.594336 64.5024142,103.519853 64.4279029,103.44537 C64.4651586,103.44537 64.4651586,103.44537 64.5024142,103.482611 C66.1044066,104.115715 66.2906848,104.152956 66.5142186,103.929508 C66.5887299,103.855025 66.6259856,103.743301 66.6259856,103.668818 C66.6259856,103.594336 66.6259856,103.519853 66.5514743,103.44537 C66.5887299,103.44537 66.5887299,103.44537 66.6259856,103.482611 C68.227978,104.115715 68.3770005,104.152956 68.63779,103.929508 C68.7123013,103.855025 68.7495569,103.743301 68.7495569,103.668818 C68.7495569,103.594336 68.7495569,103.519853 68.6750456,103.44537 C68.7123013,103.44537 68.7123013,103.44537 68.7495569,103.482611 C70.3515493,104.115715 70.5005719,104.152956 70.7613614,103.929508 C70.8358726,103.855025 70.8731283,103.743301 70.8731283,103.668818 C70.8731283,103.594336 70.8731283,103.519853 70.798617,103.44537 C70.8358726,103.44537 70.8358726,103.44537 70.8731283,103.482611 C72.4751207,104.115715 72.6241433,104.152956 72.8476771,103.929508 C72.9221884,103.855025 72.959444,103.743301 72.959444,103.668818 C72.959444,103.594336 72.959444,103.519853 72.8849327,103.482611 C72.9221884,103.482611 72.9221884,103.482611 72.959444,103.519853 C74.5614364,104.152956 74.710459,104.190198 74.9339928,103.966749 C75.0085041,103.892267 75.0457597,103.780543 75.0457597,103.70606 C75.0457597,103.519853 74.9712484,103.44537 74.6359477,103.147439 L74.7477146,103.147439 C75.939895,103.333646 76.0889176,103.370887 76.2379401,103.18468" id="Fill-13" fill="#FFFFFF" mask="url(#mask-2)" transform="translate(68.470140, 103.128818) rotate(13.000000) translate(-68.470140, -103.128818) "></path>
        <path d="M75.2268159,105.8456 C75.1895603,105.808358 75.1523046,105.808358 75.1523046,105.771117 L75.115049,105.733876 C74.9660264,105.58491 74.7424926,105.58491 74.5934701,105.733876 C74.5562144,105.771117 74.5189588,105.808358 74.5189588,105.8456 C74.3326806,105.808358 74.1464024,105.808358 73.9973798,105.771117 C72.8051994,105.58491 72.6561769,105.58491 72.5071543,105.733876 C72.4326431,105.808358 72.3953874,105.920083 72.3953874,105.994565 C72.3953874,106.069048 72.3953874,106.143531 72.4698987,106.180772 C72.4326431,106.180772 72.4326431,106.180772 72.3953874,106.143531 C70.793395,105.510427 70.6443724,105.473186 70.4208386,105.696634 C70.3463273,105.771117 70.3090717,105.882841 70.3090717,105.957324 C70.3090717,106.031807 70.3090717,106.10629 70.383583,106.143531 C70.3463273,106.143531 70.3463273,106.143531 70.3090717,106.10629 C68.7070793,105.473186 68.5580567,105.435945 68.3345229,105.659393 C68.2600116,105.733876 68.222756,105.8456 68.222756,105.920083 C68.222756,105.994565 68.222756,106.069048 68.2972673,106.143531 C68.2600116,106.143531 68.2600116,106.143531 68.222756,106.10629 C66.6207636,105.473186 66.471741,105.435945 66.2109515,105.659393 C66.1364403,105.733876 66.0991846,105.8456 66.0991846,105.920083 C66.0991846,106.069048 66.1736959,106.180772 66.471741,106.478703 L66.3972297,106.478703 C65.1677937,106.255255 65.0187711,106.218014 64.8324929,106.404221 C64.7579817,106.478703 64.720726,106.590428 64.720726,106.66491 C64.720726,106.851117 64.8324929,106.9256 65.0187711,107.111807 L65.130538,107.223531 C65.130538,107.260773 65.1677937,107.260773 65.1677937,107.298014 C65.3168162,107.44698 65.5403501,107.44698 65.6893726,107.298014 C65.7266282,107.260773 65.7638839,107.18629 65.7638839,107.149048 C65.9129064,107.18629 66.061929,107.223531 66.2109515,107.223531 C67.4403876,107.44698 67.5894101,107.484221 67.7756883,107.298014 C67.8501996,107.223531 67.8874552,107.111807 67.8874552,107.037324 C67.8874552,106.962842 67.8874552,106.888359 67.812944,106.813876 C67.8501996,106.813876 67.8501996,106.813876 67.8874552,106.851117 C68.9306131,107.260773 69.3776808,107.44698 69.6012146,107.44698 C69.7129815,107.44698 69.7874928,107.409738 69.862004,107.335255 C69.9365153,107.260773 69.973771,107.149048 69.973771,107.074566 C69.973771,107.000083 69.973771,106.9256 69.8992597,106.851117 C69.9365153,106.851117 69.9365153,106.851117 69.973771,106.888359 C71.5757634,107.521462 71.7247859,107.558704 71.9855754,107.335255 C72.0600867,107.260773 72.0973423,107.149048 72.0973423,107.074566 C72.0973423,107.000083 72.0973423,106.9256 72.022831,106.851117 C72.0600867,106.851117 72.0600867,106.851117 72.0973423,106.888359 C73.6993347,107.521462 73.8483573,107.558704 74.0718911,107.335255 C74.1464024,107.260773 74.183658,107.149048 74.183658,107.074566 C74.183658,106.888359 74.1091468,106.813876 73.773846,106.515945 L73.8856129,106.515945 C75.0777933,106.702152 75.2268159,106.702152 75.4130941,106.553186 C75.4876054,106.478703 75.524861,106.366979 75.524861,106.292496 C75.4876054,106.069048 75.4130941,105.994565 75.2268159,105.8456" id="Fill-15" fill="#FFFFFF" mask="url(#mask-2)" transform="translate(70.122794, 106.497324) rotate(13.000000) translate(-70.122794, -106.497324) "></path>
        <path d="M48.2098228,130.648162 L37.0703871,140.546095 C37.2194096,142.234372 38.7841464,143.525407 40.7214396,143.525407 L48.2470784,143.525407 L55.4746722,137.103336 L48.2098228,130.648162 Z" id="Fill-3" fill="#FFFFFF" mask="url(#mask-2)" transform="translate(46.272530, 137.086784) rotate(12.000000) translate(-46.272530, -137.086784) "></path>
        <polygon id="Fill-5" fill="#FFFFFF" mask="url(#mask-2)" transform="translate(57.946682, 141.949316) rotate(12.000000) translate(-57.946682, -141.949316) " points="49.880836 145.541041 66.0125272 145.541041 57.9653094 138.357591"></polygon>
        <path d="M42.652167,128.017571 C43.9073094,128.017571 44.9247609,128.951419 44.9247609,130.103089 C44.9247609,131.254758 43.9073094,132.188606 42.652167,132.188606 C41.3970245,132.188606 40.379573,131.254758 40.379573,130.103089 C40.379573,128.951419 41.3970245,128.017571 42.652167,128.017571" id="Fill-7" fill="#FFFFFF" mask="url(#mask-2)" transform="translate(42.652167, 130.103089) rotate(12.000000) translate(-42.652167, -130.103089) "></path>
        <path d="M54.8554831,132.486594 C55.079017,132.685215 55.4515733,132.950043 55.5260846,133.049353 C55.5260846,133.082457 55.5633403,133.11556 55.6005959,133.148663 C55.7496184,133.281077 55.9731523,133.281077 56.1221748,133.148663 C56.1966861,133.082457 56.2339417,132.983146 56.2339417,132.883836 C56.2339417,132.784525 56.1966861,132.685215 56.0104079,132.519698 C57.239844,133.049353 57.7241673,133.247974 57.9849567,133.247974 C58.0967236,133.247974 58.1712349,133.21487 58.2457462,133.148663 C58.3202575,133.082457 58.3575131,132.983146 58.3575131,132.883836 C58.3575131,132.784525 58.3202575,132.685215 58.1339793,132.519698 C59.9222499,133.281077 60.1085281,133.347284 60.3693175,133.148663 C60.4438288,133.082457 60.4810845,132.983146 60.4810845,132.883836 C60.4810845,132.784525 60.4438288,132.685215 60.2575506,132.519698 C62.0458212,133.281077 62.2320994,133.347284 62.4928889,133.148663 C62.5674002,133.082457 62.6046558,132.983146 62.6046558,132.883836 C62.6046558,132.784525 62.5674002,132.685215 62.381122,132.519698 C64.1693926,133.281077 64.3556708,133.347284 64.6164603,133.148663 C64.6909715,133.082457 64.7282272,132.983146 64.7282272,132.883836 C64.7282272,132.784525 64.6909715,132.685215 64.5046933,132.519698 C66.292964,133.281077 66.4792422,133.347284 66.7400316,133.148663 C66.8145429,133.082457 66.8517985,132.983146 66.8517985,132.883836 C66.8517985,132.784525 66.8145429,132.685215 66.6282647,132.519698 C68.4165353,133.281077 68.6028135,133.347284 68.863603,133.148663 C68.9381143,133.082457 68.9753699,132.983146 68.9753699,132.883836 C68.9753699,132.685215 68.863603,132.585905 68.0812346,131.956939 L68.0439789,131.923836 C68.0812346,131.923836 68.1184902,131.923836 68.1557459,131.956939 C69.3479263,132.122456 69.4969488,132.122456 69.6459714,131.990042 C69.7204826,131.923836 69.7577383,131.824525 69.7577383,131.758318 C69.7577383,131.592801 69.6459714,131.526594 69.4969488,131.39418 C69.4596932,131.361077 69.4224375,131.361077 69.4224375,131.327973 L69.3851819,131.29487 C69.2361594,131.162456 69.0126255,131.162456 68.863603,131.29487 C68.8263473,131.327973 68.8263473,131.361077 68.7890917,131.39418 C68.6028135,131.361077 68.4165353,131.361077 68.2675128,131.327973 C67.0753324,131.162456 66.9263098,131.162456 66.7772873,131.29487 C66.702776,131.361077 66.6655203,131.460387 66.6655203,131.559698 C66.6655203,131.659008 66.702776,131.758318 66.8890542,131.923836 C65.1007836,131.162456 64.9145054,131.096249 64.6537159,131.29487 C64.5792046,131.361077 64.541949,131.460387 64.541949,131.559698 C64.541949,131.659008 64.5792046,131.758318 64.7654828,131.923836 C62.9772122,131.162456 62.790934,131.096249 62.5301445,131.29487 C62.4556333,131.361077 62.4183776,131.460387 62.4183776,131.559698 C62.4183776,131.659008 62.4556333,131.758318 62.6419115,131.923836 C60.8536408,131.162456 60.6673626,131.096249 60.4065732,131.29487 C60.3320619,131.361077 60.2948063,131.460387 60.2948063,131.559698 C60.2948063,131.659008 60.3320619,131.758318 60.5183401,131.923836 C58.7300695,131.162456 58.5437913,131.096249 58.2830018,131.29487 C58.2084905,131.361077 58.1712349,131.460387 58.1712349,131.559698 C58.1712349,131.659008 58.2084905,131.758318 58.3947687,131.923836 C56.6064981,131.162456 56.4202199,131.096249 56.1594305,131.29487 C56.0849192,131.361077 56.0476636,131.460387 56.0476636,131.559698 C56.0476636,131.659008 56.0849192,131.758318 56.2711974,131.923836 C54.4829268,131.162456 54.2966486,131.096249 54.0358591,131.29487 C53.9613478,131.361077 53.9240922,131.460387 53.9240922,131.559698 C53.9240922,131.758318 54.0358591,131.857629 54.8554831,132.486594" id="Fill-11" fill="#FFFFFF" mask="url(#mask-2)" transform="translate(61.840915, 132.221767) rotate(12.000000) translate(-61.840915, -132.221767) "></path>
        <path d="M69.0705258,134.626781 C69.145037,134.560574 69.1822927,134.461264 69.1822927,134.395057 C69.1822927,134.229539 69.0705258,134.163332 68.9215032,134.030919 C68.8842476,133.997815 68.8469919,133.997815 68.8469919,133.964712 L68.8097363,133.931608 C68.6607137,133.799194 68.4371799,133.799194 68.2881574,133.931608 C68.2509017,133.964712 68.2136461,133.997815 68.2136461,134.030919 C68.0273679,133.997815 67.8410897,133.997815 67.6920672,133.964712 C66.4998868,133.799194 66.3508642,133.799194 66.2018416,133.931608 C66.1273304,133.997815 66.0900747,134.097125 66.0900747,134.163332 C66.0900747,134.229539 66.0900747,134.295746 66.164586,134.32885 C66.1273304,134.32885 66.1273304,134.32885 66.0900747,134.295746 C64.4880823,133.732987 64.3390598,133.699884 64.1155259,133.898505 C64.0410147,133.964712 64.003759,134.064022 64.003759,134.130229 C64.003759,134.196436 64.003759,134.262643 64.0782703,134.295746 C64.0410147,134.295746 64.0410147,134.295746 64.003759,134.262643 C62.4017666,133.699884 62.252744,133.666781 62.0292102,133.865401 C61.9546989,133.931608 61.9174433,134.030919 61.9174433,134.097125 C61.9174433,134.163332 61.9174433,134.229539 61.9919546,134.262643 C61.9546989,134.262643 61.9546989,134.262643 61.9174433,134.229539 C60.3154509,133.666781 60.1664283,133.633677 59.9056389,133.832298 C59.8311276,133.898505 59.7938719,133.997815 59.7938719,134.064022 C59.7938719,134.130229 59.7938719,134.196436 59.8683832,134.262643 C59.8311276,134.262643 59.8311276,134.262643 59.7938719,134.229539 C58.1918795,133.666781 58.0056013,133.633677 57.7820675,133.832298 C57.7075562,133.898505 57.6703006,133.997815 57.6703006,134.064022 C57.6703006,134.130229 57.6703006,134.196436 57.7448119,134.262643 C57.7075562,134.262643 57.7075562,134.262643 57.6703006,134.229539 C56.0683082,133.666781 55.88203,133.633677 55.6584961,133.832298 C55.5839849,133.898505 55.5467292,133.997815 55.5467292,134.064022 C55.5467292,134.130229 55.5467292,134.196436 55.6212405,134.262643 C55.5839849,134.262643 55.5839849,134.262643 55.5467292,134.229539 C53.9447368,133.666781 53.7584586,133.633677 53.5349248,133.832298 C53.4604135,133.898505 53.4231579,133.997815 53.4231579,134.064022 C53.4231579,134.262643 53.5349248,134.32885 54.0937593,134.792298 C54.2427819,134.924712 54.4663157,135.090229 54.540827,135.156436 C54.540827,135.18954 54.5780826,135.222643 54.6153383,135.255746 C54.7643608,135.38816 54.9878947,135.38816 55.1369172,135.255746 C55.2114285,135.18954 55.2486841,135.090229 55.2486841,135.024022 C55.2486841,134.957815 55.2486841,134.891608 55.1741728,134.825402 C55.2114285,134.825402 55.2114285,134.825402 55.2486841,134.858505 C56.3290976,135.222643 56.7389096,135.38816 56.9624435,135.38816 C57.0742104,135.38816 57.1487216,135.355057 57.2232329,135.28885 C57.2977442,135.222643 57.3349998,135.123333 57.3349998,135.057126 C57.3349998,134.990919 57.3349998,134.924712 57.2604886,134.858505 C57.2977442,134.858505 57.2977442,134.858505 57.3349998,134.891608 C58.9369923,135.454367 59.1232705,135.487471 59.3468043,135.28885 C59.4213156,135.222643 59.4585712,135.123333 59.4585712,135.057126 C59.4585712,134.990919 59.4585712,134.924712 59.3840599,134.858505 C59.4213156,134.858505 59.4213156,134.858505 59.4585712,134.891608 C61.0605636,135.454367 61.2095862,135.487471 61.4703756,135.28885 C61.5448869,135.222643 61.5821426,135.123333 61.5821426,135.057126 C61.5821426,134.990919 61.5821426,134.924712 61.5076313,134.858505 C61.5448869,134.858505 61.5448869,134.858505 61.5821426,134.891608 C63.184135,135.454367 63.3331575,135.487471 63.593947,135.28885 C63.6684583,135.222643 63.7057139,135.123333 63.7057139,135.057126 C63.7057139,134.990919 63.7057139,134.924712 63.6312026,134.858505 C63.6684583,134.858505 63.6684583,134.858505 63.7057139,134.891608 C65.3077063,135.454367 65.4567289,135.487471 65.6802627,135.28885 C65.754774,135.222643 65.7920296,135.123333 65.7920296,135.057126 C65.7920296,134.990919 65.7920296,134.924712 65.7175184,134.891608 C65.754774,134.891608 65.754774,134.891608 65.7920296,134.924712 C67.3940221,135.487471 67.5430446,135.520574 67.7665784,135.321953 C67.8410897,135.255746 67.8783454,135.156436 67.8783454,135.090229 C67.8783454,134.924712 67.8038341,134.858505 67.4685333,134.593677 L67.5803003,134.593677 C68.7724807,134.759195 68.9215032,134.792298 69.0705258,134.626781" id="Fill-13" fill="#FFFFFF" mask="url(#mask-2)" transform="translate(61.302725, 134.577126) rotate(12.000000) translate(-61.302725, -134.577126) "></path>
        <path d="M68.185026,137.020666 C68.1477703,136.987563 68.1105147,136.987563 68.1105147,136.954459 L68.0732591,136.921356 C67.9242365,136.788942 67.7007027,136.788942 67.5516801,136.921356 C67.5144245,136.954459 67.4771689,136.987563 67.4771689,137.020666 C67.2908907,136.987563 67.1046125,136.987563 66.9555899,136.954459 C65.7634095,136.788942 65.614387,136.788942 65.4653644,136.921356 C65.3908531,136.987563 65.3535975,137.086873 65.3535975,137.15308 C65.3535975,137.219287 65.3535975,137.285494 65.4281088,137.318597 C65.3908531,137.318597 65.3908531,137.318597 65.3535975,137.285494 C63.7516051,136.722735 63.6025825,136.689631 63.3790487,136.888252 C63.3045374,136.954459 63.2672818,137.05377 63.2672818,137.119976 C63.2672818,137.186183 63.2672818,137.25239 63.341793,137.285494 C63.3045374,137.285494 63.3045374,137.285494 63.2672818,137.25239 C61.6652893,136.689631 61.5162668,136.656528 61.292733,136.855149 C61.2182217,136.921356 61.1809661,137.020666 61.1809661,137.086873 C61.1809661,137.15308 61.1809661,137.219287 61.2554773,137.285494 C61.2182217,137.285494 61.2182217,137.285494 61.1809661,137.25239 C59.5789736,136.689631 59.4299511,136.656528 59.1691616,136.855149 C59.0946503,136.921356 59.0573947,137.020666 59.0573947,137.086873 C59.0573947,137.219287 59.131906,137.318597 59.4299511,137.583425 L59.3554398,137.583425 C58.1260037,137.384804 57.9769812,137.351701 57.790703,137.517218 C57.7161917,137.583425 57.6789361,137.682735 57.6789361,137.748942 C57.6789361,137.914459 57.790703,137.980666 57.9769812,138.146184 L58.0887481,138.245494 C58.0887481,138.278597 58.1260037,138.278597 58.1260037,138.311701 C58.2750263,138.444115 58.4985601,138.444115 58.6475827,138.311701 C58.6848383,138.278597 58.722094,138.212391 58.722094,138.179287 C58.8711165,138.212391 59.0201391,138.245494 59.1691616,138.245494 C60.3985977,138.444115 60.5476202,138.477218 60.7338984,138.311701 C60.8084097,138.245494 60.8456653,138.146184 60.8456653,138.079977 C60.8456653,138.01377 60.8456653,137.947563 60.771154,137.881356 C60.8084097,137.881356 60.8084097,137.881356 60.8456653,137.914459 C61.8888232,138.278597 62.3358908,138.444115 62.5594247,138.444115 C62.6711916,138.444115 62.7457028,138.411011 62.8202141,138.344804 C62.8947254,138.278597 62.931981,138.179287 62.931981,138.11308 C62.931981,138.046873 62.931981,137.980666 62.8574698,137.914459 C62.8947254,137.914459 62.8947254,137.914459 62.931981,137.947563 C64.5339735,138.510322 64.682996,138.543425 64.9437855,138.344804 C65.0182968,138.278597 65.0555524,138.179287 65.0555524,138.11308 C65.0555524,138.046873 65.0555524,137.980666 64.9810411,137.914459 C65.0182968,137.914459 65.0182968,137.914459 65.0555524,137.947563 C66.6575448,138.510322 66.8065674,138.543425 67.0301012,138.344804 C67.1046125,138.278597 67.1418681,138.179287 67.1418681,138.11308 C67.1418681,137.947563 67.0673568,137.881356 66.7320561,137.616528 L66.843823,137.616528 C68.0360034,137.782046 68.185026,137.782046 68.3713042,137.649632 C68.4458154,137.583425 68.4830711,137.484114 68.4830711,137.417908 C68.4458154,137.219287 68.3713042,137.15308 68.185026,137.020666" id="Fill-15" fill="#FFFFFF" mask="url(#mask-2)" transform="translate(63.081004, 137.599977) rotate(12.000000) translate(-63.081004, -137.599977) "></path>
    </g>
</svg>