
<svg width="90px" height="117px" viewBox="67 -1 90 117" version="1.1" xmlns="http://www.w3.org/2000/svg" xmlns:xlink="http://www.w3.org/1999/xlink">
    <!-- Generator: Sketch 42 (36781) - http://www.bohemiancoding.com/sketch -->
    <desc>Created with Sketch.</desc>
    <defs></defs>
    <g id="Group" stroke="none" stroke-width="1" fill="none" fill-rule="evenodd" transform="translate(112.519724, 58.182943) rotate(11.000000) translate(-112.519724, -58.182943) translate(79.019724, 6.182943)">
        <g transform="translate(-0.000000, -0.000000)" stroke="white" fill-rule="nonzero" stroke-width="0.5" fill="white">
            <path d="M63.7696202,85.57737 L63.6498944,52.3771858 L64.8471523,50.9389107 C64.9668781,50.6991982 65.0866039,48.781498 63.1709913,41.1106974 C60.6567497,30.8030589 57.1847018,27.6867962 49.7617028,20.9748456 L49.5222512,20.8549893 C42.6978812,14.74232 34.0776243,13.5437574 30.0069474,13.0643324 C29.6477701,13.0643324 29.2885927,12.9444761 28.9294153,12.9444761 C25.09819,12.3451948 24.8587384,11.9856261 24.7390127,11.6260573 C24.7390127,11.506201 24.6192869,11.506201 24.6192869,11.3863447 L24.1403837,9.1090758 L25.5770932,8.86936328 L25.9362706,10.9069197 C26.2954479,11.026776 27.0138027,11.2664885 29.0491411,11.506201 C29.4083185,11.506201 29.6477701,11.6260573 30.0069474,11.6260573 C34.3170759,12.2253386 43.1767843,13.4239012 50.3603317,19.776283 L50.5997833,19.8961392 C58.0227823,26.6080898 61.8540076,29.9640651 64.487975,40.7511286 C66.8824908,50.2197732 66.2838618,51.538192 65.9246845,51.8977608 L65.0866039,52.8566109 L65.2063297,85.57737 L63.7696202,85.57737 Z" id="Shape"></path>
            <path d="M3.30809623,85.097945 L1.87138675,84.9780887 C2.35028991,81.0228321 1.87138675,53.0963234 1.87138675,52.7367546 L2.35028991,52.7367546 L2.94891886,52.1374733 L3.30809623,52.4970421 L3.30809623,52.8566109 C3.30809623,53.815461 3.6672736,81.0228321 3.30809623,85.097945 Z" id="Shape"></path>
            <path d="M1.99111254,53.3360359 C1.63193517,53.2161797 0.554403062,52.3771858 0.195225691,50.9389107 L0.195225691,50.9389107 C-0.283677469,49.1410668 0.674128852,33.2001842 3.78699939,23.9712521 C7.01959573,14.3827513 8.21685363,12.1054823 8.81548258,11.3863447 C9.05493416,11.026776 9.29438574,10.7870634 9.53383732,10.7870634 L10.2521921,10.4274947 L10.1324663,8.86936328 L11.5691757,8.74950702 L11.6889015,10.5473509 C11.6889015,11.026776 11.44945,11.506201 10.9705468,11.7459135 L10.0127405,12.2253386 L10.0127405,12.2253386 L10.0127405,12.3451948 L9.89301469,12.4650511 C9.53383732,12.8246199 8.33657942,14.9820326 5.10398309,24.5705334 C1.87138675,34.039178 1.2727578,49.3807793 1.51220938,50.5793419 L1.51220938,50.5793419 C1.75166096,51.4183358 2.4700157,52.0176171 2.58974149,52.0176171 L1.99111254,53.3360359 Z" id="Shape"></path>
            <path d="M34.6762532,103.316097 C26.4151737,103.316097 18.5132716,102.596959 12.2875305,101.757965 C2.35028991,100.439546 0.314951481,95.1658708 0.434677271,90.9709017 L0.434677271,90.8510455 C0.913580432,86.6560763 1.39248359,85.4575137 1.75166096,85.097945 L1.75166096,85.097945 L1.75166096,85.097945 C1.87138675,84.9780887 1.87138675,84.9780887 1.99111254,84.9780887 L2.11083833,85.097945 L3.30809623,85.097945 C3.30809623,85.4575137 3.18837044,85.8170825 3.06864465,85.9369388 L2.94891886,86.056795 L2.82919307,86.1766513 C2.4700157,86.6560763 2.11083833,89.0532016 1.87138675,91.090758 C1.75166096,96.3644334 5.34343467,99.4806962 12.4072563,100.439546 C22.7036742,101.757965 37.669398,102.836672 50.9589607,100.799115 C57.064976,99.840265 61.1356528,98.4019899 63.2907171,96.604146 C64.9668781,95.1658708 65.2063297,93.6077395 65.3260555,92.0496081 L65.3260555,91.9297518 C65.5655071,89.6524829 64.3682492,86.7759326 63.889346,85.9369388 L65.2063297,85.2178012 C65.8049587,86.4163638 67.1219424,89.2929141 66.762765,91.9297518 L66.762765,92.0496081 C66.6430392,93.6077395 66.4035876,95.6452959 64.2485234,97.562996 C61.8540076,99.6005525 57.6636049,101.158684 51.1984123,102.117534 C45.8107517,102.956528 40.1836396,103.316097 34.6762532,103.316097 Z" id="Shape"></path>
            <path d="M26.5348995,9.94806962 L26.5348995,9.94806962 C26.4151737,9.94806962 26.1757221,9.94806962 26.0559964,9.82821336 C25.09819,9.46864458 23.0628516,8.86936328 19.1119005,8.86936328 C16.4779331,8.86936328 13.4847884,9.1090758 10.1324663,9.7083571 L10.0127405,9.7083571 C8.81548258,9.7083571 8.576031,9.22893206 8.576031,8.74950702 L8.576031,3.47583155 C8.576031,3.11626277 8.69575679,2.75669399 8.93520837,2.39712521 L8.93520837,2.39712521 L8.93520837,2.39712521 C9.29438574,2.03755643 9.89301469,1.19856261 10.9705468,0.838993824 L11.0902726,0.838993824 L11.3297242,0.838993824 C11.8086273,0.719137563 14.6820463,0.359568782 18.1540942,0.359568782 C21.0275132,0.359568782 23.422029,0.599281303 25.3376416,1.19856261 L25.3376416,1.19856261 C25.696819,1.19856261 27.8518832,2.03755643 27.8518832,3.59568782 C27.8518832,4.43468164 27.7321574,7.91051319 27.4927058,8.98921954 C27.4927058,9.22893206 27.37298,9.46864458 27.2532543,9.58850084 C27.0138027,9.82821336 26.7743511,9.94806962 26.5348995,9.94806962 Z M19.1119005,7.43108815 C22.5839484,7.43108815 24.7390127,7.91051319 26.0559964,8.27008197 C26.1757221,7.07151937 26.2954479,4.5545379 26.2954479,3.59568782 C26.2954479,3.23611903 25.4573674,2.75669399 24.7390127,2.51698147 C23.0628516,2.03755643 20.7880616,1.79784391 18.0343684,1.79784391 C14.4425947,1.79784391 11.44945,2.27726895 11.3297242,2.27726895 L11.3297242,2.27726895 C10.7310952,2.51698147 10.3719178,2.99640651 10.1324663,3.23611903 C10.1324663,3.35597529 10.0127405,3.47583155 10.0127405,3.47583155 L10.1324663,8.15022571 C13.4847884,7.67080067 16.4779331,7.43108815 19.1119005,7.43108815 Z" id="Shape"></path>
            <path d="M46.2896549,45.7850915 C39.8244622,45.7850915 32.521189,44.3468164 26.1757221,39.4327097 C22.8234,36.795872 18.5132716,32.0016216 17.0765621,23.6116833 C16.2384816,18.6975766 16.7173847,14.8621763 16.7173847,14.6224638 C16.8371105,14.262895 17.1962879,13.9033262 17.5554653,14.0231825 C17.9146426,14.1430387 18.27382,14.5026075 18.1540942,14.8621763 L18.1540942,14.8621763 C18.1540942,14.8621763 17.5554653,18.5777204 18.5132716,23.3719708 C19.5908037,29.7243526 22.4642226,34.6384593 27.1335285,38.2341471 C38.0285754,46.6240853 52.0364928,44.4666726 59.4594918,42.4291162 C59.8186692,42.30926 60.2975723,42.5489725 60.4172981,42.9085413 C60.5370239,43.26811 60.2975723,43.7475351 59.9383949,43.8673913 C56.3466212,44.7063852 51.5575896,45.7850915 46.2896549,45.7850915 Z" id="Shape"></path>
            <path d="M49.641977,38.9532847 L49.641977,38.9532847 C46.1699291,38.8334284 41.8598006,37.0355845 36.5918659,33.6796092 C32.8803664,31.282484 30.1266732,28.8853588 29.8872216,28.6456463 C29.5280443,28.4059337 24.0206579,23.7315396 26.8940769,19.8961392 C28.4505122,17.8585828 30.3661248,17.499014 31.4436569,17.499014 L32.0422859,17.499014 L32.1620116,17.499014 L32.2817374,17.499014 L32.4014632,17.499014 C35.5143338,18.2181516 46.1699291,21.0947018 53.3534765,31.282484 C53.5929281,31.6420528 55.7479923,34.518603 54.5507344,36.795872 C53.8323797,38.2341471 52.2759444,38.9532847 49.641977,38.9532847 Z M31.4436569,19.0571454 C30.4858506,19.0571454 29.2885927,19.4167142 28.0913348,20.8549893 C25.9362706,23.4918271 30.7253022,27.4470837 30.845028,27.5669399 L30.845028,27.5669399 C30.9647537,27.6867962 42.0992522,37.275297 49.641977,37.5150095 C50.9589607,37.5150095 52.7548475,37.275297 53.2337507,36.3164469 C53.8323797,35.1178843 52.6351218,33.0803279 52.1562186,32.3611903 C45.2121228,22.6528332 35.0354306,19.776283 32.0422859,19.1770017 L32.0422859,19.1770017 L32.0422859,19.1770017 C31.8028343,19.0571454 31.6831085,19.0571454 31.4436569,19.0571454 Z" id="Shape"></path>
            <rect id="Rectangle-path" x="2.23056412" y="52.0176171" width="0.23945158" height="1.43827513"></rect>
            <path d="M64.0090718,53.9353172 C46.0502033,51.8977608 2.70946728,53.4558922 2.23056412,53.4558922 L2.23056412,52.0176171 C2.70946728,52.0176171 46.0502033,50.4594857 64.1287976,52.4970421 L64.0090718,53.9353172 Z" id="Shape"></path>
            <rect id="Rectangle-path" x="64.487975" y="84.8582324" width="0.23945158" height="1.43827513"></rect>
            <path d="M32.7606406,88.4539203 C28.4505122,88.4539203 24.2601095,88.334064 20.0697068,88.0943515 C8.21685363,87.3752139 2.23056412,85.8170825 2.23056412,85.8170825 L2.58974149,84.3788074 C2.82919307,84.3788074 25.09819,89.8921954 64.3682492,84.9780887 L64.6077008,86.4163638 C53.4732023,87.7347827 42.817607,88.4539203 32.7606406,88.4539203 Z" id="Shape"></path>
            <rect id="Rectangle-path" x="2.35028991" y="84.2589511" width="0.23945158" height="1.43827513"></rect>
        </g>
    </g>
</svg>

