
<svg width="74px" height="124px" viewBox="0 -2 74 124" version="1.1" xmlns="http://www.w3.org/2000/svg" xmlns:xlink="http://www.w3.org/1999/xlink">
    <!-- Generator: Sketch 42 (36781) - http://www.bohemiancoding.com/sketch -->
    <desc>Created with Sketch.</desc>
    <defs></defs>
    <g id="Page-1" stroke="none" stroke-width="1" fill="none" fill-rule="evenodd" transform="translate(0.596154, 0.575342)">
        <polygon id="Stroke-1" stroke="white" stroke-width="2" points="12.3672877 1.81559974 2.84771818 77.5745797 2.84771818 78.8084394 4.06817581 79.6311769 53.8628469 90.4891415 55.1648311 90.4891415 56.1411972 90.4891415 56.7919452 89.3372102 68.9965214 6.42184443 68.9965214 5.10605654 68.0201553 3.78977511 66.2299881 2.96703753 14.8082029 0.00577446297 13.3436538 0.66416195"></polygon>
        <polygon id="Fill-3" fill="white" points="0 106.611491 2.84757173 107.598579 6.65686407 80.1955443 4.06802935 79.6309302"></polygon>
        <polygon id="Fill-4" fill="white" points="54.0256071 90.4887467 49.9575778 119.937027 52.8051495 120.924115 56.6139537 90.0662731"></polygon>
        <g id="Group-17" transform="translate(5.370014, 2.473642)">
            <path d="M54.5283868,65.7590908 L62.3246701,66.9574152 L62.3246701,86.699169 L64.6030204,86.699169 L64.6030204,85.5477312 L64.6030204,66.7930651 L65.7419515,65.7590908 L65.7419515,2.79671554 C65.7419515,2.79671554 64.7655854,-0.328897617 60.860121,0.493346426" id="Stroke-5" stroke="white" stroke-width="2"></path>
            <polyline id="Stroke-7" stroke="white" stroke-width="2" points="61.4283661 18.8822471 62.1621052 64.8188404 54.7758956 64.0775375"></polyline>
            <polygon id="Stroke-9" stroke="white" stroke-width="2" points="9.60094959 0.822589524 60.3719868 4.11304633 48.8181585 84.725043 0.162906684 74.8541661"></polygon>
            <path d="M21.1457953,22.6100825 C21.857078,22.6989204 22.5278415,22.187609 22.6186435,21.4487738 C22.7084692,20.7104322 22.1841606,20.0298353 21.4728779,19.9409974 L19.8442992,19.7371638 L19.5172166,22.4062489 L21.1457953,22.6100825 Z M21.7975196,17.290667 C23.9684697,17.5621161 25.508199,19.5807104 25.2392101,21.7769805 C24.9702213,23.9732506 22.9925917,25.5318621 20.8216417,25.2604129 L19.1930631,25.0565793 L18.5437796,30.3577338 L15.9237012,30.0295271 L17.5483744,16.7591202 L21.7975196,17.290667 Z" id="Fill-11" fill="white"></path>
            <path d="M36.6481945,27.644822 C36.3001199,30.4846732 33.7356944,32.4889548 30.9467046,32.1400193 C28.1396521,31.7886161 26.1546998,29.2147849 26.4817824,26.3917141 L27.5089196,18.0054172 L30.128998,18.3331303 L29.10479,26.7006726 C29.0237516,27.363502 29.208773,28.0209024 29.6193349,28.5529426 C30.0284323,29.0844894 30.6166929,29.4077606 31.2713463,29.4896888 C31.9269762,29.5716171 32.555756,29.400851 33.0820173,28.9862741 C33.6073022,28.5712038 33.9251094,27.9957316 34.0251869,27.3358635 L34.0061478,27.3333958 L35.0327967,18.9466053 L37.6538515,19.2748119 L36.6291553,27.6428478 L36.6481945,27.644822 Z" id="Fill-13" fill="white"></path>
            <path d="M42.4582562,25.2194982 C43.1880899,25.3108038 44.0492448,24.8034407 44.1625032,23.8755783 C44.2762499,22.9482094 43.559109,22.2819252 42.8292753,22.1906196 L41.6874152,22.0474919 L41.3163961,25.0763704 L42.4582562,25.2194982 Z M42.5773729,31.0778636 C43.4570787,31.1879239 44.2728326,30.5788908 44.3816974,29.6890312 C44.4905622,28.7991717 43.8490897,27.9882791 42.9693839,27.8782188 L41.0596118,27.6393436 L40.6676008,30.8384948 L42.5773729,31.0778636 Z M43.212499,19.989414 C45.3277962,20.2544471 46.8372582,22.2113484 46.5751039,24.350861 C46.4755145,25.1647148 46.1411091,25.8724567 45.6343751,26.4434869 C46.4979709,27.3012661 46.9563748,28.5306838 46.7986917,29.8183397 C46.5253092,32.0521191 44.5286405,33.60925 42.3386514,33.3353331 L38.0143259,32.7944091 L39.6375345,19.5422633 L43.212499,19.989414 Z" id="Fill-15" fill="white"></path>
        </g>
    </g>
</svg>