
<svg width="63px" height="98px" viewBox="0 13 63 98" version="1.1" xmlns="http://www.w3.org/2000/svg" xmlns:xlink="http://www.w3.org/1999/xlink">
    <!-- Generator: Sketch 42 (36781) - http://www.bohemiancoding.com/sketch -->
    <desc>Created with Sketch.</desc>
    <defs></defs>
    <g id="Group" stroke="none" stroke-width="1" fill="none" fill-rule="evenodd" transform="translate(30.664109, 61.860265) rotate(-9.000000) translate(-30.664109, -61.860265) translate(7.164109, 16.860265)">
        <g transform="translate(0.000000, 0.000000)" id="Shape" stroke="white" stroke-width="0.5" fill="white" fill-rule="nonzero">
            <path d="M45.168563,28.5467002 C44.4342341,22.6617514 43.6999052,18.0062597 43.6989274,18.0023442 L43.6989274,18.0023442 C43.6764379,17.4796292 43.4926113,16.9794281 43.1904706,16.5399168 C42.6233457,15.7157107 41.6973677,15.0481234 40.493694,14.4490567 C39.7241642,14.0692563 38.8304536,13.7246951 37.8399407,13.4114577 L37.8399407,1.4683006 C37.8399407,1.28721019 37.7666056,1.11101412 37.6394914,0.9837614 C37.5123772,0.856508682 37.3373507,0.783093652 37.1564575,0.783093652 L9.77801512,0.783093652 C9.59712184,0.783093652 9.42111757,0.856508682 9.29400337,0.9837614 C9.16688917,1.11101412 9.09355406,1.28721019 9.09355406,1.4683006 L9.09355406,13.4153731 C7.44106951,13.9380881 6.06530278,14.5469435 5.05230041,15.264453 C4.50962057,15.6501266 4.06569869,16.067124 3.74302419,16.5399168 C3.44088352,16.9794281 3.25803464,17.4796292 3.2345674,18.0023442 L3.2345674,18.0023442 C3.2335896,18.0072385 2.49926066,22.6627303 1.76395393,28.5467002 C1.03060279,34.4345856 0.293340454,41.5382239 0.292362652,46.4961856 C0.294318255,52.4506339 1.51950355,62.9685605 2.74371104,72.0387428 C3.96694073,81.1030518 5.19017043,88.693187 5.19017043,88.693187 C5.24394951,89.0289384 5.52946755,89.2726763 5.86680907,89.2726763 L41.0676635,89.2726763 C41.4040272,89.2726763 41.6895453,89.0289384 41.7433243,88.6961236 C41.7433243,88.6961236 42.966554,81.1020729 44.1897837,72.0377639 C45.4130134,62.9675817 46.6391765,52.4496551 46.6411321,46.4952067 C46.6401543,41.5392028 45.902892,34.4345856 45.168563,28.5467002 Z M28.5801604,2.15350754 C28.4266456,3.30954955 27.9162332,4.34910637 27.1320364,5.13611549 C26.1923691,6.07582787 24.9006933,6.65629604 23.4672363,6.65629604 C22.0347571,6.65629604 20.7430813,6.07582787 19.803414,5.13611549 C19.0172616,4.3481275 18.507827,3.30857068 18.3543122,2.15252868 L28.5801604,2.15350754 Z M16.9521448,2.15252868 C17.2953531,5.45228955 20.0811097,8.02573106 23.4672363,8.02670993 C26.8553185,8.02573106 29.6400972,5.45228955 29.9823278,2.15350754 L36.4719964,2.15350754 L36.4719964,13.0150165 C35.4951727,12.7595322 34.4411027,12.5334139 33.3176087,12.3395982 C30.4076714,11.8364605 27.0479454,11.5506314 23.4672363,11.5506314 C18.5000046,11.5516102 13.9737614,12.1017335 10.4614984,13.0218686 L10.4614984,2.15252868 L16.9521448,2.15252868 Z M42.8345508,71.8547158 C42.2234249,76.3770816 40.7361888,86.3027936 40.60223,87.154408 C40.5543177,87.4607934 40.5161834,87.6986581 40.483916,87.9022624 L6.45153438,87.9022624 C6.41926693,87.6986581 6.38113267,87.4607934 6.33322039,87.154408 C5.86583127,84.1737578 4.69638066,76.5562143 3.64524404,68.4061671 C2.59410741,60.2619931 1.66128477,51.5628015 1.66324037,46.4961856 C1.66226257,41.6644977 2.3917025,34.5755425 3.12407583,28.7170231 C3.4897736,25.7862951 3.85644916,23.1590159 4.13023359,21.2668659 C4.40499581,19.3727581 4.58784469,18.2196527 4.58784469,18.2196527 L4.59566711,18.1090407 C4.59664491,17.8604085 4.67389123,17.6068819 4.87336274,17.3122429 C5.21852667,16.7973588 5.96067802,16.2100386 7.04505989,15.6785138 C8.6682104,14.8748639 11.0286233,14.1759528 13.8495806,13.6894559 C16.6724936,13.2019801 19.9598623,12.9210453 23.4672363,12.9220241 C28.8109215,12.9210453 33.6500612,13.5759073 37.0987672,14.6135064 C38.8216534,15.1293694 40.1964424,15.7460556 41.0901529,16.3832981 C41.5370082,16.700451 41.8616383,17.0195617 42.060132,17.3132218 C42.2586257,17.6078608 42.3368499,17.8623662 42.3378277,18.1100196 L42.3466279,18.2167161 C42.3466279,18.2167161 42.5294768,19.3737369 42.8032612,21.2668659 C43.6285257,26.9394005 45.2741656,39.2427806 45.27221,46.4961856 C45.2741656,52.288142 44.0548471,62.8158573 42.8345508,71.8547158 Z"></path>
            <path d="M34.695825,43.0701509 L11.6519667,43.0701509 C11.415127,43.0701509 11.1846884,43.1849146 11.0182606,43.3838384 C10.8518327,43.5827622 10.7558166,43.8581951 10.7558166,44.141279 L10.7558166,68.6242069 C10.7558166,68.9072908 10.8518327,69.1811935 11.0182606,69.3816475 C11.1846884,69.5805713 11.4164072,69.695335 11.6519667,69.695335 L34.695825,69.695335 C34.9313844,69.695335 35.161823,69.5805713 35.3295311,69.3816475 C35.495959,69.1811935 35.591975,68.9042304 35.591975,68.6242069 L35.591975,44.141279 C35.591975,43.8581951 35.495959,43.5827622 35.3295311,43.3838384 C35.161823,43.1849146 34.9326646,43.0701509 34.695825,43.0701509 Z M12.5481167,67.5530788 L12.5481167,45.2108769 L33.7996749,45.2124071 L33.7996749,67.5530788 L12.5481167,67.5530788 Z"></path>
            <path d="M34.907514,28.3871449 L11.4402777,28.3871449 C11.0618685,28.3871449 10.7558166,28.6935303 10.7558166,29.0723518 C10.7558166,29.4511734 11.0618685,29.7575588 11.4402777,29.7575588 L34.907514,29.7575588 C35.2859232,29.7575588 35.591975,29.4511734 35.591975,29.0723518 C35.591975,28.6935303 35.2859232,28.3871449 34.907514,28.3871449 Z"></path>
        </g>
    </g>
</svg>