
<svg width="87px" height="61px" viewBox="-1 149 87 61" version="1.1" xmlns="http://www.w3.org/2000/svg" xmlns:xlink="http://www.w3.org/1999/xlink">
    <!-- Generator: Sketch 42 (36781) - http://www.bohemiancoding.com/sketch -->
    <desc>Created with Sketch.</desc>
    <defs></defs>
    <g id="picto-rouleau--com-visu" stroke="none" stroke-width="1" fill="none" fill-rule="evenodd" transform="translate(43.040710, 179.089017) rotate(12.000000) translate(-43.040710, -179.089017) translate(4.040710, 157.589017)">
        <g id="Group" transform="translate(-0.000000, 0.000000)" fill-rule="nonzero" fill="white">
            <g transform="translate(38.946353, 21.783683) rotate(-91.000000) translate(-38.946353, -21.783683) translate(18.446353, -16.716317)" id="Shape">
                <path d="M21.2472221,10.5204476 C23.1412124,10.7645416 27.9468203,10.6084958 27.8256119,8.73594678 C27.7366676,7.43527494 24.7727298,7.19466808 24.1265757,7.143234 C23.2057406,7.07174936 22.3328657,7.20600101 21.3963346,7.31409974 C20.1057704,7.46055609 17.9353552,7.32368915 18.0295315,8.92773486 C18.0905717,9.92764814 20.1668106,10.3809654 21.2472221,10.5204476 Z"></path>
                <path d=""></path>
                <path d="M40.2089248,26.6646447 L40.2106688,26.6646447 C40.2010767,23.0938994 40.1923567,20.0340079 40.1836367,17.0351398 C40.1749166,13.9185836 40.8001427,10.2615337 39.9979001,7.41173731 C38.4160868,1.7810138 27.5334909,-0.310347975 21.195774,0.0775869937 C15.7030278,0.410600832 8.2090351,2.20294756 6.12582023,6.70124967 C4.48907082,10.2196891 5.8755554,15.970716 5.67935475,19.5379742 C2.06577482,21.9710674 0.392401296,22.9282643 0.392401296,22.9282643 C0.392401296,22.9282643 0.404609336,27.5529722 0.409841353,29.5039799 C0.452569494,45.1181445 0.500529653,62.0591338 0.541513788,76.6829745 C7.37888836,73.2900691 13.9747181,69.5920463 22.9589638,68.3122968 L28.1212208,67.8615948 L28.1264529,67.8615948 L28.1264529,67.8615948 C33.4805505,66.9828567 38.9148725,64.7886268 39.9970281,60.9363018 C40.7992707,58.0865054 40.1740446,54.4294555 40.1827647,51.3128993 C40.1914847,48.37767 40.2002047,30.7636789 40.2089248,26.6646447 Z M20.4022514,3.60823109 C23.020004,3.39552068 27.260554,3.41557125 30.5166128,4.22108116 C32.6565078,4.75460071 36.7305053,6.29936648 36.7906735,8.70107623 C36.9153699,13.3449629 26.2900148,14.5602019 20.2731949,14.2062657 C16.7738474,13.9935553 9.10109405,12.6240141 9.02261379,8.9364525 C8.94326153,5.17566271 16.5070145,3.92642494 20.4022514,3.60823109 Z M13.3765242,15.9881513 C9.20573439,17.9199803 13.3765242,15.9881513 9.20573439,17.9199803 C9.03656584,14.0728858 9.20050238,17.9042885 9.03656584,14.0728858 C10.4666506,14.7214782 11.5915343,15.6917515 13.3765242,15.9881513 Z M36.8046255,54.0275723 L36.7889295,59.6460911 C36.7296333,62.0478009 32.6547638,63.5925666 30.5148687,64.1260862 C29.7335542,64.3196178 28.8955594,64.4652024 28.0366366,64.5759164 C26.337975,64.7938574 24.5678091,64.8644703 22.9859959,64.8479067 C22.1392811,64.9438008 21.3134944,65.064976 20.5060197,65.2062017 C14.0357583,66.3333926 8.7540369,68.776947 3.89698087,70.9023075 C3.85425273,55.5479287 3.81152458,40.1944216 3.76792444,24.8400427 C7.59252907,22.242186 11.815639,20.2092324 17.2368809,18.7028243 C22.6720749,17.1955444 28.6862787,17.6540922 33.6035029,15.767595 C34.6812985,15.3526353 35.6745098,14.4076432 36.8063695,14.3204668 C36.8177056,18.3140176 36.8281696,22.3110554 36.8395056,26.308965 C36.8272976,30.6215814 36.8159616,49.8805911 36.8046255,54.0275723 Z"></path>
            </g>
        </g>
    </g>
</svg>